<?xml version="1.0" encoding="UTF-8"?>
<!DOCTYPE svg PUBLIC "-//W3C//DTD SVG 1.1//EN" "http://www.w3.org/Graphics/SVG/1.1/DTD/svg11.dtd">
<!-- Creator: CorelDRAW X7 -->
<svg xmlns="http://www.w3.org/2000/svg" xml:space="preserve" width="10.5748mm" height="10.1148mm" version="1.1" style="shape-rendering:geometricPrecision; text-rendering:geometricPrecision; image-rendering:optimizeQuality; fill-rule:evenodd; clip-rule:evenodd"
viewBox="0 0 1057 1011"
 xmlns:xlink="http://www.w3.org/1999/xlink">
 <defs>
  <style type="text/css">
   <![CDATA[
    .str2 {stroke:#D9AA40;stroke-width:35.27}
    .str1 {stroke:#F2E8C3;stroke-width:7.62}
    .str0 {stroke:#F2E8C3;stroke-width:35.27;stroke-dasharray:35.270000 105.810000}
    .fil2 {fill:none}
    .fil18 {fill:none;fill-rule:nonzero}
    .fil8 {fill:#F2E8C3}
    .fil1 {fill:url(#id1)}
    .fil28 {fill:url(#id2)}
    .fil9 {fill:url(#id3)}
    .fil5 {fill:url(#id4)}
    .fil6 {fill:url(#id5)}
    .fil0 {fill:url(#id6)}
    .fil27 {fill:url(#id7);fill-rule:nonzero}
    .fil16 {fill:url(#id8);fill-rule:nonzero}
    .fil12 {fill:url(#id9);fill-rule:nonzero}
    .fil23 {fill:url(#id10);fill-rule:nonzero}
    .fil19 {fill:url(#id11);fill-rule:nonzero}
    .fil17 {fill:url(#id12);fill-rule:nonzero}
    .fil10 {fill:url(#id13);fill-rule:nonzero}
    .fil24 {fill:url(#id14);fill-rule:nonzero}
    .fil4 {fill:url(#id15);fill-rule:nonzero}
    .fil20 {fill:url(#id16);fill-rule:nonzero}
    .fil11 {fill:url(#id17);fill-rule:nonzero}
    .fil22 {fill:url(#id18);fill-rule:nonzero}
    .fil3 {fill:url(#id19);fill-rule:nonzero}
    .fil25 {fill:url(#id20);fill-rule:nonzero}
    .fil15 {fill:url(#id21);fill-rule:nonzero}
    .fil7 {fill:url(#id22);fill-rule:nonzero}
    .fil14 {fill:url(#id23);fill-rule:nonzero}
    .fil21 {fill:url(#id24);fill-rule:nonzero}
    .fil26 {fill:url(#id25);fill-rule:nonzero}
    .fil13 {fill:url(#id26);fill-rule:nonzero}
   ]]>
  </style>
     <clipPath id="id0">
      <rect x="110" y="88" width="837" height="835"/>
     </clipPath>
  <linearGradient id="id1" gradientUnits="userSpaceOnUse" x1="149.26" y1="505.74" x2="908.22" y2="505.74">
   <stop offset="0" style="stop-opacity:1; stop-color:#A37844"/>
   <stop offset="0.501961" style="stop-opacity:1; stop-color:#F5ECA7"/>
   <stop offset="1" style="stop-opacity:1; stop-color:#A67D4B"/>
  </linearGradient>
  <linearGradient id="id2" gradientUnits="userSpaceOnUse" xlink:href="#id1" x1="630.05" y1="697.74" x2="692.66" y2="697.74">
  </linearGradient>
  <linearGradient id="id3" gradientUnits="userSpaceOnUse" xlink:href="#id1" x1="620.54" y1="644.73" x2="675.55" y2="644.73">
  </linearGradient>
  <linearGradient id="id4" gradientUnits="userSpaceOnUse" xlink:href="#id1" x1="677.15" y1="660.03" x2="784.87" y2="660.03">
  </linearGradient>
  <linearGradient id="id5" gradientUnits="userSpaceOnUse" xlink:href="#id1" x1="286.8" y1="639.44" x2="389.87" y2="639.44">
  </linearGradient>
  <linearGradient id="id6" gradientUnits="userSpaceOnUse" x1="52.87" y1="505.74" x2="1004.61" y2="505.74">
   <stop offset="0" style="stop-opacity:1; stop-color:#3B3636"/>
   <stop offset="0.458824" style="stop-opacity:1; stop-color:#494444"/>
   <stop offset="1" style="stop-opacity:1; stop-color:#3B3636"/>
  </linearGradient>
  <linearGradient id="id7" gradientUnits="userSpaceOnUse" x1="458.86" y1="278.86" x2="464.11" y2="278.86">
   <stop offset="0" style="stop-opacity:1; stop-color:#A87E4C"/>
   <stop offset="0.439216" style="stop-opacity:1; stop-color:#F5ECA7"/>
   <stop offset="0.560784" style="stop-opacity:1; stop-color:#F4EAA5"/>
   <stop offset="1" style="stop-opacity:1; stop-color:#A87E4C"/>
  </linearGradient>
  <linearGradient id="id8" gradientUnits="userSpaceOnUse" xlink:href="#id7" x1="459.73" y1="673.96" x2="499.16" y2="673.96">
  </linearGradient>
  <linearGradient id="id9" gradientUnits="userSpaceOnUse" xlink:href="#id7" x1="392.7" y1="675.96" x2="443.9" y2="675.96">
  </linearGradient>
  <linearGradient id="id10" gradientUnits="userSpaceOnUse" xlink:href="#id7" x1="434.62" y1="291.77" x2="452.91" y2="291.77">
  </linearGradient>
  <linearGradient id="id11" gradientUnits="userSpaceOnUse" xlink:href="#id7" x1="409.5" y1="673.89" x2="429.83" y2="673.89">
  </linearGradient>
  <linearGradient id="id12" gradientUnits="userSpaceOnUse" xlink:href="#id7" x1="428.63" y1="263.4" x2="480.56" y2="263.4">
  </linearGradient>
  <linearGradient id="id13" gradientUnits="userSpaceOnUse" xlink:href="#id7" x1="448.08" y1="622.44" x2="516.61" y2="622.44">
  </linearGradient>
  <linearGradient id="id14" gradientUnits="userSpaceOnUse" xlink:href="#id7" x1="409.56" y1="301.5" x2="425.58" y2="301.5">
  </linearGradient>
  <linearGradient id="id15" gradientUnits="userSpaceOnUse" xlink:href="#id7" x1="272.61" y1="476.32" x2="764.78" y2="476.32">
  </linearGradient>
  <linearGradient id="id16" gradientUnits="userSpaceOnUse" xlink:href="#id7" x1="545.88" y1="617.97" x2="560.34" y2="617.97">
  </linearGradient>
  <linearGradient id="id17" gradientUnits="userSpaceOnUse" xlink:href="#id7" x1="473.52" y1="290.76" x2="624.83" y2="290.76">
  </linearGradient>
  <linearGradient id="id18" gradientUnits="userSpaceOnUse" xlink:href="#id7" x1="633.79" y1="299.18" x2="649.76" y2="299.18">
  </linearGradient>
  <linearGradient id="id19" gradientUnits="userSpaceOnUse" xlink:href="#id7" x1="313.59" y1="786.98" x2="743.26" y2="786.98">
  </linearGradient>
  <linearGradient id="id20" gradientUnits="userSpaceOnUse" xlink:href="#id7" x1="533.89" y1="313.13" x2="548.97" y2="313.13">
  </linearGradient>
  <linearGradient id="id21" gradientUnits="userSpaceOnUse" xlink:href="#id7" x1="312.88" y1="638.31" x2="337.2" y2="638.31">
  </linearGradient>
  <linearGradient id="id22" gradientUnits="userSpaceOnUse" xlink:href="#id7" x1="340.2" y1="661.64" x2="433.93" y2="661.64">
  </linearGradient>
  <linearGradient id="id23" gradientUnits="userSpaceOnUse" xlink:href="#id7" x1="504.69" y1="544.14" x2="526.72" y2="544.14">
  </linearGradient>
  <linearGradient id="id24" gradientUnits="userSpaceOnUse" xlink:href="#id7" x1="386.21" y1="342.44" x2="402.62" y2="342.44">
  </linearGradient>
  <linearGradient id="id25" gradientUnits="userSpaceOnUse" xlink:href="#id7" x1="522.47" y1="292.74" x2="535.47" y2="292.74">
  </linearGradient>
  <linearGradient id="id26" gradientUnits="userSpaceOnUse" xlink:href="#id7" x1="522.44" y1="617.47" x2="579.33" y2="617.47">
  </linearGradient>
 </defs>
 <g id="Layer_x0020_1">
  <metadata id="CorelCorpID_0Corel-Layer"/>
  <g id="_2595438622000">
   <polygon class="fil0" points="1057,0 0,0 0,1011 1057,1011 "/>
   <g>
    <g style="clip-path:url(#id0)">
     <image x="110" y="88" width="837" height="835" xlink:href="g-logo_Images\g-logo_ImgID1.png"/>
    </g>
    <path class="fil1" d="M529 146c198,0 360,161 360,360 0,198 -162,360 -360,360 -199,0 -360,-162 -360,-360 0,-199 161,-360 360,-360zm379 360c0,-210 -170,-380 -379,-380 -210,0 -380,170 -380,380 0,209 170,379 380,379 209,0 379,-170 379,-379z"/>
    <path class="fil2 str0" d="M284 749c-132,-136 -129,-353 7,-486 136,-133 353,-130 486,6 132,137 130,354 -6,487"/>
    <path class="fil3 str1" d="M332 734l0 0 14 11 -3 3 0 0c1,-1 1,-2 1,-3 0,0 -1,0 -1,-1l-7 -6 -9 9 7 6c0,1 1,1 1,1 1,0 1,0 1,0l0 0 -2 2 0 0c0,-1 0,-1 0,-1 0,0 0,-1 -1,-1l-6 -6 -6 7c-1,1 -1,1 -2,2 0,1 0,1 1,2 0,0 0,1 1,1l4 4c1,1 2,1 2,2 1,0 1,0 2,0 0,0 1,-1 2,-1l0 0 -3 3 -14 -13 0 0c0,0 1,0 1,1 1,0 1,-1 2,-1l15 -18c0,-1 1,-1 1,-2 0,0 0,-1 -1,-1zm33 27l0 0c-1,0 -2,-1 -3,0 0,0 0,0 0,0 0,0 0,0 0,0l0 0c0,0 0,0 0,0l-1 0 -12 3 0 16c-1,1 -1,3 0,3 0,1 0,1 0,1l0 1 -5 -5 0 0c0,0 1,0 1,0 0,0 0,-1 0,-1l1 -14 -12 4c0,0 -1,0 -1,0 -1,0 -1,1 -1,1 -1,0 0,1 0,1l0 0 -3 -2 0 -1c0,1 1,1 2,1l0 0 15 -5 1 -15c0,0 0,0 0,-1 0,-1 0,-1 -1,-1l0 -1 6 5 0 0c-1,0 -1,-1 -1,0 -1,0 -1,1 -1,1l0 11 11 -3c0,0 0,0 0,0 1,0 1,0 1,-1 0,0 0,0 0,0 0,0 0,0 -1,-1l1 0 3 3zm21 12l-3 2 0 0c0,-1 0,-1 0,-1 0,0 0,0 0,-1 0,0 0,0 -1,0l-6 -4 -13 20c0,1 -1,2 -1,2 0,0 0,1 0,1 1,0 1,0 1,1l0 0 -6 -4 0 0c1,0 1,0 2,0 0,0 1,0 1,-1l13 -21 -6 -4c0,0 -1,-1 -1,-1 0,0 0,0 0,1 0,0 -1,0 -1,0l0 0 1 -3 0 0c0,0 0,1 0,1 0,0 1,0 1,1l16 10c1,0 1,1 2,1 0,0 0,0 1,0l0 0zm-2 0l0 0 7 4c2,1 3,1 4,2 1,0 2,1 2,2 1,1 1,2 1,3 0,1 0,2 0,3 -1,1 -2,2 -4,3 -1,1 -2,1 -4,1l0 4c0,1 0,3 1,6 0,3 1,5 2,6 0,1 1,2 2,2 1,1 2,1 3,1l0 0c-2,1 -4,0 -6,-1 -1,-1 -3,-2 -3,-3 -1,-1 -1,-5 -2,-10 0,0 0,0 0,0l-1 -5 -2 -1 -2 -1 -5 9c0,1 0,2 0,2 0,0 0,1 1,1l0 1 -7 -4 0 0c1,0 2,0 2,0 1,0 1,-1 1,-2l11 -20c0,0 0,-1 0,-1 0,-1 0,-1 -1,-2zm5 3l-6 12 2 1c2,1 4,2 6,1 1,0 2,-1 3,-3 1,-2 1,-3 1,-5 0,-2 -2,-4 -4,-5l-2 -1zm29 30l-8 -3 -8 8c0,1 -1,1 -1,1 0,1 0,1 1,1l0 0 -4 -1 0 0c0,0 1,0 1,0 1,0 1,-1 2,-2l19 -20 1 0 0 27c0,0 0,1 0,2 0,1 1,2 2,2l0 1 -6 -3 0 0c0,0 1,0 1,0 0,-1 0,-1 0,-2 0,0 0,0 0,0 0,0 0,0 0,0l0 -11zm-7 -4l7 3 0 -11 -7 8zm36 28l0 0 -3 -27c0,-2 -1,-3 -1,-4 0,0 -1,0 -1,0l0 -1 6 2 0 0c0,0 -1,0 -1,1 0,0 0,0 0,0l3 24 14 -19c0,0 0,0 0,0 0,-1 0,-1 -1,-1l1 -1 4 2 0 0c-1,0 -1,0 -1,0 -1,0 -1,0 -2,0 0,1 0,1 0,1l-18 23zm28 -23l0 0c0,0 -1,0 -1,0 -1,0 -1,0 -1,0 0,0 -1,1 -1,2l-5 22c0,1 0,1 0,2 0,0 0,0 0,0 0,1 1,1 2,1l0 0 -8 -1 0 -1c1,1 2,0 2,0 0,0 1,-1 1,-2l5 -21c0,-2 0,-2 0,-3 0,0 -1,-1 -1,-1l0 0 7 2zm0 0l0 0 8 1c2,0 4,1 5,1 1,0 1,0 2,1 1,1 2,1 2,2 1,1 1,2 1,4 -1,1 -1,2 -2,4 -1,1 -3,2 -4,2l1 4c1,0 2,2 3,5 2,3 3,5 4,5 1,1 2,1 3,2 1,0 2,-1 3,-1l0 0c-2,1 -4,2 -6,1 -2,0 -3,0 -4,-2 -1,-1 -3,-4 -5,-8 0,0 0,0 0,0l-3 -5 -2 0 -2 -1 -2 11c0,1 0,2 0,2 1,1 1,1 2,1l0 0 -7 -1 0 0c1,0 1,0 1,0 1,-1 1,-1 1,-2l3 -23c0,-1 0,-1 0,-2 0,0 -1,-1 -2,-1zm5 2l-1 13 3 0c2,0 4,0 5,-1 1,-1 2,-2 2,-4 1,-2 0,-3 -1,-5 -1,-2 -2,-3 -5,-3l-3 0zm44 31l0 0 -12 0c-2,-1 -4,-1 -5,-2 -2,0 -3,-1 -5,-3 -2,-1 -3,-3 -4,-5 -1,-2 -1,-4 -1,-6 0,-2 1,-5 2,-7 2,-2 4,-4 7,-5 2,-1 5,-2 8,-1 3,0 6,1 9,2l1 4 -1 0c0,-2 -2,-3 -3,-4 -2,-1 -4,-1 -6,-2 -4,0 -7,1 -9,4 -3,3 -4,6 -5,10 0,2 0,3 1,4 0,2 1,3 1,5 1,1 3,2 4,3 1,0 2,1 4,1 1,1 2,1 3,1l2 0c1,0 3,0 3,0 0,-1 1,-1 1,-2l0 -5c0,0 0,-1 0,-1 -1,-1 -1,-1 -2,-1l0 0 8 1 0 0c-1,0 -2,0 -2,0 0,0 -1,1 -1,2l0 4c0,1 0,2 0,2 0,1 1,1 1,1l1 0zm9 -28l0 0c-1,0 -1,0 -1,0 -1,0 -1,0 -1,1 0,0 0,1 0,2l0 22c0,1 0,2 0,2 1,0 1,0 1,0 0,1 1,1 2,1l0 0 -8 0 0 0c1,0 1,0 2,-1 0,0 0,-1 0,-2l-1 -22c0,-1 0,-2 0,-2 0,-1 -1,-1 -2,-1l0 0 8 0zm25 -2l5 0 0 0c-1,0 -1,1 -2,1 0,0 0,1 0,2l2 26 -24 -23 1 21c0,1 0,2 0,2 0,0 1,0 1,0 0,1 1,1 1,1l0 0 -5 0 0 0c1,0 1,0 2,-1 0,0 0,-1 0,-2l-2 -19c0,-2 0,-3 -1,-4 0,-1 -1,-2 -3,-2l0 0 5 0 23 21 -1 -20c0,-1 -1,-2 -1,-2 0,0 -1,0 -1,0l0 -1zm30 -5c4,-1 8,0 11,1 3,2 5,5 5,8 1,5 1,9 -1,13 -2,4 -6,6 -10,7 -4,1 -8,1 -11,-1 -3,-2 -5,-5 -6,-9 0,-2 0,-5 1,-7 0,-3 1,-6 3,-8 2,-2 5,-3 8,-4zm6 27c2,0 4,-1 6,-3 1,-1 3,-3 3,-5 1,-2 1,-4 0,-6 0,-3 -1,-5 -3,-7 -2,-2 -5,-3 -7,-4 -3,0 -5,0 -7,0 -3,1 -5,2 -7,5 -1,2 -2,5 -1,8 1,4 3,7 6,10 4,2 7,3 10,2zm16 -2l0 -1c1,0 1,0 1,0 0,-1 0,-1 0,-2l-6 -23c0,0 -1,-1 -1,-1 0,-1 -1,-1 -2,0l0 -1 7 -2 0 1c0,0 -1,0 -1,0 0,1 0,1 0,1 0,0 0,1 0,2l5 19c1,2 2,3 3,3 1,0 2,0 4,0l3 -1c2,-1 3,-1 4,-2 0,-1 0,-3 0,-5l0 0 2 6 -19 6zm19 -36l0 0c0,0 0,0 -1,1 0,0 0,0 0,1 0,0 0,1 0,2l7 20c1,1 1,2 1,2 0,0 1,1 1,1 0,0 1,0 1,-1l0 1 -7 2 0 0c1,0 2,-1 2,-1 0,-1 0,-1 -1,-3l-7 -20c0,-1 -1,-2 -1,-3 0,0 -1,0 -2,0l0 0 7 -2zm24 22l-1 0 -18 -20c-2,-1 -3,-2 -3,-2 -1,0 -1,0 -2,0l0 0 6 -2 0 0c0,0 0,0 0,1 0,0 0,0 0,0l16 17 1 -23c0,-1 0,-1 -1,-1 0,0 0,0 -1,0l0 0 4 -2 0 0c0,0 0,1 -1,1 0,0 0,0 0,1 0,1 0,1 0,1l0 29zm0 -32l0 0 16 -8 2 3 0 0c-2,-1 -2,-2 -3,-2 0,0 -1,0 -1,1l-9 4 6 12 8 -4c1,-1 1,-1 1,-1 0,-1 0,-1 0,-1l0 0 2 2 -1 0c0,0 0,0 0,0 -1,0 -1,0 -2,0l-8 4 4 8c1,1 2,2 2,2 0,1 1,1 2,1 0,0 1,-1 2,-1l4 -2c2,-1 3,-2 3,-2 0,0 1,-1 1,-1 0,0 0,-1 -1,-2l1 0 1 3 -17 9 0 0c0,-1 1,-1 1,-1 0,-1 0,-1 0,-2l-11 -20c0,-1 -1,-2 -1,-2 0,0 -1,0 -2,0zm38 -23c4,-2 7,-3 10,-2 4,0 7,2 9,5 2,4 4,8 3,12 -1,4 -3,8 -7,11 -3,2 -6,3 -10,2 -3,-1 -6,-2 -8,-5 -2,-2 -3,-5 -3,-8 -1,-2 0,-5 1,-8 1,-3 3,-5 5,-7zm16 23c2,-1 3,-3 4,-5 1,-2 1,-4 1,-6 0,-2 -1,-4 -2,-5 -1,-3 -3,-4 -6,-5 -2,-1 -5,-2 -8,-1 -2,0 -4,1 -6,2 -2,2 -4,4 -4,7 -1,3 0,6 1,8 3,4 6,6 10,7 4,1 8,0 10,-2zm3 -36l0 1c0,0 -1,0 -1,0 0,1 0,1 0,1 0,1 0,1 1,2l13 17c1,1 2,2 2,2 0,0 0,0 1,0 0,0 0,0 1,-1l0 1 -6 4 0 0c1,0 1,-1 1,-1 0,-1 0,-2 -1,-3l-13 -17c-1,-1 -2,-1 -2,-1 -1,-1 -1,0 -2,0l0 0 6 -5zm18 22l0 -1c1,0 1,-1 1,-1 0,-1 0,-1 -1,-2l-15 -17c0,-1 -1,-1 -1,-1 -1,-1 -1,0 -2,0l0 0 6 -5 0 0c-1,1 -1,1 -1,1 0,1 0,1 0,1 0,1 0,1 1,2l13 15c1,1 2,2 3,2 1,0 3,-1 4,-2l3 -3c1,-1 2,-2 2,-3 0,-1 -1,-2 -2,-4l0 0 4 5 -15 13z"/>
    <path class="fil2 str2" d="M297 734c-125,-129 -122,-335 6,-460 129,-126 335,-123 461,6 125,128 122,335 -6,460"/>
    <path class="fil2" d="M513 551l-1 -6c0,-3 0,-18 1,-19 0,0 0,-1 1,-1 1,2 0,10 0,13 0,2 0,3 0,6 0,2 1,4 2,6 0,-4 -1,-16 0,-19 0,-2 0,-1 0,-5 2,-1 0,0 2,0l2 0c0,0 0,1 0,1l1 1 1 -3c0,1 0,1 1,1 2,1 -1,0 1,0 0,4 -3,11 -1,22 1,3 3,7 2,9 0,1 0,0 0,1 0,1 0,1 0,1l1 5c1,0 1,1 1,1 0,1 0,1 -1,2l-1 -2c-1,-1 -1,-2 -1,-3 -1,2 0,1 -1,2 -3,-2 -2,-6 -3,-8 -1,1 0,2 -1,4l-2 -3c0,-1 0,-2 0,-3l0 0c-1,2 -1,1 -2,2l-1 1c0,0 0,0 0,0l-2 0c1,3 2,3 2,5 -3,1 -4,-4 -5,-8l-2 -3c0,-2 0,-3 -1,-4 0,-2 -1,-8 -1,-11 0,0 0,-1 0,-1 0,-1 0,-1 1,-1 1,1 0,3 1,5 0,2 0,0 1,1 0,-3 0,-7 0,-10 0,-2 2,-8 2,-8 1,0 1,0 1,2 -2,4 0,15 0,20 1,1 1,3 1,4 0,1 1,2 1,3zm53 -165c2,3 2,2 5,3 6,3 -3,12 1,17 1,-1 0,-2 2,-3l0 1c0,1 0,1 0,2 1,4 7,4 7,-1 -1,-2 -2,-4 -4,-5 0,0 0,-7 1,-9 3,0 3,2 3,5 2,1 4,-1 5,2 0,1 0,2 0,2 4,1 3,-1 4,-4 3,1 2,4 1,6 -1,3 -2,2 0,5 3,0 1,-2 4,-3 0,4 0,9 -5,9 -6,-1 -3,-9 -3,-9 -1,-2 -4,-3 -4,0 -1,2 1,4 -1,5 -2,2 -3,2 -4,4 -2,3 1,8 5,2 2,-3 2,0 4,1 1,0 1,0 1,-1 2,-2 0,-1 2,-1 1,1 1,2 0,3 -2,4 -3,2 -3,10 2,-1 2,-1 3,-3 8,-8 3,-7 5,-12 2,0 2,0 3,1 0,1 0,2 1,3 0,1 0,2 0,3 -2,3 -3,9 -5,12 -3,8 -13,14 -14,15 7,0 14,-9 17,-14 2,-2 1,-2 3,-3 0,2 -2,4 -3,5 -1,2 -2,3 -3,5 -2,3 -5,6 -9,8 -3,1 -8,3 -12,3 -8,2 -10,4 -12,4 -1,3 -4,4 -5,6 2,-1 5,-3 7,-5 2,-1 3,-1 5,-2 1,0 3,-1 5,0 -2,1 -4,2 -6,3 -4,2 -13,7 -14,11l2 -2c0,0 0,0 0,0 2,-1 2,-2 3,-2 0,2 0,2 -2,3 -3,3 -1,3 -5,6l-4 3c-3,1 -4,1 -7,1 0,0 0,0 0,0 0,1 0,1 0,1 0,0 0,0 0,0 0,0 0,1 0,1 1,0 1,1 1,1 0,1 1,1 0,2l-2 -3c-1,-2 -1,-3 -3,-3 0,3 5,8 3,10 -2,-2 -4,-8 -7,-9 0,1 0,1 1,2 2,4 5,8 4,12 0,0 0,0 0,0 -1,-2 -2,-5 -3,-6 0,3 0,4 1,7 0,2 2,4 -1,4 -2,-5 -3,-9 -6,-14 -1,-2 0,0 -2,-1 1,2 3,6 4,8 1,2 2,7 1,9 0,-1 -1,-5 -2,-6l-2 -6c-2,3 4,7 2,19 -1,-2 0,-9 -3,-15 0,0 0,0 0,0 0,0 0,0 0,0l-1 -3c-1,1 0,3 0,4 1,3 2,8 2,11 1,6 0,10 -1,16 0,-13 0,-23 -4,-34 -4,-8 -10,-18 -20,-17 0,1 3,2 4,3 9,6 15,17 16,28 1,2 1,5 0,7 0,-1 0,0 0,-1 -1,-1 0,0 -1,-1l0 -4c-1,-5 -2,-10 -4,-14 -1,-2 -9,-14 -12,-13 1,2 5,5 5,7 -1,-1 -5,-5 -6,-6 -2,-2 -6,-5 -8,-4 0,1 0,0 2,1 1,1 1,1 2,1 2,2 3,2 3,4 -2,0 -5,-3 -7,-4 -2,-1 -6,-3 -8,-4 0,2 2,2 3,2l-1 2c1,1 3,3 5,5 2,3 5,10 6,13 0,2 1,5 1,7 0,1 0,1 0,2 -1,-1 -1,-4 -1,-5 -1,-1 -1,-2 -1,-3l-5 -10c-2,-4 -5,-7 -8,-10 -2,-2 -2,-2 -4,-2 0,2 0,1 1,2 4,4 9,10 10,15 -2,-1 -5,-7 -7,-10l-7 -6c0,-1 -1,-1 -2,-2 0,1 4,4 4,7 -2,-1 0,0 -2,-1 -1,-1 -4,-5 -6,-7 -2,-1 -3,-1 -5,-3 -6,-5 -7,-14 -10,-20 -1,-2 -2,-3 -3,-5 -1,1 2,4 2,6 1,2 2,4 2,6 1,2 2,4 3,6 0,2 2,4 2,6 -1,0 -1,-1 -2,-2 -4,-5 -5,-11 -8,-17 -2,-4 -8,-14 -13,-15 1,3 4,4 4,7 -2,-1 -2,-2 -3,-3l-6 -5c-1,-1 -1,-2 -2,-2 -1,0 0,0 -1,0 2,3 4,4 5,7 -2,-1 -3,-3 -5,-3 0,2 4,3 5,6 -3,0 -4,-4 -8,-4l0 1c-2,0 -2,-1 -4,-1l-12 -2c-3,-1 -7,0 -10,-1 -3,0 -5,-1 -8,-2 0,2 1,1 -1,3l0 1c8,2 5,8 3,8 -2,1 -14,1 -16,1l0 5 3 -2c1,-1 1,-2 3,-1 4,1 6,0 10,1 1,-2 3,-1 5,-5 2,-4 0,-1 3,-6 7,-1 13,1 19,3 3,0 12,5 13,8l-11 -4c-1,0 -1,0 -2,-1l-2 0c1,2 0,1 2,1l5 3c9,5 11,9 17,16 0,-3 -3,-5 -3,-9 2,1 2,2 4,4 0,-1 -2,-4 -3,-5 -1,-2 -2,-4 -3,-5 5,2 8,11 9,16 1,1 1,3 1,4 0,1 2,7 3,7 0,-1 0,-2 0,-3 0,-1 0,-2 0,-2l1 -1c0,-1 0,-1 0,-1 0,2 0,4 1,6 4,13 7,9 6,14 1,1 2,2 5,2 5,2 9,2 13,4 3,1 3,0 3,0 -1,-1 -4,-2 -6,-3 -1,0 -1,0 -3,0l-2 -1c0,0 0,0 0,-1 9,0 19,5 23,12 1,2 2,6 2,9 -1,0 -1,0 -2,0 0,2 3,6 2,14 0,0 -1,2 -1,2 -1,2 1,0 -1,1 -1,-1 -1,-1 -1,-5 -1,-10 2,-5 0,-11 -1,-2 -1,-3 -2,-4 -2,-5 -8,-11 -14,-11 0,0 0,0 0,1l1 1c1,0 1,0 2,1 5,4 11,15 9,19 -2,0 -2,0 -2,-2l-2 -3c0,0 0,0 0,0 0,4 2,8 -1,8 0,-1 -1,-11 -5,-15 0,1 0,3 1,4 1,3 3,9 1,11 -2,-3 -1,-3 -1,-5 0,0 0,0 -1,-1l0 0c-1,3 -1,7 -4,10 -2,2 -3,0 -3,0 2,-1 1,0 2,-1 1,-2 2,-4 2,-6l-1 1c-2,3 -6,6 -9,4 1,0 3,0 5,-2 2,-1 3,-3 4,-5 -1,0 -1,0 -2,1 -1,2 -9,7 -15,3 -1,0 -1,0 -2,-1 -1,-1 -2,-2 -3,-4 -2,-2 -3,-5 -4,-7 -1,2 2,8 4,10 2,2 2,1 2,3 -1,0 -2,-1 -3,-2 -2,-2 -4,-4 -5,-8 -4,-13 -5,-13 -18,-19 -14,-7 -20,-11 -33,-20 -1,-1 -1,-2 -2,-2 -2,-1 -2,-1 -3,-2 -3,-2 -3,-3 -5,-5 -2,-2 -2,-2 -3,-5 -1,-1 -2,-2 -2,-3 -1,-1 -1,-1 -1,-1l-1 -2c-1,1 0,1 -2,2 0,0 0,0 -1,1 2,4 8,7 8,12 0,1 0,1 0,2 0,1 -1,0 0,0 1,1 6,1 8,2 5,2 7,4 11,8 2,1 2,1 3,2 1,1 2,1 3,3 -2,-1 -5,-3 -6,-4 -3,-2 -8,-6 -12,-7 -2,-1 -6,-2 -8,-1 3,2 4,-1 18,8 3,2 5,4 7,6 2,1 3,2 3,4 0,2 -1,3 -2,4 1,0 1,0 2,0 2,-2 1,-4 2,-5 2,1 0,5 -1,7 -1,2 -10,3 -13,2l-17 -1c-1,-1 -1,-1 -2,-1 -1,-1 -1,-1 -2,-1 0,2 0,5 0,7 0,3 1,2 2,5 4,0 8,-2 10,0 2,2 1,6 -1,7 -2,4 -5,1 -6,6 -6,2 -2,1 -5,3l-1 -3c0,0 0,0 -1,-1 -1,0 -2,2 -3,3 -2,1 -3,2 -2,5 1,0 1,1 3,1 2,-1 0,-2 3,-2 1,0 1,1 1,2l4 0 0 3c1,1 2,1 4,1 2,-4 1,-1 1,-5 -1,-2 0,-2 0,-2 3,1 2,1 3,2 5,1 7,-5 7,-8 -4,-3 -4,0 -7,1 0,-5 4,-5 5,-7 0,-1 -5,-2 0,-6 2,-1 2,0 3,-2l0 0c-5,0 -9,1 -11,0 1,-1 0,0 1,-1 1,0 2,0 4,0l13 -4c3,-1 7,-3 14,-3 2,0 3,0 5,0l0 -1c0,0 0,0 0,-1 3,1 10,7 12,9l1 2c2,2 1,1 3,4 1,3 1,1 1,4 0,2 1,3 1,5 2,-2 0,-5 2,-5 0,1 0,2 0,3l1 8c2,3 2,5 7,6 2,0 5,2 7,0 -2,0 -2,0 -4,-1 -2,-2 -3,-2 -2,-3l2 1c3,2 9,1 11,2 1,0 3,2 3,3l-1 0 -5 0c1,1 0,0 4,2 0,1 1,1 2,1 2,0 0,0 2,0l1 1c3,4 5,18 5,22 0,0 0,0 0,0 1,1 1,7 4,12 0,0 0,1 0,1l1 2 1 -1c4,1 3,9 3,11l1 1c1,0 0,0 1,0 0,-2 0,-1 -2,-2l1 -4c0,1 0,0 0,1 0,0 0,1 0,1 1,5 2,4 3,7 2,4 1,1 3,4 0,0 0,0 0,0 1,1 0,0 1,1l2 1c0,-1 0,-2 0,-2 -1,-3 -1,-2 -3,-4l-1 -2c-1,-1 -1,-3 -2,-5 -1,-1 -1,-3 0,-5l-5 -11c-5,-11 -6,-28 1,-37 1,2 -2,6 -2,11 -1,9 1,16 4,24 1,3 3,6 5,9 0,-1 -2,-3 -2,-5 -2,-4 -5,-11 -5,-16 -1,-4 0,-3 1,-4 0,2 0,4 0,5l5 12c0,-3 -2,-4 -2,-11 1,2 0,0 1,2l3 7c0,1 0,2 1,2 1,4 3,7 4,11 3,5 7,14 10,20 0,-5 -11,-25 -14,-33 0,-1 -1,-2 -1,-2 0,-1 0,-2 0,-3 1,0 1,0 1,0l1 3c0,1 0,2 1,2 1,3 0,-1 4,5l0 0c1,0 1,1 1,1l0 0c0,0 0,0 0,1l1 1c0,1 1,2 2,3 0,1 1,2 1,4 1,2 3,6 4,7 0,-4 -1,-2 0,-5l6 13c1,2 1,1 3,5 0,0 0,0 0,0l3 8 1 2c1,2 1,2 1,3 1,2 2,5 2,6 2,-1 0,0 2,0 0,0 1,2 1,2 1,0 3,0 2,-4 0,-1 0,1 0,-1 -1,-1 0,-1 -1,-4 -3,-7 -3,-9 -7,-17 -1,-3 -4,-7 -4,-10 2,1 3,2 4,5 1,2 2,4 3,6l3 9c2,3 1,2 2,2 0,0 1,0 0,-3 0,-1 -1,-1 -1,-3 -2,-5 -3,-8 -5,-13 -1,-1 -2,-2 -2,-4 2,1 7,12 8,15 3,5 5,14 5,15l1 2c0,0 0,0 0,0 0,0 1,0 1,0 0,-4 -3,-12 -5,-16 0,-2 -1,-3 -1,-6 1,1 0,0 1,2 1,0 1,1 1,1 0,-3 -6,-11 -6,-13 4,1 9,11 11,12 0,-2 -3,-7 -4,-10l-6 -13c-2,-3 -5,-12 -5,-15 1,1 0,0 1,2l5 9c1,1 2,2 3,3 0,2 1,3 2,4 1,2 1,2 2,3l9 15c3,3 2,2 4,7 2,3 3,5 4,8 0,1 0,1 1,2 0,1 1,3 2,5 1,0 0,0 1,0 0,-6 -8,-18 -8,-22 1,0 1,0 2,1l2 4c0,0 1,1 1,1l3 4c0,-1 -3,-6 -4,-7 -1,-1 -1,-3 -2,-4l-13 -27 -4 -13c-1,-6 -1,-10 0,-16 1,1 1,4 1,6 1,3 0,3 2,5 0,0 0,0 0,0l0 1c1,-1 1,-3 1,-4 2,1 0,1 1,5 0,2 4,13 4,13 1,1 1,0 1,1 0,-2 0,-1 -1,-2l-1 -4c-2,-5 -3,-12 -2,-17 1,1 1,4 2,7 0,3 1,5 2,7 0,-4 -2,-8 -1,-12l2 12c1,2 1,4 2,6l1 4c0,0 0,0 1,1l0 0c0,-13 -2,-18 3,-31 1,-1 1,-2 3,-3 0,1 -3,10 -3,13 3,-2 3,-7 6,-8 0,2 -2,4 -2,6 -1,2 -2,5 -2,8 0,-3 4,-12 10,-12 -1,2 0,0 -1,2 -2,1 -3,2 -4,4 3,0 4,-2 9,-2 8,-1 13,3 21,3 4,0 7,-1 10,-1 1,-1 1,-2 1,-3 4,-1 0,2 4,1 2,-1 1,-2 2,-4 0,-1 1,-2 1,-3 -4,1 -6,4 -12,5 -9,2 -12,0 -19,-2 -2,-1 -6,-4 -8,-6 -2,-3 -2,-8 -5,-12 2,0 3,2 3,3 1,2 2,3 3,5 0,-1 1,1 0,-3 -4,-11 -7,-9 -16,-13 -1,0 -2,-1 -3,-1 0,3 5,3 6,6 -5,-1 -11,-5 -13,-9 -2,-2 -2,-4 -3,-6 0,1 0,2 0,4 2,5 6,9 11,12 2,1 5,1 5,3 -1,0 -2,0 -3,-1 -1,-1 -2,-1 -4,-2l-4 -3c-1,-1 -1,-1 -2,-1 0,2 2,3 3,4 1,1 3,2 3,4 -3,-1 -7,-6 -8,-8 -4,-6 -2,-7 -2,-14 2,-1 1,0 2,-4 1,-4 5,-9 9,-10 0,1 0,1 -1,1 0,1 0,1 0,1 -2,1 -1,0 -2,2 3,0 2,-1 4,-1l-1 2c-2,1 -3,2 -4,4 -1,3 -1,7 1,9 1,-2 1,-6 3,-8 3,-4 4,-3 8,-4 0,-8 -1,-8 2,-15 -1,0 -1,1 -2,2l-1 1c-1,2 -1,3 -1,5 -1,1 0,1 -1,1 -3,-3 0,-9 1,-11 1,-1 2,-2 3,-4 1,-1 3,-2 5,-2 -1,2 0,0 -1,1 -1,1 0,1 -1,1l17 -7c1,0 3,-2 5,-3 0,2 -1,2 -2,3 -3,2 -6,4 -9,6 2,0 5,-3 7,-3 2,-1 7,-6 7,-8l5 -10c1,-2 3,-5 5,-6 0,1 -3,4 -5,9 0,0 0,1 0,1 -1,2 -2,4 -2,5 1,0 1,0 2,-1 2,-2 0,-4 2,-7l0 -1c1,0 1,0 1,0 0,-1 1,-2 1,-3l5 -5c0,-1 1,-1 2,-2 0,-1 0,-1 0,-1l-1 -1c0,0 0,0 0,0 1,-2 2,-3 3,-4 1,-2 1,-3 2,-4 0,-2 2,-3 2,-5 -1,1 -2,2 -3,4 -1,1 -1,-1 -1,2 -2,-1 0,-2 -3,2 -2,2 -2,3 -5,2 -3,-5 0,-8 0,-11 -1,-2 -1,-2 -1,-4l3 0c1,-2 2,-3 2,-6 0,0 0,0 0,-1 -1,-2 0,2 0,0 -1,-3 -4,1 -4,2 -2,1 -2,-2 -2,-3l0 -2c-1,-3 -1,0 -5,-3 -2,-2 -3,-3 -4,-4 -2,0 -3,0 -5,-1 -2,-1 -2,-2 -3,-3 -2,0 -4,1 -6,0 -2,0 -3,-2 -5,-2 -1,0 -1,0 -1,-2l-3 0 0 -4c0,-1 1,0 0,0l0 4c1,1 -2,1 2,1l0 1c-3,0 -1,0 -3,-1z"/>
    <path class="fil4" d="M373 569c2,-1 2,-2 3,-3 1,-2 -1,0 1,-1 0,0 0,0 0,0 3,-2 1,-2 3,-2 0,0 0,0 0,0 0,0 0,0 0,0l1 3c2,3 4,2 -1,7 -4,3 -8,3 -7,-4zm348 -131l1 1c1,-2 0,0 1,-2l0 -2c-1,-1 -1,-1 -2,-2 -1,0 -2,0 -3,0 -1,0 -2,0 -3,0 1,-1 3,-1 4,-1 0,-1 0,-1 1,-1 -2,-1 -2,0 -2,-2 -1,-2 0,0 1,-1 0,-2 0,-2 -1,-3 1,-2 2,-1 1,-4 -1,0 -1,1 -2,1 0,0 1,0 0,0l-1 -1c1,-2 1,0 2,-2l1 -2 -1 -2c0,0 0,0 0,0l1 -1c1,-1 1,0 2,-1 1,0 1,0 1,-2 -2,-2 -4,-1 -6,-2 3,-1 2,1 4,-2 2,-2 3,0 5,-2 2,-2 3,-6 -1,-6 0,1 0,2 -1,3 0,0 -1,0 -2,1 -1,1 0,1 -1,1 -1,1 0,0 -1,1l-2 1c0,0 0,0 0,0 0,0 0,0 0,0 -2,0 0,0 -2,-1 -1,2 1,2 -1,2l-1 -1c0,0 0,0 0,0 0,0 0,0 0,0 1,-2 0,0 1,-1 0,-1 1,-1 0,-3 -2,0 -3,1 -4,2 -2,2 -2,4 -2,4 0,0 0,0 0,0 0,0 0,0 0,-1 0,0 0,0 0,0 -1,-2 0,1 0,-1l-1 0c0,0 0,-1 0,-1 -2,-2 -1,-3 1,-5 2,0 1,0 2,-1l1 -1c-1,0 -1,0 -2,0 -2,-1 -2,-1 -4,-1 -1,0 -8,0 -4,-2 -1,0 -1,1 -1,-2 -4,1 -1,0 -3,-1 -1,-1 -1,1 -2,1 -1,-2 1,-1 -1,-3l-1 1c0,2 0,2 -1,2 -1,0 -1,0 -1,-1 0,-1 0,0 1,0 -4,-2 -2,-4 -3,-4 -1,0 0,1 -2,0 -1,0 -2,0 -2,0l1 1 -2 1c-1,-1 -2,-1 -2,-2 -1,0 0,0 -2,0l1 -3c-2,0 -2,0 -4,1 -1,1 -1,0 -1,2 2,1 1,1 3,1l2 0c-1,2 0,1 -2,1 -1,0 0,0 -2,0l0 1c-5,0 -8,-1 -13,0 -1,0 -3,1 -3,0l-1 0c-1,-2 -3,-5 -4,-7 -1,-2 -2,-5 -5,-6 1,1 0,2 1,3 0,3 0,-1 1,3l3 6 -2 2c0,2 -1,4 -1,5 -2,0 -3,1 -5,1 -3,1 -3,3 -1,3 -2,0 0,-1 -3,0 -1,0 0,1 -1,2 0,1 -2,1 -4,2 0,2 1,2 3,2 -2,3 -2,1 -2,1 -1,0 0,-1 -3,-1 -2,2 2,8 2,9 0,0 0,0 0,0l-2 0c2,1 2,-1 3,1 -1,1 -4,1 -6,0 -1,-2 -1,-1 -1,-3 0,-1 0,-3 0,-4 0,0 1,0 -1,-2l-1 -2c-1,-2 0,-2 -3,-2l1 3c1,2 2,3 1,5l-3 0c-1,0 -1,0 -2,-1l-9 -1c-3,-1 -8,-9 -8,-11 0,-1 1,-3 1,-8 -1,-1 -2,-1 -3,-2 0,-2 1,-2 1,-4 0,0 -1,0 -1,0l-2 -1 0 -4c-1,1 -1,0 -1,4 0,5 0,2 -1,5 -3,4 3,2 4,2 0,1 -1,5 -2,6 -1,1 -4,1 -6,1 0,-4 2,-8 -2,-7 -2,2 -1,2 -2,3 -1,-1 -1,-2 -1,-5 1,-1 1,0 2,-1 0,-1 2,-5 2,-6 -3,0 -3,1 -4,2 -1,1 -2,2 -3,3 -3,0 -2,0 -4,-1 1,-3 2,0 1,-5 -1,-3 0,-1 -1,-5 3,-2 5,-3 5,-6 -3,1 -2,2 -6,3 -1,-1 -2,-2 -3,-4 -1,-1 0,-3 -2,-3 -1,3 1,8 4,9 0,3 -1,4 -1,7 -3,2 -3,5 -7,1 0,-1 2,-1 3,-3 0,0 0,0 0,-1 -2,-1 -2,2 -6,2 0,-2 1,-4 2,-6 1,-1 2,0 -1,-4 -1,-1 0,-2 -3,-2 1,1 3,5 3,5l-4 3c0,0 0,0 0,0l-2 -2c0,-1 0,-2 0,-2 0,-2 0,-3 -3,-3 0,3 0,6 1,9 0,0 0,0 0,1l1 1c1,0 0,-1 0,0l0 4 3 0c0,2 0,2 1,2 2,0 3,2 5,2 2,1 4,0 6,0 1,1 1,2 3,3 2,1 3,1 5,1 1,1 2,2 4,4 4,3 4,0 5,3l0 2c0,1 0,4 2,3 0,-1 3,-5 4,-2 0,2 -1,-2 0,0 0,1 0,1 0,1 0,3 -1,4 -2,6l-3 0c0,2 0,2 1,4 0,3 -3,6 0,11 3,1 3,0 5,-2 3,-4 1,-3 3,-2 0,-3 0,-1 1,-2 1,-2 2,-3 3,-4 0,2 -2,3 -2,5 -1,1 -1,2 -2,4 -1,1 -2,2 -3,4 0,0 0,0 0,0l1 1c0,0 0,0 0,1 -1,1 -2,1 -2,2l-5 5c0,1 -1,2 -1,3 0,0 0,0 -1,0l0 1c-2,3 0,5 -2,7 -1,1 -1,1 -2,1 0,-1 1,-3 2,-5 0,0 0,-1 0,-1 2,-5 5,-8 5,-9 -2,1 -4,4 -5,6l-5 10c0,2 -5,7 -7,8 -2,0 -5,3 -7,3 3,-2 6,-4 9,-6 1,-1 2,-1 2,-3 -2,1 -4,3 -5,3l-17 7c1,0 0,0 1,-1 1,-1 0,1 1,-1 -2,0 -4,1 -5,2 -1,2 -2,3 -3,4 -1,2 -4,8 -1,11 1,0 0,0 1,-1 0,-2 0,-3 1,-5l1 -1c1,-1 1,-2 2,-2 -3,7 -2,7 -2,15 -4,1 -5,0 -8,4 -2,2 -2,6 -3,8 -2,-2 -2,-6 -1,-9 1,-2 2,-3 4,-4l1 -2c-2,0 -1,1 -4,1 1,-2 0,-1 2,-2 0,0 0,0 0,-1 1,0 1,0 1,-1 -4,1 -8,6 -9,10 -1,4 0,3 -2,4 0,7 -2,8 2,14 1,2 5,7 8,8 0,-2 -2,-3 -3,-4 -1,-1 -3,-2 -3,-4 1,0 1,0 2,1l4 3c2,1 3,1 4,2 1,1 2,1 3,1 0,-2 -3,-2 -5,-3 -5,-3 -9,-7 -11,-12 0,-2 0,-3 0,-4 1,2 1,4 3,6 2,4 8,8 13,9 -1,-3 -6,-3 -6,-6 1,0 2,1 3,1 9,4 12,2 16,13 1,4 0,2 0,3 -1,-2 -2,-3 -3,-5 0,-1 -1,-3 -3,-3 3,4 3,9 5,12 2,2 6,5 8,6 7,2 10,4 19,2 6,-1 8,-4 12,-5 0,1 -1,2 -1,3 -1,2 0,3 -2,4 -4,1 0,-2 -4,-1 0,1 0,2 -1,3 -3,0 -6,1 -10,1 -8,0 -13,-4 -21,-3 -5,0 -6,2 -9,2 1,-2 2,-3 4,-4 1,-2 0,0 1,-2 -6,0 -10,9 -10,12 0,-3 1,-6 2,-8 0,-2 2,-4 2,-6 -3,1 -3,6 -6,8 0,-3 3,-12 3,-13 -2,1 -2,2 -3,3 -5,13 -3,18 -3,31l0 0c-1,-1 -1,-1 -1,-1l-1 -4c-1,-2 -1,-4 -2,-6l-2 -12c-1,4 1,8 1,12 -1,-2 -2,-4 -2,-7 -1,-3 -1,-6 -2,-7 -1,5 0,12 2,17l1 4c1,1 1,0 1,2 0,-1 0,0 -1,-1 0,0 -4,-11 -4,-13 -1,-4 1,-4 -1,-5 0,1 0,3 -1,4l0 -1c0,0 0,0 0,0 -2,-2 -1,-2 -2,-5 0,-2 0,-5 -1,-6 -1,6 -1,10 0,16l4 13 13 27c1,1 1,3 2,4 1,1 4,6 4,7l-3 -4c0,0 -1,-1 -1,-1l-2 -4c-1,-1 -1,-1 -2,-1 0,4 8,16 8,22 -1,0 0,0 -1,0 -1,-2 -2,-4 -2,-5 -1,-1 -1,-1 -1,-2 -1,-3 -2,-5 -4,-8 -2,-5 -1,-4 -4,-7l-9 -15c-1,-1 -1,-1 -2,-3 -1,-1 -2,-2 -2,-4 -1,-1 -2,-2 -3,-3l-5 -9c-1,-2 0,-1 -1,-2 0,3 3,12 5,15l6 13c1,3 4,8 4,10 -2,-1 -7,-11 -11,-12 1,2 6,10 6,13 0,0 0,-1 -1,-1 -1,-2 0,-1 -1,-2 0,3 1,4 1,6 2,4 5,12 5,16 0,0 -1,0 -1,0 0,0 0,0 0,0l-1 -2c0,-1 -2,-10 -5,-15 -1,-3 -6,-14 -8,-15 0,2 1,3 2,4 2,5 3,8 5,13 2,2 4,11 5,15l2 5c0,5 2,7 3,11 1,3 1,3 2,4 0,0 1,0 1,0l0 1c0,0 1,0 1,0 1,1 1,1 2,2 0,0 0,0 0,0 0,1 -1,0 -2,2 1,1 3,1 4,2 1,1 2,2 4,2l2 -2c0,1 3,9 3,9 0,-7 -1,-4 -1,-7 0,0 0,-1 0,-1 1,-2 0,-1 1,-1 0,2 0,1 1,3 0,0 0,1 0,1 0,1 1,1 1,2 0,-1 0,-2 1,-3l1 2c0,-2 -1,-4 -1,-7 -1,-2 -1,-4 -1,-7 2,1 2,2 2,4 1,2 1,1 2,4l-1 -9c3,0 3,0 5,6l6 20c0,1 0,1 0,2 -1,-3 -3,-6 -4,-9 -1,1 0,2 1,5 1,2 1,3 2,4 1,2 4,8 4,9 -1,0 -4,-6 -5,-7 -1,-2 -3,-6 -4,-8 0,2 0,2 0,3 0,1 3,6 4,7l9 13c4,3 2,0 6,4 2,0 0,0 1,-1 2,3 9,9 12,11 0,0 0,0 0,0l3 1c0,-1 0,-1 -1,-1l-3 -2c-2,-2 -7,-6 -7,-8 1,1 3,2 5,3l14 7 0 -1c-4,-1 -2,-1 -5,-2 -5,-3 -9,-7 -14,-10 -4,-3 -5,-5 -7,-8l-4 -11c0,2 0,1 2,2 0,-5 -6,-16 -5,-18 2,1 2,6 3,7 2,-3 -4,-16 -2,-20 0,1 1,2 1,3 1,3 2,24 13,38 1,2 7,9 9,8 1,-1 1,1 1,-1 0,-2 0,-1 0,-1l-6 -7c-1,-1 -1,-1 -1,-2 0,0 7,6 19,12 3,1 6,3 7,2 -3,-2 -15,-6 -26,-20 -3,-3 -7,-10 -8,-15 -1,-5 -3,-13 -5,-18 0,-2 0,-4 -1,-5l-5 -12c-2,-5 -2,-6 -4,-10l-3 -6c-1,-2 -1,-2 -2,-4 -3,-6 -7,-13 -9,-19 -1,-2 -2,-9 0,-10 1,-1 0,-2 2,-6 3,-6 14,-4 19,-3 13,2 16,1 27,-4 -1,2 -2,3 -2,5 0,2 3,2 3,0 0,-2 0,-4 1,-6 0,-1 1,-2 3,-3 3,2 0,5 2,8 2,5 7,2 7,2 0,7 -1,3 -3,5 -1,1 -3,4 -3,6 0,0 0,0 0,0 1,0 1,0 2,-1 0,0 2,-1 2,-1 1,-1 1,-2 2,-3 1,2 0,4 3,5 2,1 5,1 7,-1 1,1 1,2 1,4 1,5 4,13 10,9 1,-1 2,-2 2,-2 2,-3 2,-5 5,-6 1,2 0,2 -1,5 0,3 1,4 2,5 3,-2 2,-4 3,-6 2,0 2,0 2,2 0,1 1,2 1,3 0,1 1,2 2,1 0,-1 0,-3 0,-4 4,0 2,-1 5,-2 0,1 5,6 10,2 1,-1 1,-2 2,-2 2,0 1,1 3,1 4,1 4,-4 7,-6 1,0 0,0 1,1 6,6 11,3 12,0 1,0 4,3 7,0 2,-3 1,-5 6,-1 1,1 2,2 3,1l0 0 -2 -1 2 1c1,-1 1,-5 1,-8l3 0c0,-1 0,0 0,-1l-3 -1 0 -3c3,0 3,1 5,0 0,-2 1,-1 -1,-2 -1,-1 -7,-7 -1,-7 5,1 -1,6 5,5 1,-2 0,-2 1,-4l5 -2c0,1 0,1 1,1 0,1 0,1 2,1 0,-6 -3,-3 0,-7 6,0 8,-2 9,-9 0,0 2,0 2,0 3,-1 2,-4 2,-8 -1,-4 -2,-5 -1,-6 1,0 8,0 8,-6 0,-5 -3,-5 2,-9 5,-4 6,-11 4,-15 -2,-5 -4,-3 0,-7 9,-8 -3,-8 3,-12 1,-1 1,-2 2,-2l0 -2 -3 -1c-1,0 0,0 -1,0l0 1c0,0 -1,0 -1,0 0,0 -1,0 -1,1 -1,1 -1,0 -2,2 -3,0 0,-1 -3,-1 -2,-1 -4,0 -5,0 0,2 5,5 4,9 -2,0 -7,-5 -8,-5 -1,1 -1,2 -2,3 -2,2 -3,2 -4,2 -1,2 2,4 -2,6 -3,2 -1,2 -3,3 -1,3 -3,2 -2,7 0,4 0,6 -5,5 0,-2 0,-2 0,-3 -1,-2 -4,-3 0,-7 1,-2 5,-4 8,-5 -1,-2 -1,-2 -2,-3 -2,0 -3,2 -6,2 -2,0 -3,-2 0,-5 -1,-2 -3,-5 2,-7 5,-2 6,-4 9,0 3,-1 0,-3 3,-4 2,-1 3,1 4,2 1,0 1,0 3,0 0,0 0,-1 0,-1 -4,-2 -2,1 -4,-3 -4,0 -2,2 -8,-1 0,-6 5,-2 8,-4 1,-1 1,-1 1,-2 2,-1 1,0 2,-1 0,-2 0,-3 2,-4 -1,-2 -2,-4 0,-6 2,-1 4,-1 6,-2 0,0 0,1 0,-1 0,0 -1,-1 -1,-1 -2,-5 -2,-2 -5,0 -2,1 -3,1 -3,2 -2,2 0,3 0,5 0,1 -3,7 -4,8 -2,1 -3,0 -5,-1 0,-3 1,-3 2,-5 1,-2 1,0 1,-2 -1,-1 -2,-1 -3,-3 -1,-2 0,-2 0,-5l-3 0c0,3 2,3 1,6 0,1 -2,2 -3,3 1,2 6,5 3,8 -1,1 -3,1 -4,0 -2,-1 -1,-2 -3,-3 0,5 3,4 2,9 -2,2 -2,1 -4,2 0,3 1,3 -1,5 -1,3 -4,6 -8,5 0,0 -2,-1 -2,-1l-2 -3c-1,-1 -1,0 -1,-2 1,-1 1,1 1,-2 -1,-2 -5,-3 -8,-3 -1,-2 0,-1 -1,-3 -1,-1 -1,-1 -1,-2 1,0 2,2 4,2 3,0 6,-1 6,-5 0,-2 -1,-1 -1,-3 2,-2 2,-2 4,-4 1,-2 1,-2 2,-3 1,0 1,-1 3,-1zm-359 0c-1,0 -2,0 -1,4 -2,1 -3,0 -3,7l-2 1c0,0 -1,0 -1,0l1 3c-1,0 -4,-1 -5,-2 3,-3 0,-3 1,-6 1,1 0,1 2,2 4,0 3,-6 3,-10 6,0 5,-7 4,-9 -2,-2 -4,-1 -5,2 -1,5 0,5 -2,5 -2,-2 2,-2 -3,-7 0,-1 -1,-2 -3,-2 0,1 -1,1 -1,2 -1,2 0,1 -1,2 0,-1 -1,-1 -1,-2 -2,0 -2,-1 -2,-1l0 0c-1,0 -1,0 -2,1 0,-7 -3,-7 -5,-2 0,1 -1,3 -2,4 -6,-2 -2,-4 -3,-6 -1,-2 -3,-1 -4,1 -1,2 -1,0 -2,1 0,1 -1,2 -1,2 -2,2 -3,1 -5,1 -2,3 -2,6 -6,5 0,1 0,2 0,3 0,3 2,1 4,3 0,1 3,4 1,7 -7,2 -1,-1 -5,-5 0,-1 -1,-1 -2,-1 0,2 1,4 2,6 0,0 0,-1 0,0 -3,-1 -2,-1 -4,-1 0,2 1,1 2,2 1,2 0,2 2,3 2,0 1,-1 3,-1 3,0 3,1 3,3 -2,0 -1,-1 -3,-1 0,2 0,1 0,3 0,1 0,1 0,3 3,-1 1,-1 3,-2l0 2c-1,0 -2,1 -2,1 -2,1 -3,-2 -3,-3l-1 -1c-2,1 -2,2 -4,1 0,0 -1,0 -2,0 -2,-2 -1,-4 -4,-3 -2,1 -3,-2 -4,1 0,2 1,3 0,4 -2,1 -5,2 -7,2 -1,-1 -1,-1 -2,-2 0,0 0,0 0,0 0,-2 0,2 0,-1 0,0 0,0 0,-1 1,-1 1,-1 1,-2 1,-1 2,-2 4,-2 0,0 0,0 0,0l0 1c1,2 1,3 3,2 1,-2 1,-2 0,-4 -1,-3 -1,-3 -2,-3l-1 2c-1,1 -4,1 -6,1 1,-1 5,-4 3,-7 -1,0 -1,0 -1,2 -1,1 -3,4 -4,4 -2,0 -4,-4 -3,-7 1,-2 4,-2 5,-5 0,-3 -4,-2 -3,-6 1,-4 5,-3 6,-4 0,-2 -1,-1 -3,-1 -3,-4 -2,-6 0,-9 4,-1 6,-1 9,1 0,1 -2,3 -3,4 0,2 1,4 2,4 0,-2 0,-4 1,-5 4,-3 6,2 14,1 -1,-3 -2,-1 -6,-3l-3 -2c-3,-2 -4,-9 1,-9 0,0 1,0 1,0l1 0c1,-1 5,0 7,-1l0 -1c-1,0 -4,0 -5,0l-1 -1 -3 -2c0,-8 8,-2 12,-2 -1,1 -2,1 -1,2 1,3 7,3 6,-2 -2,0 -3,0 -5,0 0,-2 1,-2 -1,-3 -2,-2 -6,-4 -5,-7 2,-1 5,-1 7,0 2,0 3,1 5,1 1,0 0,0 1,-1 0,0 0,0 0,0 0,0 0,0 0,0 0,-1 -2,-1 -3,-1 -1,-1 -2,-1 -3,-1 -1,-1 -3,-3 -4,-4 -2,-2 -7,-10 0,-10 1,2 1,2 3,3 0,-3 -1,-3 -2,-5 -1,-2 -1,-3 -2,-5 0,-2 0,-4 0,-6 0,-1 1,-2 2,-3 4,-2 3,7 4,10 2,0 3,-3 4,-5 2,1 7,5 10,4 1,-3 -1,-4 2,-6 2,-2 6,-1 8,-1 1,3 3,4 4,7 -3,0 -3,-2 -7,-2 0,3 1,4 2,5 2,1 1,0 2,1 -2,1 -3,1 -5,1 0,2 0,2 2,2 1,0 2,0 3,1 -1,2 -4,2 -4,5l6 -1c0,3 -1,6 2,6 1,-1 0,-2 1,-4 4,-6 3,-7 -2,-10 0,-3 2,-1 1,-5l-3 -6c0,-2 -2,-2 -1,-4 1,-2 2,-2 4,-3 0,0 0,0 0,0 0,0 0,0 0,0 1,-2 0,-3 -2,-4 -1,-2 -1,-2 -2,-4 -2,-3 -4,-7 -1,-9 2,-1 6,0 8,2 1,0 1,0 2,0 1,-3 -2,-3 0,-5l1 -2c2,0 2,1 4,1 2,1 2,2 3,0 0,-2 -4,-1 -6,-3l0 -1c-3,-3 -1,-8 5,-6 1,1 2,2 4,2 0,0 0,0 1,0l1 -5c2,0 1,1 2,1 3,1 1,-3 3,-5 3,-3 11,-2 14,-4 0,-3 0,-4 -1,-6 -1,-2 -2,-8 -2,-11 1,-2 1,-5 4,-7 8,-5 10,3 16,3 1,-2 2,-3 3,-4 2,0 5,3 5,-2 0,0 0,-1 0,-2 0,-11 5,-8 11,-6 1,0 6,2 7,1 0,-1 0,1 0,-1l0 -10c2,-1 2,-2 3,-3l-4 0c-1,2 -2,1 -2,4 0,2 1,4 1,6 -4,0 -10,-4 -14,-3 -4,2 -4,8 -5,13 -1,0 0,-1 -2,-1l-2 1c-1,1 -1,3 -1,4 -2,0 -3,-1 -5,-2 -17,-9 -20,9 -16,19 0,1 2,4 1,5 -2,2 -10,0 -15,7 -1,-1 -2,-2 -4,-1 -2,1 -1,3 -1,5 -2,0 -2,-1 -4,-1 -9,-2 -4,7 -4,10 -3,1 -4,0 -4,5 -3,0 -10,-3 -11,4 -1,6 4,8 4,13 0,1 -1,0 -1,3 0,1 0,2 0,3 -3,0 -5,-1 -8,1 -4,1 -3,3 -5,4 -1,0 -1,-1 -3,-2 -2,0 -4,0 -6,0 0,-1 -1,-3 -2,-4 -3,-7 -7,1 -7,6 -1,4 1,7 2,10 -2,1 -3,1 -4,3 -2,3 0,7 2,9 1,1 3,3 4,3 -3,0 -7,-1 -8,2 -1,3 1,4 2,6 -4,0 -6,0 -7,2 -2,4 0,5 2,7l-2 1c-3,2 -4,4 -4,8 -4,0 -8,0 -10,3 -1,1 -2,3 -2,5 0,2 1,2 2,4 -1,2 -2,2 -3,4 -1,4 1,5 1,7 -1,1 -3,2 -3,4 -1,2 -1,4 0,6 2,4 5,4 8,5 -1,3 -3,4 -2,8 1,1 1,0 1,1 -2,1 -2,1 -3,2 0,3 0,3 0,5 0,0 -1,1 -2,2l-2 3c-1,0 -1,1 -1,1 -1,2 0,2 -1,3 0,1 -1,1 -2,2 0,1 -1,2 -1,3 -1,1 -2,3 -3,4 -2,7 0,8 0,10 -1,2 -2,4 -1,7 1,0 1,0 1,0l2 1c3,1 2,0 4,3l0 1c0,3 -2,7 0,10 2,3 6,2 8,0 2,2 2,4 5,4 1,8 6,6 9,6 1,2 1,5 3,6 3,3 4,-1 6,-1 1,1 0,2 1,3 2,3 7,1 9,0 4,3 1,3 6,5 -1,2 -3,2 -2,6 0,4 3,3 6,3 0,1 -2,4 -2,6 -1,2 -1,3 0,6 1,0 4,0 4,0 0,-1 1,0 1,-1 0,0 -1,0 -1,-1 -4,-3 -3,0 -1,-7l3 -4c0,2 -1,2 -1,4 1,1 0,0 1,1 2,-1 2,-1 1,-5 0,-1 0,-1 0,-2 0,-2 0,-2 -1,-2 -2,0 0,-1 -2,0 -1,1 -1,1 -2,1 -2,1 -2,0 -2,-2 1,-1 4,-3 5,-3 0,2 1,3 2,3 1,1 3,0 4,0 0,2 -1,1 -1,4l1 4c3,0 0,-1 5,-2 0,2 -1,2 -2,4 -1,3 0,0 -1,2l0 2c-1,2 -3,5 -3,7 3,0 4,-5 5,-7 2,0 1,1 3,0 1,0 2,-1 3,-1 1,4 -4,6 -5,10 2,-1 2,-1 4,-3 0,-1 1,-2 2,-3 1,1 3,2 3,3 -2,1 -3,2 -4,3 -2,1 -3,2 -5,2 -3,0 -4,0 -6,-2 -1,-1 -1,-3 -1,-6 -2,2 -3,5 -1,7 2,3 6,3 9,3 2,0 2,0 3,-1 2,-1 2,-1 3,-1 1,-1 2,-1 3,-1 1,3 2,4 5,5 5,2 6,0 10,0 2,3 6,6 11,2l2 -1c1,-1 1,-3 3,-3 0,2 0,0 0,1l2 3c4,3 9,-4 11,-7 1,1 1,1 1,2l3 2c0,0 0,0 0,0l0 0c0,1 1,1 1,2 2,1 5,5 8,2 1,1 2,3 2,4 4,6 8,2 9,-2 0,-1 0,-2 -1,-3l-3 4c0,1 0,0 -1,1 0,-1 -4,-7 -4,-9l2 -1c2,-1 3,-2 4,-4 1,-1 1,-1 1,-3 -2,0 -1,0 -2,2 -2,2 -7,5 -9,1 0,0 0,0 0,0 -1,-1 -1,-2 -1,-4 1,0 1,1 3,1 4,-1 0,-1 3,-1 0,2 -1,2 -1,3 0,3 0,1 1,2 1,-1 1,0 1,-1 0,0 0,0 0,0 0,0 1,0 1,-1 1,-2 -1,-3 2,-8 1,1 1,1 2,2 2,2 5,2 8,4 0,2 -1,4 -2,5 -1,2 -3,2 -6,2 1,2 1,2 4,2 6,-1 6,-8 7,-9 1,1 1,8 0,10 0,3 -3,3 -7,3 0,1 0,1 1,2 1,0 4,1 5,0 3,-4 1,-2 3,-5 3,1 1,2 4,2 3,-2 2,-4 2,-8 2,1 4,5 7,3 3,-1 1,-5 1,-8 3,1 3,3 7,3 4,0 4,-2 6,-4 6,-1 3,0 6,-3 2,0 1,1 4,1 1,-1 1,-3 2,-4 0,-2 1,-2 2,-4 1,-3 1,1 1,3 1,5 5,13 7,17 1,1 3,3 3,4 -1,2 -4,6 -4,8 -1,2 -1,1 -1,3 3,-1 1,-1 3,-3 4,-4 0,-2 4,-4 0,-2 0,-4 0,-6 1,-4 0,-3 -1,-6l0 3c-2,-1 -1,0 -2,-2l-3 -7c0,-1 -3,-9 -2,-10 0,-4 -2,-18 -5,-22l-1 -1c-2,0 0,0 -2,0 -1,0 -2,0 -2,-1 -4,-2 -3,-1 -4,-2l5 0 1 0c0,-1 -2,-3 -3,-3 -2,-1 -8,0 -11,-2l-2 -1c-1,1 0,1 2,3 2,1 2,1 4,1 -2,2 -5,0 -7,0 -5,-1 -5,-3 -7,-6l-1 -8c0,-1 0,-2 0,-3 -2,0 0,3 -2,5 0,-2 -1,-3 -1,-5 0,-3 0,-1 -1,-4 -2,-3 -1,-2 -3,-4l-1 -2c-2,-2 -9,-8 -12,-9 0,1 0,1 0,1l0 1c-2,0 -3,0 -5,0 -7,0 -11,2 -14,3l-13 4c-2,0 -3,0 -4,0 -1,1 0,0 -1,1 2,1 6,0 11,0l0 0c-1,2 -1,1 -3,2 -5,4 0,5 0,6 -1,2 -5,2 -5,7 3,-1 3,-4 7,-1 0,3 -2,9 -7,8 -1,-1 0,-1 -3,-2 0,0 -1,0 0,2 0,4 1,1 -1,5 -2,0 -3,0 -4,-1l0 -3 -4 0c0,-1 0,-2 -1,-2 -3,0 -1,1 -3,2 -2,0 -2,-1 -3,-1 -1,-3 0,-4 2,-5 1,-1 2,-3 3,-3 1,1 1,1 1,1l1 3c3,-2 -1,-1 5,-3 1,-5 4,-2 6,-6 2,-1 3,-5 1,-7 -2,-2 -6,0 -10,0 -1,-3 -2,-2 -2,-5 0,-2 0,-5 0,-7 1,0 1,0 2,1 1,0 1,0 2,1l17 1c3,1 12,0 13,-2 1,-2 3,-6 1,-7 -1,1 0,3 -2,5 -1,0 -1,0 -2,0 1,-1 2,-2 2,-4 0,-2 -1,-3 -3,-4 -2,-2 -4,-4 -7,-6 -14,-9 -15,-6 -18,-8 2,-1 6,0 8,1 4,1 9,5 12,7 1,1 4,3 6,4 -1,-2 -2,-2 -3,-3 -1,-1 -1,-1 -3,-2 -4,-4 -6,-6 -11,-8 -2,-1 -7,-1 -8,-2 -1,0 0,1 0,0 0,-1 0,-1 0,-2 0,-5 -6,-8 -8,-12 1,-1 1,-1 1,-1 2,-1 1,-1 2,-2l1 2c0,0 0,0 1,1 0,1 1,2 2,3 1,3 1,3 3,5 2,2 2,3 5,5 1,1 1,1 3,2 1,0 1,1 2,2 13,9 19,13 33,20 13,6 14,6 18,19 1,4 3,6 5,8 1,1 2,2 3,2 0,-2 0,-1 -2,-3 -2,-2 -5,-8 -4,-10 1,2 2,5 4,7 1,2 2,3 3,4 1,1 1,1 2,1 6,4 14,-1 15,-3 1,-1 1,-1 2,-1 -1,2 -2,4 -4,5 -2,2 -4,2 -5,2 3,2 7,-1 9,-4l1 -1c0,2 -1,4 -2,6 -1,1 0,0 -2,1 0,0 1,2 3,0 3,-3 3,-7 4,-10l0 0c1,1 1,1 1,1 0,2 -1,2 1,5 2,-2 0,-8 -1,-11 -1,-1 -1,-3 -1,-4 4,4 5,14 5,15 3,0 1,-4 1,-8 0,0 0,0 0,0l2 3c0,2 0,2 2,2 2,-4 -4,-15 -9,-19 -1,-1 -1,-1 -2,-1l-1 -1c0,-1 0,-1 0,-1 6,0 12,6 14,11 1,1 1,2 2,4 2,6 -1,1 0,11 0,4 0,4 1,5 2,-1 0,1 1,-1 0,0 1,-2 1,-2 1,-8 -2,-12 -2,-14 1,0 1,0 2,0 0,-3 -1,-7 -2,-9 -4,-7 -14,-12 -23,-12 0,1 0,1 0,1l2 1c2,0 2,0 3,0 2,1 5,2 6,3 0,0 0,1 -3,0 -4,-2 -8,-2 -13,-4 -3,0 -4,-1 -5,-2 1,-5 -2,-1 -6,-14 -1,-2 -1,-4 -1,-6 0,0 0,0 0,1l-1 1c0,0 0,1 0,2 0,1 0,2 0,3 -1,0 -3,-6 -3,-7 0,-1 0,-3 -1,-4 -1,-5 -4,-14 -9,-16 1,1 2,3 3,5 1,1 3,4 3,5 -2,-2 -2,-3 -4,-4 0,4 3,6 3,9 -6,-7 -8,-11 -17,-16l-5 -2c-2,-1 -1,0 -2,-2l2 0c1,1 1,1 2,1l11 4c-1,-3 -10,-8 -13,-8 -6,-2 -12,-4 -19,-3 -3,5 -1,2 -3,6 -2,4 -4,3 -5,5 -4,-1 -6,0 -10,-1 -2,-1 -2,0 -3,1l-3 2 0 -5c2,0 14,0 16,-1 2,0 5,-6 -3,-8l0 -1c2,-2 1,-1 1,-3 3,1 5,2 8,2 3,1 7,0 10,1l12 2c2,0 2,1 4,1l0 -1c4,0 5,4 8,4 -1,-3 -5,-4 -5,-6 2,0 3,2 5,3 -1,-3 -3,-4 -5,-7 1,0 0,0 1,0 1,0 1,1 2,2l6 5c1,1 1,2 3,3 0,-3 -3,-4 -4,-7 5,1 11,11 13,15 3,6 4,12 8,17 1,1 1,2 2,2 0,-2 -2,-4 -2,-6 -1,-2 -2,-4 -3,-6 0,-2 -1,-4 -2,-6 0,-2 -3,-5 -2,-6 1,2 2,3 3,5 3,6 4,15 10,20 2,2 3,2 5,3 2,2 5,6 6,7 2,1 0,0 2,1 0,-3 -4,-6 -4,-7 1,1 2,1 2,2l7 6c2,3 5,9 7,10 -1,-5 -6,-11 -10,-15 -1,-1 -1,0 -1,-2 2,0 2,0 4,2 3,3 6,6 8,10l5 10c0,1 0,2 1,3 0,1 0,4 1,5 0,-1 0,-1 0,-2 0,-2 -1,-5 -1,-7 -1,-3 -4,-10 -6,-13 -2,-2 -4,-4 -5,-5l1 -2c-1,0 -3,0 -3,-2 2,1 6,3 8,4 2,1 5,4 7,4 0,-2 -1,-2 -3,-4 -1,0 -1,0 -2,-1 -2,-1 -2,0 -2,-1 2,-1 6,2 8,4 1,1 5,5 6,6 0,-2 -4,-5 -5,-7 3,-1 11,11 12,13 2,4 3,9 4,14l0 4c1,1 0,0 1,1 0,1 0,0 0,1 1,-2 1,-5 0,-7 -1,-11 -7,-22 -16,-28 -1,-1 -4,-2 -4,-3 10,-1 16,9 20,17 4,11 4,21 4,34 1,-6 2,-10 1,-16 0,-3 -1,-8 -2,-11 0,-1 -1,-3 0,-4l1 3c0,0 0,0 0,0 0,0 0,0 0,0 3,6 2,13 3,15 2,-12 -4,-16 -2,-19l2 6c1,1 2,5 2,6 1,-2 0,-7 -1,-9 -1,-2 -3,-6 -4,-8 2,1 1,-1 2,1 3,5 4,9 6,14 3,0 1,-2 1,-4 -1,-3 -1,-4 -1,-7 1,1 2,4 3,6 0,0 0,0 0,0 1,-4 -2,-8 -4,-12 -1,-1 -1,-1 -1,-2 3,1 5,7 7,9 2,-2 -3,-7 -3,-10 2,0 2,1 3,3l2 3c1,-1 0,-1 0,-2 0,0 0,-1 -1,-1 0,0 0,-1 0,-1 0,0 0,0 0,0 0,0 0,0 0,-1 0,0 0,0 0,0 3,0 4,0 7,-1l4 -3c4,-3 2,-3 5,-6 2,-1 2,-1 2,-3 -1,0 -1,1 -3,2 0,0 0,0 0,0l-2 2c1,-4 10,-9 14,-11 2,-1 4,-2 6,-3 -2,-1 -4,0 -5,0 -2,1 -3,1 -5,2 -2,2 -5,4 -7,5 1,-2 4,-3 5,-6 2,0 4,-2 12,-4 4,0 9,-2 12,-3 4,-2 7,-5 9,-8 1,-2 2,-3 3,-5 1,-1 3,-3 3,-5 -2,1 -1,1 -3,3 -3,5 -11,14 -17,14 1,-1 11,-7 14,-15 2,-3 3,-9 5,-12 0,-1 0,-2 0,-3 -1,-1 -1,-2 -1,-3 -1,-1 -1,-1 -3,-1 -2,5 3,4 -5,12 -1,2 -1,2 -3,3 0,-8 1,-6 3,-10 1,-1 1,-2 0,-3 -2,0 0,-1 -2,1 0,1 0,1 -1,1 -2,-1 -2,-4 -4,-1 -4,6 -7,1 -5,-2 1,-2 2,-2 4,-4 2,-1 0,-3 1,-5 0,-3 3,-2 4,0 0,0 -3,8 3,9 5,0 5,-5 5,-9 -3,1 -1,3 -4,3 -2,-3 -1,-2 0,-5 1,-2 2,-5 -1,-6 -1,3 0,5 -4,4 0,0 0,-1 0,-2 -1,-3 -3,-1 -5,-2 0,-3 0,-5 -3,-5 -1,2 -1,9 -1,9 2,1 3,3 4,5 0,5 -6,5 -7,1 0,-1 0,-1 0,-2l0 -1c-2,1 -1,2 -2,3 -4,-5 5,-14 -1,-17 -3,-1 -3,0 -5,-3 -1,0 -1,-1 -3,0 1,1 1,2 2,3 -2,1 -2,2 -4,2 0,-12 2,-6 2,-10l2 -11c1,-2 3,-1 3,-5 -2,0 0,0 -2,1 -1,1 0,1 -2,1 -2,-4 1,-2 1,-8 -2,1 0,0 -1,2 -2,1 -2,3 -5,3 0,-3 1,-4 1,-7 -3,0 -4,2 -7,-1 0,-3 3,-5 2,-9 -2,0 -2,2 -3,4 0,3 -1,2 -1,5 0,2 -2,4 -3,6 -1,3 1,2 3,2 1,0 1,0 2,-1 1,-1 2,-2 4,-1 1,3 -1,6 -3,8 -3,4 -6,1 -8,1 -1,2 -2,6 -5,4 -3,-1 -2,-4 -1,-6 4,-4 7,-6 7,-14 -3,2 0,1 -6,5 0,3 0,6 -2,7 -4,2 -6,-1 -7,-3 -3,1 -4,3 -6,3 -3,-1 -3,-3 -4,-4 0,0 0,0 0,1 -1,2 0,-2 -1,0 -1,8 -3,5 -6,4 0,1 1,4 0,5 0,0 0,0 0,0 -2,2 -2,2 -5,2 -1,-2 1,-5 0,-7 -2,1 -2,3 -2,5 -2,0 -2,-4 -2,-6 1,-3 2,-2 2,-6 -2,0 -1,0 -3,1 0,1 0,3 0,4l-2 2c0,0 0,1 0,1 0,2 3,8 3,10 -1,3 -6,5 -8,-5 0,-1 0,-3 -1,-4 -2,1 -1,1 -1,3 -3,-1 -2,0 -2,-2 0,-1 -3,-5 -4,-6 -2,3 2,6 2,7 0,2 -3,4 -6,2 0,-1 -1,-2 -1,-3 0,-2 2,-6 3,-6 1,-2 2,-1 3,-2 1,0 1,-2 2,-3 1,-1 1,0 2,-2 -1,-1 -3,-1 -4,0 0,1 -1,2 -2,2 -5,1 -3,0 -6,-2 -2,-1 -5,-2 -7,-2 -1,2 1,4 3,6 1,1 0,1 1,3 1,2 3,1 3,9 0,3 1,5 1,8 -4,0 -5,-5 -6,-6 -1,-1 0,-1 -1,-1 -2,-1 -3,-3 -3,-5 -1,-5 0,-2 -4,-2l-5 -7c-1,-1 -1,-1 -3,-1 0,3 3,3 2,7 -1,0 -2,1 -2,2 -1,1 0,2 0,4 0,3 0,3 1,4 1,-2 0,-4 1,-7 4,0 5,1 7,4 1,3 2,5 -1,7 -1,1 -2,1 -4,1 -1,-1 -1,-2 -3,-2 -2,5 -5,6 -9,3l-1 -3 3 0c1,-2 3,-7 3,-9 -2,0 -2,1 -3,3 -1,2 -1,2 -1,4 -3,0 0,-2 -4,-2 0,-6 5,-7 1,-11 -2,-2 -1,-5 -4,-7 -2,-1 -2,0 -2,0 -2,0 -1,4 -3,6 -3,2 -3,0 -5,-1 0,3 1,3 2,5 1,2 0,4 3,4 0,-4 -1,-3 1,-7l1 -1c0,0 0,0 0,-1 6,0 6,7 3,10 -1,2 -1,1 -3,1 -1,5 0,6 -3,8 -3,2 -5,0 -6,-2 -3,-4 -8,-3 -8,-13 -5,1 -2,9 -2,11 -1,1 -2,1 -3,3 1,2 1,1 2,2 1,1 2,2 4,3 0,2 0,2 -2,3 0,1 -1,1 -1,1l-2 1c0,0 0,0 0,0 1,3 3,2 5,4 2,3 4,9 15,6 0,2 -1,2 -2,2 -3,2 -4,1 -7,0 -5,-1 -6,-5 -7,-5 -5,-1 -5,0 -8,-3 0,-1 -1,-3 -2,-4 -1,-2 -1,-1 -2,-3 1,0 0,0 1,-2l1 0c3,-1 -3,0 0,0 2,0 0,0 1,0 1,-2 0,-2 -1,-3l-1 -2c-3,0 -2,-1 -5,0 0,1 0,1 1,2l3 1c-1,2 -1,4 -2,5 -3,-1 -1,-2 -4,-3 0,3 2,3 2,5 -1,1 -1,1 -3,1 1,-2 1,-4 -2,-5l1 5c-2,0 -3,0 -4,-1 -2,-3 0,-3 -2,-4 0,0 0,0 0,0l-1 4 4 3c0,2 -1,1 -1,4 1,3 0,1 0,3 0,2 2,4 3,6 -1,2 -2,0 0,4 1,1 2,3 2,5l-3 0c-1,1 -3,4 -5,3 0,-2 0,-2 -1,-3 -3,-3 -9,-3 -5,2l-3 1c-1,4 2,2 1,7 -2,0 -2,-1 -4,-1 -5,-2 -2,-3 -3,-7 0,-2 0,-1 -1,-2 -2,1 -2,2 -2,4 -4,0 -1,-3 -3,-7l-1 -2c0,1 0,1 0,3 0,1 0,1 0,2 -1,1 -1,3 -3,3 -3,1 -6,-2 -7,-3 -5,-4 -5,-5 -8,-10 -3,-4 0,-2 -3,-3 0,6 3,8 4,11 1,1 1,1 0,3 -3,0 -4,-4 -6,-5 0,3 1,2 1,5 -2,0 -4,-2 -5,-3 -3,-2 -3,-4 -5,-4 1,3 3,3 4,6 2,0 3,1 3,2 0,2 -2,5 -2,7 0,1 0,1 1,1 2,0 1,-3 5,-3 1,2 0,3 2,3 1,-2 0,-3 1,-5 1,2 -1,5 3,4l1 -3 6 0c0,6 2,7 6,7 0,0 0,0 0,0l1 0c0,0 0,0 0,0 2,2 1,2 1,4 1,2 2,4 2,8 -1,4 -2,4 -6,3 -2,0 -2,0 -2,-2l2 -1c0,-3 -2,-5 -4,-6 -3,-1 -4,1 -3,3 0,0 1,1 1,1 1,1 2,1 3,2 0,2 -1,7 0,9l2 0c2,1 3,6 1,7 -1,1 -6,0 -6,-3 -1,-3 2,-8 0,-9 -2,-2 -3,3 -3,4 -1,0 -2,0 -3,-1l0 -4c2,0 -1,1 3,1 0,-3 -1,-6 -4,-7zm178 218c0,1 -2,9 -2,13 1,-1 1,-2 2,-4 0,-2 0,-2 1,-4 0,-2 1,-4 2,-6 0,-1 0,0 1,-1 1,2 -1,6 -1,7 -1,6 -3,20 -3,25 1,-1 0,0 1,-1l3 -18c2,3 -1,13 -1,21 1,-2 1,-1 2,-3 0,-1 0,-3 0,-4 1,-3 1,-7 3,-7 0,1 0,3 0,4l2 -6c1,-3 3,-8 7,-9 3,-1 4,0 5,1 1,2 2,3 4,5l8 8c1,0 1,1 2,2 2,2 2,0 2,0 -1,-2 -6,-5 -6,-7 2,0 9,9 13,9 -1,-2 -5,-4 -5,-6 1,0 1,0 2,1 5,3 6,4 11,7l1 1c1,1 6,3 7,2l-12 -7c-2,-2 -3,-3 -5,-5l-9 -9c-1,-1 -2,-2 -3,-3 -2,-3 -9,-12 -10,-14 -2,-1 -6,-8 -6,-8 -4,-3 -8,-2 -11,0 1,1 -1,1 2,1 1,0 3,0 4,2 -1,0 -3,0 -5,1 -5,2 -5,8 -6,11 0,0 0,0 0,1zm-47 -87l2 5c4,6 19,30 19,34 -2,-4 -8,-12 -11,-16l-2 -4c0,0 0,0 0,0 -1,-1 -1,-1 -2,-1 1,1 5,8 6,9 1,2 4,7 4,10 -2,-2 -3,-7 -6,-7 0,2 3,6 4,8 1,2 4,6 4,8 -1,-1 -3,-5 -4,-5 -1,0 -1,0 0,2l3 4c1,3 0,2 0,3 -1,2 7,13 6,16 -2,-4 -4,-7 -6,-10 -1,-1 -1,-1 -1,-2 -2,-1 0,0 -2,-1 1,2 3,5 4,7 3,6 3,6 5,11l6 16c0,2 0,1 0,2 1,1 1,2 1,3l2 10c1,5 0,1 1,8 1,5 0,8 2,8 2,-3 0,-13 0,-17 0,-2 0,-2 0,-5 0,-3 -1,-2 1,-5 0,-1 0,0 0,-2 0,-1 0,-2 0,-3 0,-2 0,-4 1,-5 0,-2 -1,-4 1,-5 0,3 -1,17 0,18 1,0 1,0 1,-2 0,-3 1,-3 0,-6l1 -1c2,-1 1,-1 1,-3 0,-2 0,-3 1,-5 0,-5 0,-12 -1,-18 0,-2 0,-3 0,-4 0,-1 -1,-3 -1,-4 0,1 0,3 0,4 0,1 0,2 0,2 0,2 0,1 0,2 -1,-1 -3,-12 -4,-16 -1,-4 -3,-10 -4,-14l-3 -8c0,0 0,0 0,0 -2,-4 -2,-3 -3,-5l-6 -13c-1,3 0,1 0,5 -1,-1 -3,-5 -4,-7 0,-2 -1,-3 -1,-4 -1,-1 -2,-2 -2,-3l-1 -1c0,-1 0,-1 0,-1l0 0c0,0 0,-1 -1,-1l0 0c-4,-6 -3,-2 -4,-5 -1,0 -1,-1 -1,-2l-1 -3c0,0 0,0 -1,0 0,1 0,2 0,3 0,0 1,1 1,2 3,8 14,28 14,33 -3,-6 -7,-15 -10,-20 -1,-4 -3,-7 -4,-11 -1,0 -1,-1 -1,-2l-3 -7c-1,-2 0,0 -1,-2 0,7 2,8 2,11l-5 -12c0,-1 0,-3 0,-5 -1,1 -2,0 -1,4 0,5 3,12 5,16 0,2 2,4 2,5 -2,-3 -4,-6 -5,-9 -3,-8 -5,-15 -4,-24 0,-5 3,-9 2,-11 -7,9 -6,26 -1,37l5 11zm54 38l1 2c0,0 0,0 1,0l1 -3c4,1 0,2 5,3 0,0 0,0 0,0 0,-2 0,0 1,-1l1 -1c0,0 0,0 0,-1 0,3 0,1 1,3 1,4 2,11 2,15 -3,4 0,2 -3,3l0 2c-1,-1 0,-1 -1,-2 -2,-2 -3,-1 -4,-3 -1,-1 -1,-1 -1,-2 -1,1 2,1 -1,4 -1,-4 -1,-4 -2,-7 0,-1 0,-1 -1,-2 0,-1 -1,-8 -1,-9 0,0 -1,0 1,-1zm21 -206l-3 0c-2,-3 -3,-3 0,-6 0,0 3,-4 3,-4 3,-1 2,3 2,4 -1,5 0,3 -2,6zm-44 -30c0,-1 1,-1 1,-2 4,0 5,3 5,6 -3,2 -4,2 -6,-1 0,-2 0,-1 0,-3zm207 148c1,-1 3,2 7,1 3,-1 4,-5 5,-5l1 4c0,4 -3,1 -5,2 -1,3 0,5 -3,9l-2 0c-1,-2 -1,-8 -3,-11zm-44 -41c-1,-8 3,-9 5,-5 1,1 1,2 2,4 3,7 -6,9 -7,1zm46 14c2,-1 2,-1 4,-2 1,0 2,0 3,-1l-1 -1c-1,-1 -1,-3 -1,-5 0,-4 0,-5 4,-5 2,3 1,6 3,8 1,0 3,-2 3,-4 0,0 0,-1 0,0l-2 -1c-1,-1 -2,-2 -2,-4 -1,-3 -1,-7 0,-8 4,-4 6,4 7,5 1,1 1,3 2,3 1,1 2,-1 4,3 1,1 2,3 2,5 0,5 -3,7 -6,9 -5,2 -5,4 -3,9 1,6 -5,5 -9,5 -1,0 -2,2 -2,3 -3,5 -5,2 -6,1 -1,0 -5,-1 -6,-5 -1,-4 2,-5 2,-5 0,0 0,0 0,0 0,0 1,-1 2,0 2,2 0,2 2,2 1,-1 0,0 1,-2 0,0 0,0 0,-1 0,0 0,0 0,0 0,0 0,0 0,0 2,0 3,0 4,0 2,2 5,2 7,0 2,-3 1,-6 1,-9 3,0 7,2 8,-2 1,-2 -1,-6 -3,-7 0,3 2,4 1,7 -5,1 -7,-3 -9,-2 -1,1 3,6 -1,9 -3,3 -6,0 -9,-1l0 -4zm-30 -14c0,1 1,4 0,6 0,1 -2,2 -3,2 -4,-2 -2,-8 -1,-11l-1 0c0,-1 0,-1 0,-1 -2,-1 -2,1 -4,-3 0,-1 -1,-3 0,-5 2,0 2,4 8,0 2,-1 4,-4 7,-3 0,2 -1,5 -2,6 -1,2 -3,2 -6,2l-1 2c0,0 0,1 0,1 0,-1 0,0 0,0 2,0 3,1 3,4zm-17 -7l0 0 0 0 0 0 0 0zm33 40c3,-6 6,-1 6,5 1,2 1,1 1,2 2,0 0,0 2,-1 1,2 2,4 2,6 1,3 0,5 -3,5 0,0 0,-1 0,-1 0,0 -1,-1 -1,-1 -1,0 1,1 -1,0l0 4c1,1 2,2 4,2 -1,2 -1,4 -3,5 -1,1 -4,1 -6,1 0,-4 5,-3 3,-7 -1,0 0,-1 -1,0 -1,2 -2,3 -4,1 0,-1 1,-1 2,-2 0,-1 -4,-7 -1,-9 2,-3 1,3 6,4 0,-2 -1,-4 -1,-7 -2,0 -3,1 -4,-1 -1,-2 -1,-4 -1,-6zm-261 29c2,1 2,2 3,3 2,1 2,1 2,4 -3,2 -4,3 -6,0 -3,-4 -1,-5 0,-6 1,-1 0,-1 1,-1zm-1 -5c1,-2 2,-1 4,-2 1,-1 3,-2 4,-3 3,1 6,4 8,7 1,2 1,2 1,5 1,3 3,2 2,7 -6,4 -5,5 -7,7 -1,-1 -3,-4 -4,-5 0,-2 0,-2 1,-5 1,1 4,4 6,0 1,-3 0,-7 -1,-7 -1,2 1,5 -1,6 -1,2 -3,0 -4,-1 -1,-2 0,-4 -1,-6 -1,2 0,3 -2,4 -2,-1 -2,-3 -5,-6 -1,-1 0,0 -1,-1zm-8 -1c5,0 7,0 7,2 2,8 -6,4 -7,-2zm-40 -23c2,0 3,1 4,1 2,-1 1,-2 4,-2 0,4 -1,4 -1,6 0,1 2,3 5,3l0 -4c2,1 4,9 12,1 1,-1 1,-2 3,-3 2,6 3,8 8,12 5,4 3,1 7,2 2,0 2,1 4,1 2,1 2,0 4,1 -4,3 -15,1 -19,0 -2,-1 -5,-2 -7,-3 -3,-1 -6,-2 -8,-2 -14,-3 -13,2 -18,0 -2,-1 0,-1 -2,-1 -1,0 -7,1 -4,-7 0,-1 0,-3 1,-4 4,-1 3,2 3,5 2,0 2,-1 3,-2 0,-2 0,-2 1,-4zm13 43c1,1 2,2 4,3 1,0 2,0 3,0 2,-1 2,-1 2,-4 -1,1 -3,3 -5,2l0 -1c-1,0 -1,0 -2,-1 0,0 -1,-2 -1,-2l0 -3c0,0 1,0 1,0 1,-1 1,-1 1,-3 0,-3 -1,-3 0,-6 2,0 2,0 2,2 1,1 0,3 0,6 0,3 1,2 1,3 1,-1 1,0 1,-2 0,-1 0,-2 0,-3 0,-2 0,0 2,-3 2,1 2,3 2,5 1,0 2,1 3,1 1,9 -1,8 -3,9 -1,1 -1,0 -1,1 3,2 6,0 6,-4 1,0 1,0 3,1 0,5 -9,7 -13,6 -4,-1 -11,-5 -8,-11 0,1 1,1 1,2l1 2zm298 -83c4,-1 5,7 5,9 -1,5 -4,2 -6,3l0 1c0,0 -1,1 -3,2 -3,1 -7,-5 -1,-6 2,-1 4,-1 4,-3 1,-3 0,-3 1,-6zm-3 63l0 0c1,1 1,1 1,2 -1,2 -9,8 -12,8 -2,0 -3,0 -4,-1 -1,-1 -1,-1 -1,-1 -1,-1 -1,0 -2,-1 -2,-1 -3,-6 -2,-9 1,0 2,2 3,3l1 2c0,1 1,1 1,2 6,1 3,-1 4,-7 1,1 0,0 1,1 1,1 1,1 1,2 3,3 4,2 6,0l0 0c1,0 1,0 1,0 0,0 0,0 0,0 1,-1 1,-1 2,-1zm-93 -63l0 0 0 2c-1,2 -1,1 0,1 3,0 2,-2 3,-4 4,0 2,2 5,3 2,-1 0,-2 4,-2 0,3 -2,1 -4,3 -5,4 1,8 1,9 -1,0 -2,3 -4,2 0,-4 0,-1 -2,-5l-1 1c-2,0 -2,0 -4,0 0,-2 1,-2 1,-4 -5,-1 -5,7 -5,8 -1,1 -1,1 -1,3 -1,0 -4,-3 -2,-5l1 -1c2,-2 3,-2 2,-4 -2,-1 -3,-1 -5,-1l1 -1c0,-1 1,-1 1,-2 1,-2 0,-2 2,-2 0,1 0,1 1,3 3,0 2,-1 2,-3l4 -1zm53 2c-2,2 -2,2 -4,3 0,2 2,7 -3,7 -1,-1 -1,-1 -1,-4 1,-1 1,-2 2,-3 0,-2 0,0 -1,-1 0,-2 -2,-3 0,-5 4,-4 5,-2 6,-1l1 4zm-44 -42c1,3 2,6 -1,7 -4,0 -3,-4 -3,-7 0,0 -4,3 -6,-1 -1,-2 0,-2 -1,-4l-2 -1c0,-1 0,-1 0,-1 -1,-2 -3,-5 -1,-6 2,0 -1,0 1,0 1,0 1,0 3,2 1,0 2,0 2,1 2,1 1,0 2,1 0,-2 -1,-6 1,-7 2,0 1,0 2,1 2,3 2,4 2,6 -2,1 0,0 -3,1 1,3 2,1 1,6 2,2 1,0 3,2zm78 39c0,-1 0,-1 2,-1 7,1 -1,13 -6,8 -3,-4 1,-6 4,-7zm-25 -9c-2,2 -4,5 -7,5 -10,0 -8,-13 1,-10 1,0 1,2 3,1l5 -1 5 8c-1,0 -2,1 -3,1 -2,-2 -3,-3 -4,-4zm13 -11c0,2 1,1 1,4 -3,2 -5,0 -5,3 4,2 5,-1 8,0 -1,1 -1,1 -2,1l-6 2c-2,-1 -4,-4 -4,-7 2,-1 1,-1 2,-1 -1,-2 0,-1 -1,-2l-1 0c-2,-3 -1,-6 0,-9 1,0 1,0 2,1 1,2 3,4 3,6 2,1 1,0 2,0 2,-1 2,0 3,0 -1,1 -1,1 -2,2zm-45 -15c2,-2 5,0 5,3 0,2 -2,4 -3,5 -5,2 -7,-6 -2,-8zm-8 3c-1,-1 -2,-2 -1,-4 6,-7 9,5 1,4zm-2 -11c0,3 1,5 0,7 -4,5 -10,-1 -7,-4 1,-1 2,-2 3,-2 2,-1 1,-1 4,-1zm13 3c0,-2 1,-5 2,-6 4,-5 8,5 4,8 -3,2 -5,-1 -6,-2zm-10 -1c-2,-13 9,-4 4,1 -2,1 -3,0 -4,-1zm-212 117l0 -2c5,0 5,-2 11,1 0,3 0,6 -4,6 -3,0 -3,-3 -4,-6 -3,0 -1,1 -3,1zm-97 -73c-1,-2 -1,-2 -1,-4 -2,1 -1,0 -2,1l-1 5c-5,1 -2,-6 -2,-8 -3,1 -1,1 -5,0l-1 1c-2,5 -7,1 -2,-2l1 0c0,-1 0,-1 0,-1 0,0 1,0 1,0 0,-2 -1,-9 3,-7 0,0 4,5 4,7 3,0 1,1 4,1 0,-2 1,-5 3,-5 1,0 1,0 1,1 0,0 1,0 1,0 0,0 0,1 0,1 1,-1 2,-1 3,-1 1,3 1,9 1,12 -1,-1 -2,-1 -3,-2 0,-1 0,-2 -1,-2 0,-1 0,-1 0,-2 -1,-1 -1,-1 -1,-1l0 -2c-3,2 -1,3 -3,8zm52 -19c-2,-2 -3,-4 0,-7 5,-1 4,5 4,6 -1,2 -2,2 -4,1zm-89 19c2,2 1,3 2,6 3,0 4,0 3,4 0,4 1,3 -2,5 0,0 1,8 3,9 3,1 -1,-5 -1,-6 1,-2 2,-3 4,-3 0,1 0,2 0,3 0,2 0,2 2,3 0,-2 0,-5 0,-6 -1,-2 -2,-2 -1,-5 2,0 4,4 5,6 2,3 1,4 -1,6 -2,1 -1,-1 -2,2 3,1 3,-2 5,-1 3,2 1,5 -1,7 -1,1 -3,2 -2,3 2,2 1,-2 4,-1l1 3c7,-5 4,6 4,8 2,0 1,-1 5,-1 1,-2 1,-2 4,-2 2,4 1,6 0,10 1,1 2,1 2,2l-2 2 -3 0c1,-3 3,-4 2,-8 -2,-1 -2,2 -3,3 0,1 0,2 0,2 -3,-1 -2,-1 -3,-3l-6 0c0,-2 1,-4 0,-5 -1,-1 -3,3 -3,4 -2,-1 -3,-4 -4,-5 -2,-6 1,-4 2,-6 -1,-1 0,0 -1,-1 -1,0 -2,0 -3,-1 0,-1 0,-1 1,-1 0,-1 0,0 0,-1 0,-2 -2,-4 -3,-5 0,0 0,0 -1,0 -1,1 0,2 1,3 0,0 -1,0 -1,0 -4,2 -3,3 -6,5 0,3 1,2 1,5 -2,1 -1,1 -3,2 -1,0 -1,0 -1,-1 -1,-2 -1,-5 1,-6 1,-2 3,-2 3,-5 -3,1 -1,0 -2,1 -1,2 -5,5 -6,2 -1,-3 2,-4 4,-6 1,-2 0,-2 2,-2 0,0 0,0 0,0l0 1c1,1 0,1 2,2 0,-1 0,-1 0,-2 0,-2 -1,-4 -1,-5 -1,-2 -1,-1 -2,-2 -3,3 -1,5 -4,7 -2,2 -4,1 -4,-3 1,0 1,0 1,0l1 0c0,0 0,0 0,-1 0,0 0,0 0,0l-3 -4c-1,-1 0,-1 -2,-1 0,3 0,1 1,3 2,2 -2,4 1,7 0,1 2,1 3,2 -4,5 -10,4 -6,0 0,0 1,-1 1,-1l1 -1c0,0 0,0 0,-1 0,0 0,0 -1,0l-1 0c-4,0 -3,5 -5,7 -5,-2 2,-11 1,-15 -1,0 -2,1 -3,2 -1,1 -2,2 -3,3 -2,-1 -2,-3 -2,-6 0,0 0,-1 1,-1l0 -1c1,-2 6,-9 8,-9l-3 3c-1,2 -2,5 -1,7 1,2 2,2 4,1 -1,-1 0,0 -1,-1 0,0 -1,0 -1,-1 -2,-2 1,-4 1,-6l3 1c0,-2 0,-4 0,-5 -1,-2 -1,-2 -2,-2 0,-2 1,-3 2,-4 3,-2 7,-5 11,-3 1,4 0,2 3,4zm61 78c4,1 3,0 6,-1 0,2 0,3 1,4 2,1 4,0 5,0 2,2 1,3 3,3 1,-1 -1,-6 -1,-7 0,0 0,-1 0,-1 -2,1 -3,5 -8,-1l-1 -1c0,0 0,-1 0,-1 0,0 0,0 0,0 -1,1 -1,2 -2,3 -1,0 0,0 -1,0 -2,0 -3,-2 -3,-4 1,-1 4,-7 4,-7 3,-2 2,6 3,7 1,-1 0,1 1,-4 0,-1 1,-2 1,-3 2,0 3,8 3,8 -1,2 -1,1 -1,3 4,1 3,-4 3,-7 2,-1 0,-1 3,-1 0,2 0,3 -1,5 0,0 0,0 0,1l-1 2c4,0 3,0 4,-3 0,-2 0,-3 1,-4 2,0 1,0 2,1l0 5 1 -2c1,0 0,0 1,0l3 6c1,2 1,5 1,8 0,0 -1,0 -2,-2 -1,-4 1,-3 -1,-4 -1,1 -1,0 -1,1 -1,2 0,7 4,8l0 2c-1,0 -2,0 -2,0l-2 -1c-2,0 -2,0 -2,-2 -1,-4 -1,-6 -1,-9 2,1 0,1 3,1 0,-2 -1,-2 -1,-4 -1,-2 0,-2 -3,-2 0,2 0,2 1,4 -4,2 -1,0 -4,7 -1,2 -2,4 -4,6 0,1 0,0 -1,1l-2 0c0,-2 -1,0 -1,-7l0 -3c0,-1 0,0 -1,-1 -2,0 -2,1 -3,3 0,0 -1,2 -2,2 -1,1 -3,0 -3,-1 -1,-2 0,-3 -2,-2l-1 2c-2,1 -4,0 -5,-1l2 -8c1,-2 1,-2 3,-3 -1,-2 -1,-1 -2,-2 -2,-2 0,-2 -3,-2 0,3 0,2 1,4 -1,3 -2,4 -3,6 -3,9 -8,2 -3,-3 0,-1 1,-1 2,-2 0,-1 1,-1 0,-3 -2,1 -2,3 -5,3 0,0 0,0 0,0l-1 -1c0,0 -2,-1 1,-4 2,-2 2,-1 5,-2 2,-1 4,-4 4,-6 1,-2 0,-2 2,-3 1,2 0,3 0,5 4,3 2,1 5,0 0,2 -2,10 -1,13 1,2 1,1 2,1zm16 -49l-1 1c-1,0 -1,0 -2,0 0,2 0,1 1,3 0,2 -3,5 -6,4 -3,-1 2,-4 2,-6l0 0c-1,-1 -2,-2 -2,-3 0,-3 4,-3 6,-3 2,1 2,2 2,4zm300 50c2,-2 3,-1 6,-4 1,0 2,0 3,1 2,0 2,0 4,1l4 6c0,0 4,3 -2,4l0 0c-5,-3 -3,-6 -5,-9 -1,0 -1,0 -2,1 -1,2 0,8 -3,10 -2,2 -5,0 -5,-2 -1,-1 -1,-7 0,-8zm-216 -126c2,-2 2,-1 2,-1l1 0c0,-1 2,-2 3,-2 0,3 1,3 1,5 0,0 0,0 0,0 -1,1 0,2 2,3 5,5 5,4 11,6 3,0 6,2 9,2 2,1 7,3 8,3 0,0 0,0 0,0 -2,-2 -2,-1 -2,-3 4,0 7,3 9,5 1,0 1,-1 2,1 0,0 1,0 1,1 0,0 0,0 0,0 0,0 0,0 0,0 1,1 0,0 1,1 0,-2 0,-2 -1,-3 -2,-2 -1,-1 -2,-3 3,0 4,1 6,3 0,1 0,1 1,2 1,2 1,1 2,1 1,3 2,7 2,8 1,1 0,3 0,4 -1,-1 -1,-2 -2,-5 0,-2 0,-3 -2,-4 -1,-1 1,0 -1,-1 1,3 2,5 2,7 0,2 0,7 -1,8 -4,1 -3,-4 -4,-8 -1,-3 -3,-7 -6,-7 1,1 1,1 2,2 1,1 1,2 2,3 0,2 1,5 1,8l-2 0c-1,-2 0,-5 -1,-8 -1,-2 -2,-3 -4,-4 -3,-4 -7,-4 -11,-5 -5,-1 -17,-5 -22,-5 -5,1 -3,1 -6,2 -1,0 -3,-4 -4,-5 -1,-2 -3,-4 -4,-5 1,0 3,0 3,1 1,0 4,6 5,6 1,-1 -1,-3 -1,-5 2,1 1,1 2,2 0,1 1,1 1,1 0,0 0,0 0,0l1 2c0,-2 -2,-4 -2,-6 2,0 1,0 2,1 1,1 3,4 4,4 0,-2 -7,-7 -8,-12zm21 -38c2,-1 4,1 6,3 7,6 -1,11 -5,5 -1,-2 -3,-7 -1,-8zm-39 24c-3,-4 -5,-4 -6,-6 2,-1 3,-1 5,-2l2 -2c2,-4 3,-5 8,-7 -1,-3 -5,-5 -2,-9 2,0 6,1 7,3 1,2 1,3 0,4 -1,2 -2,1 -4,1l1 2c0,0 0,0 0,0 0,0 0,0 0,0l1 2c2,0 3,-1 5,1 1,1 2,3 1,5 -1,1 -3,2 -6,2 0,-1 -1,-1 -1,-2 -1,-1 -1,-1 -1,-2 -2,0 -1,0 -2,1 0,0 0,1 0,1 -3,-1 1,-5 -4,-3 -1,1 -1,4 0,6 1,0 1,0 1,1 2,1 2,2 4,2 1,1 1,1 2,1 1,-2 0,-2 1,-3 1,0 2,0 2,0 1,0 1,0 2,1 1,2 0,2 0,2 -1,2 -2,3 -4,4 -3,1 -5,0 -7,-2 -2,-2 0,-2 -3,-2 0,1 -1,1 -2,1zm-8 -19c-3,-1 -4,-1 -6,-3 -3,-7 3,-10 7,-6 3,2 2,3 2,7 7,0 6,-2 9,-1 6,2 -2,9 -8,8 -5,0 -4,-5 -4,-5zm129 26c1,0 1,-2 3,0 0,0 1,0 1,0 0,1 0,1 0,2 1,7 -6,7 -7,2 0,-1 1,-2 1,-3 2,-1 1,0 2,-1zm-21 -9c-6,1 -11,-5 -8,-8 4,-4 7,4 8,4 1,2 1,1 3,2 -1,2 -1,-1 -3,2zm-29 -34c6,-4 7,10 3,12 -2,1 -4,-4 -4,-5 -1,-3 -2,-6 1,-7zm127 174c0,-1 1,-1 2,-1 4,0 3,-2 4,4 2,0 3,0 4,1 0,0 0,0 0,0l1 2c0,-2 1,-2 2,-1 0,1 0,2 3,2 1,-1 1,-2 2,-2l2 5c0,0 0,0 0,0l1 1c0,1 -2,4 -3,3 -1,-1 -1,-2 -2,-2 -1,-1 -2,-1 -3,-1 -1,-1 -2,-2 -2,-2 -1,-2 0,-1 -2,-3 0,0 0,0 0,0 -1,2 -2,4 -3,5 -3,3 -3,5 -8,5 -1,-2 -2,-6 -2,-9 1,1 2,2 4,2 4,-1 5,-5 3,-7 0,0 -3,-2 -3,-2zm14 4c0,-1 2,-3 3,-6 0,-1 0,-1 0,-3 5,0 6,0 8,2 3,4 0,3 -1,7 0,1 0,4 -2,4 -2,-1 -2,-10 -2,-10 0,-1 0,0 0,-1 -1,1 0,0 -1,1 0,1 0,2 0,2 -1,2 -1,3 -2,4 -1,1 -1,1 -3,0zm-13 -23c2,1 1,2 2,3 1,1 2,2 2,2 1,2 0,2 0,4 0,1 -1,1 3,2 1,-1 0,-2 1,-3l1 0c0,0 0,0 0,0l1 -1c2,0 1,1 3,0 2,0 1,0 3,0 0,1 0,2 0,4 0,1 -1,1 -2,2 0,3 0,6 -3,6 -4,2 -1,-3 -3,-5 -5,-4 -6,3 -9,-2 -2,-3 0,-6 -3,-6 -2,0 0,1 -3,2 -1,1 -2,1 -4,1 -2,-2 -2,-6 -1,-10 1,0 2,1 3,2 0,2 -2,4 1,4 2,1 2,-1 4,-1 1,2 2,2 3,2 0,-1 -1,-3 0,-4 0,0 0,-1 1,-2zm-308 -27c0,3 -1,4 -3,6 -4,3 -8,-1 -3,-5 0,0 0,0 0,0 3,-2 4,-2 6,-1zm-19 -28c0,-3 0,-8 3,-7 1,2 0,4 0,7 1,0 9,-3 6,5 -1,2 -1,5 -4,6 -2,1 -3,-2 -4,-4 -1,0 -2,-1 -3,-2 -1,-2 -1,-3 1,-3l1 0c1,0 0,0 1,1 0,0 0,0 2,1l-1 -3c0,-1 -1,-1 -2,-1zm-3 49c4,-2 0,-3 4,-2 3,0 4,0 6,0l1 3c0,0 1,0 1,0 0,0 0,0 0,0 1,3 -2,4 0,6 2,-1 1,-1 2,-3 1,0 4,1 4,2 1,2 0,2 0,5 4,0 2,-3 3,-6 2,0 0,0 2,2 0,1 1,2 2,2 -1,4 -10,7 -12,3 -1,-1 -2,-3 -2,-5 -4,0 -3,2 -6,3 -2,0 -4,-1 -5,-3 1,-1 4,-3 5,-5 -1,-1 -3,2 -5,3 -1,-1 -1,-1 -1,-2 -1,-2 1,-1 -1,-2 0,1 -1,2 0,3 0,2 0,0 0,2 -1,0 -2,2 -4,0 -1,-1 -1,-3 -1,-6 2,0 3,1 4,0 1,-1 3,-2 3,-3l0 2c0,1 0,0 0,1z"/>
    <path class="fil5" d="M690 652c1,-2 0,0 2,-2 2,-2 0,-1 2,-1 -3,5 -3,1 -2,5 1,0 1,0 2,-1 3,-2 2,-2 4,-2 -1,2 -2,3 -3,3 -2,2 0,1 -2,3 0,0 -1,1 -2,1 0,0 0,1 0,1 0,3 -1,0 0,3 -2,0 -1,0 -2,0 0,4 -1,1 -3,4 0,0 0,0 0,0l-1 1c-7,0 -7,-14 -1,-16 4,-1 3,1 6,1zm31 50c4,2 7,3 13,4 13,0 27,-6 34,-16 1,-2 1,-4 3,-5 3,-1 3,-2 5,-4 2,-1 3,-3 4,-4 1,-1 1,-1 1,-3 1,0 1,-2 2,-2 2,-4 3,-12 1,-17 0,0 0,0 0,0 0,-1 0,-1 0,-1 -1,-1 -1,-2 -1,-3 -1,-2 -2,-4 -3,-6 -7,-11 -21,-16 -35,-13 -2,0 -6,1 -7,2 -1,0 -10,4 -11,8 -1,-2 0,-3 1,-4 1,-2 2,-5 2,-7l0 0c-1,1 -2,2 -2,3l-3 4c1,-2 2,-4 3,-5 1,-2 1,-4 1,-6 -1,0 -1,1 -1,2l-1 1c0,0 0,0 0,0 -1,0 0,-4 1,-6 1,1 0,1 2,2 0,0 0,0 0,0 2,2 1,2 3,3 0,-3 -3,-5 -4,-7l-8 -5c-1,0 -1,0 -1,-1 -9,-3 -22,-3 -30,3 -3,2 -4,3 -6,7 0,0 -1,0 -1,1 -1,1 -1,2 -1,4l1 -1c0,4 0,6 1,11 0,2 0,2 1,2 1,0 1,0 1,-1 4,-4 6,0 6,-15 1,0 1,0 2,-1l0 0c1,-2 2,-3 4,-4 -1,3 -2,2 -2,5 1,0 0,0 1,-1 1,-1 0,-1 3,-2 -1,2 -1,2 -2,3 -1,1 -1,2 -1,3 1,0 7,-8 8,-10 1,1 1,-1 0,2 0,1 -2,3 -2,4l5 -5c1,-1 -2,0 1,-1 0,4 -2,4 -2,6 1,0 3,-5 6,-6 0,3 -1,2 -1,5 1,-1 1,-1 2,-2 0,0 0,-1 1,-1 0,-1 0,-1 1,-1 0,2 -1,2 -1,4l3 -3c1,-1 0,0 1,-1 0,2 -1,3 -1,5 1,-1 1,0 2,-1 1,-1 -1,0 1,-1 0,4 -2,4 -2,7 2,0 2,-2 3,-2 0,3 -1,2 -1,4 -1,2 0,-1 0,4 -1,0 -2,0 -2,0 -1,0 0,0 -1,0l-1 2c-1,0 -1,0 -1,0 0,0 0,1 0,1 0,-1 0,0 0,0 -2,0 -5,-2 -8,-2 -4,-1 -6,0 -10,1 -2,0 -5,1 -7,2l-3 2c-6,5 -8,7 -10,15 -1,3 -1,5 0,9 2,6 3,3 3,6 0,0 -1,0 -1,0 -1,-1 1,0 -1,-1 2,5 13,10 18,11 3,1 6,0 9,1 1,1 0,2 1,4l1 2c2,4 9,11 13,12zm56 -57c3,4 5,13 4,19 -1,5 -5,14 -10,15l0 -8c2,-1 4,0 6,-4 2,-2 2,-5 2,-7 1,-3 2,-7 -2,-8 -3,0 -5,3 -6,4l-1 1c0,0 0,0 0,0l-1 2c0,1 0,1 0,3 -2,0 -1,0 -2,-2 -2,-3 0,-1 0,-6 -1,1 -1,-1 -2,2 0,-2 3,-4 1,-6l-2 3c0,-2 1,1 1,-4 -2,1 -1,-1 -1,2l-2 0c0,-2 1,1 1,-4 -3,1 -1,0 -2,2 -1,-2 1,0 0,-3 0,-1 0,0 0,-1 -1,1 -2,1 -1,2 -2,0 -2,0 -2,-2 -3,0 -2,0 -3,-1 -1,0 -2,0 -1,-2 2,1 0,1 1,1 2,1 2,0 2,-1 -1,0 -2,-1 -3,-1 -1,-1 0,0 -1,-1 0,-2 0,0 1,-2 -2,0 -2,1 -2,2 -2,0 -2,-1 -4,-1 -1,0 -2,0 -4,0 -1,0 1,0 -1,-1 -2,0 -3,1 -4,2 -2,0 0,0 -1,0l-1 -1c0,1 0,1 0,1 -1,1 -1,1 -2,1l-1 -1c0,1 0,1 0,1l-1 1c0,0 0,0 -1,0 0,-2 1,-4 3,-5 4,-1 1,-1 6,-3 2,0 2,0 3,0 2,-1 2,-1 4,-1 11,-2 23,3 29,12zm-11 20c2,4 3,7 2,14 0,2 -2,8 -4,10 -1,1 0,0 -1,1 0,-2 1,-4 2,-6 2,-7 0,-6 0,-8 0,-3 0,-1 1,-3 0,-2 0,-5 -1,-6 0,1 0,2 0,3 0,2 -1,1 -1,3 0,2 0,5 -2,5 -1,-1 -1,1 -1,-1 0,-2 3,-6 1,-9 0,1 0,2 -1,3 0,2 0,3 -1,3 -2,-3 3,-7 0,-13 0,8 -1,4 -1,8 -1,2 0,1 -2,2 -1,-1 0,-2 0,-2 0,0 2,-5 0,-9 -1,2 1,5 -2,6 0,-3 2,-7 -1,-10 0,6 1,9 -3,9 0,-3 1,-5 0,-8l0 1c-1,2 0,5 -3,6 0,-3 2,-10 -1,-10 0,4 0,5 0,7 -2,2 -1,4 -4,4 0,-1 0,-2 0,-3 1,-2 0,-2 0,-3 -1,2 -2,7 -4,8 -1,-1 -1,-1 -1,-1l0 -1c0,0 0,0 0,0 -1,4 -4,5 -6,7 -1,0 0,1 0,0 0,-2 3,-5 3,-10 -1,1 0,0 -1,1 0,2 -2,6 -4,7 -1,-1 -2,-2 -1,-4 3,-5 4,-2 4,-11 -1,2 0,3 -1,4 -1,2 -3,6 -4,7 -1,0 -1,0 -2,1 0,-4 3,-4 3,-8 -2,1 -4,5 -5,6 -3,2 -2,-3 -8,0 -2,0 -3,3 -4,6 -1,2 -2,6 -2,8 1,-2 1,-6 4,-6 0,5 0,8 4,11 5,2 8,0 11,-3 0,3 -2,4 -3,6l-1 1c-3,1 -5,2 -8,0 -5,-3 -3,-4 -5,-4 0,4 2,5 2,8 -1,0 -1,1 -2,-1 -2,-3 -3,-5 -4,-8 -1,-5 0,-10 1,-13 3,-5 5,-7 9,-10 1,-1 1,-1 2,-2 5,-3 5,-3 10,-5l4 -2c0,0 0,0 0,0 3,-1 12,0 15,1 3,1 2,2 6,2 3,0 7,4 8,6l3 4c0,0 0,1 0,1z"/>
    <path class="fil6" d="M318 627c1,-2 1,0 3,-1 0,-3 -2,-1 -2,-5 2,0 3,2 4,4 2,0 4,-2 5,1 0,0 -1,1 -2,1l-2 1c0,2 0,1 1,1 0,1 0,1 0,1 1,-1 0,0 1,-1 3,0 0,0 3,0 0,1 -2,6 3,9 -1,-2 -1,-1 -1,-3l2 2c0,2 0,2 0,3 3,2 1,1 2,3l1 1c-1,1 -1,1 -1,2 1,3 0,1 2,3l0 0c0,0 -1,0 -1,0 -1,1 -1,0 -1,1 0,2 1,1 1,1 2,3 0,0 1,1 -1,2 -2,2 -3,3 -1,1 0,0 -1,1 -2,0 -6,-1 -7,-1 -1,-1 -1,-2 -2,-2 0,0 -1,-1 -1,-1l0 0c-1,-2 -2,-2 -2,-4 1,-2 1,-1 0,-3l-2 -6 1 7c-2,-1 -2,-1 -4,-1l-1 0c0,-1 0,-1 0,-1 0,-1 0,-1 0,-2 -1,-2 -1,0 -1,-2 -1,-2 0,-1 -1,-5 0,-1 1,-8 1,-9 0,-1 0,-1 0,-1 2,0 2,0 2,2 0,0 1,-1 2,0zm22 -20c1,-1 -1,0 2,-1 1,0 3,0 5,0l24 -2c7,0 4,1 7,1 3,0 5,0 7,1 0,2 -2,1 -4,2 -1,0 -3,1 -4,1l-20 7c-7,2 -16,3 -24,1 -2,0 -5,-1 -7,-3l-7 -4c3,0 11,5 16,4l-3 -1c-1,-1 -1,0 -2,-1 0,0 -1,-1 -1,-1 0,0 0,0 0,-1l14 1c-1,0 -1,0 -3,0 -2,-1 -1,0 -2,-2 1,-1 5,-1 7,-1 3,0 5,0 8,0 -2,-1 -4,0 -7,0l-6 -1zm25 95c2,0 0,1 1,0 -1,-3 -6,-7 -9,-11 -3,-6 -3,-5 -7,-13 0,-1 -1,-2 -1,-3 -3,-6 -8,-22 -7,-27 0,0 1,0 1,0l0 1c1,1 0,0 1,1 1,2 1,2 1,3 1,2 1,1 2,4l2 5c1,2 0,1 2,3 1,1 1,4 1,6l2 9c1,2 0,0 1,1 1,1 1,1 1,1 1,0 1,1 1,1 4,4 3,1 5,4 1,1 2,2 4,5 4,4 3,-3 1,-4 0,-1 0,-1 1,-2l2 -1c-2,-2 -3,0 -7,-1 -1,-1 0,0 -1,-1l-2 -2c0,0 0,0 0,0 -1,-1 0,0 -1,-1 0,0 6,6 13,-1 1,-1 1,-1 1,-2 1,-2 1,-1 2,-2l-3 -1c0,-3 -2,-5 -3,-8 -4,1 -3,0 -4,-1 -1,-1 0,0 -2,-1l-2 -2c-3,-1 -2,-1 -3,-3 0,0 0,0 0,0 -1,-2 -1,-2 0,-4 1,-1 1,-1 2,-1l2 -1c-2,-1 -2,-1 -3,-1 -1,-1 -1,-2 -2,-3 -1,0 -1,0 -2,0 0,0 0,0 0,0l-4 -4c-1,0 -2,-1 -3,-2 3,0 2,0 5,-1 4,-1 -1,-5 -4,-2 -3,2 -4,2 -6,0 -3,-2 -1,-2 -2,-5 -1,-1 -1,0 -1,-2 -4,-13 -12,-8 -15,-10 0,-1 0,-1 0,-1 -1,0 -1,0 -1,0l-3 -3c0,0 0,0 -1,0 0,-1 0,-1 -1,-1 0,0 0,0 0,0l0 -1c0,0 0,0 0,0 -2,-1 -3,-1 -4,-3 -1,-1 -2,-2 -2,-4 5,1 6,2 9,4 5,3 4,2 8,4l3 1c4,0 0,1 8,1 7,0 6,-1 8,-1 6,-1 2,-1 6,-2l23 -6c0,0 1,0 1,0l5 -2c2,-1 5,-1 6,-3 -1,-1 -1,-1 -2,-1l-7 -2c-6,0 -18,0 -23,1 -4,0 -6,0 -11,1l-21 2c-4,1 -6,1 -10,0 -5,0 -8,-3 -9,0l4 1c-1,0 -3,1 -4,1 -1,-6 1,-1 -5,-8 -2,-2 -4,-5 -5,-8 -5,-9 -3,-17 -10,-17 -1,14 12,25 15,30 1,2 1,4 3,5 1,2 2,2 3,4 -1,2 -4,2 -4,10 0,11 1,20 5,31l4 10c3,6 8,16 12,22 2,2 5,7 8,6 2,-2 0,-6 0,-9 -1,-6 -2,-12 -2,-18 0,-3 -2,-4 -2,-7 2,0 5,0 7,-1 3,-1 3,-3 5,-3 0,3 0,4 1,7l8 21c3,6 10,14 15,18z"/>
    <path class="fil7" d="M340 633c0,2 0,1 1,2 1,3 -1,3 2,5 2,2 3,2 6,0 3,-3 8,1 4,2 -3,1 -2,1 -5,1 1,1 2,2 3,2l4 4c0,0 0,0 0,0 1,0 1,0 2,0 1,1 1,2 2,3 1,0 1,0 3,1l-2 1c-1,0 -1,0 -2,1 -1,2 -1,2 0,4 0,0 0,0 0,0 1,2 0,2 3,3l2 2c2,1 1,0 2,1 1,1 0,2 4,1 1,3 3,5 3,8l3 1c-1,1 -1,0 -2,2 0,1 0,1 -1,2 -7,7 -13,1 -13,1 1,1 0,0 1,1 0,0 0,0 0,0l2 2c1,1 0,0 1,1 4,1 5,-1 7,1l-2 1c-1,1 -1,1 -1,2 2,1 3,8 -1,4 0,0 1,1 1,2 1,1 4,6 6,7 2,-4 -1,-5 -2,-8 0,-2 2,1 0,-4 -1,-1 -1,-1 -1,-2 0,0 0,0 0,0 0,-2 0,1 0,-1 3,-2 5,-3 7,-6 1,-3 0,-5 1,-6l1 -1c1,-2 -1,-1 -1,-4 2,0 4,4 7,7 3,3 5,7 6,8 0,0 2,0 -1,-3 -4,-5 -8,-11 -12,-14 -1,-1 -1,-2 -3,-2 0,3 2,7 -2,8l0 -3c-3,-1 -1,-4 -1,-9 -2,0 -2,1 -3,1 -3,3 -8,-1 -9,-4 -1,-3 -1,-3 1,-4 0,4 1,6 5,6 -2,-1 -5,-3 -3,-6 1,-1 2,-1 4,0l4 4c1,1 0,2 3,1 1,-2 0,-1 -1,-2 0,-1 0,-1 0,-1 -3,-2 -1,-1 -4,-2 -1,-1 -6,-4 -8,-4 -1,0 -1,3 -2,1 0,-1 -1,0 0,-1l1 -1 -8 -5c-1,0 0,0 -1,-1 1,-1 3,-1 4,-1 0,0 3,4 11,7 10,2 13,0 22,5 4,3 8,5 12,8l4 4c-1,2 -3,4 -6,3 -7,-1 -13,-10 -19,-10 1,3 1,1 3,3l1 2c4,2 6,6 11,8l5 1c1,1 -1,3 3,9 1,2 3,3 5,5 9,5 12,4 19,4 -1,-1 -5,0 -6,0 -2,0 -4,0 -5,-2 0,0 0,-1 1,-1l7 0c2,0 5,-2 7,-3 2,-1 2,-2 3,-4 2,-4 0,-5 0,-6 -1,-3 1,0 -1,-2 -1,-2 0,-2 -2,-3 0,-1 0,0 -1,-1 -2,-1 -1,-2 -5,-2 0,2 0,2 -2,2 1,1 0,0 1,1l1 2c1,0 3,0 3,0 3,-1 0,-1 3,-1 0,2 0,0 -3,3l1 1 -2 1c0,1 0,1 1,1l2 1 -2 1c1,1 2,1 3,1 0,0 0,0 0,0 -1,1 -2,0 -3,2l2 0c0,0 0,0 1,0 -1,2 -3,3 -4,3 -3,2 -10,1 -14,-1 -2,-1 -2,-1 -4,-3l-1 0c0,0 0,0 0,0 -3,-2 -1,-2 -3,-3 1,-1 -1,-2 2,-1 0,-2 -1,0 -1,-4 2,1 1,0 2,1 1,1 -1,0 0,0 0,-2 -1,0 -1,-3l2 0 0 -3c-1,0 0,0 -1,0l-1 1c-2,1 0,1 -2,1 -1,0 0,0 -2,0 1,-2 1,-3 2,-4 1,-1 0,0 2,-1 3,-1 0,-1 5,-2 -1,-3 -3,-3 -7,-6 -1,-1 -2,-2 -3,-2 -3,-2 -2,0 -4,-3l-4 0c0,-1 -1,-1 3,-1 2,0 2,0 4,-1 3,1 2,1 6,1 2,0 4,1 7,0 3,-1 1,1 6,1 3,0 5,0 8,0 -2,-3 -12,-3 -16,-4 0,0 -1,1 -2,0l-1 0c-5,-1 -6,0 -7,-1 -4,-1 2,0 -6,-2 1,-1 0,0 1,-1 2,0 10,1 11,1l-11 -2c-2,0 -4,0 -6,0 -1,0 -2,-1 -3,-1l-2 0c0,0 0,0 0,0 0,-1 0,-2 1,-3l0 -1c0,0 0,0 0,0l-1 -1c2,-1 0,0 2,-1l0 2c2,-1 2,-4 1,-7 -3,-10 -23,-11 -30,-5 -4,3 -5,6 -5,12 -7,3 -10,0 -13,-5z"/>
    <path class="fil8" d="M639 296c0,-2 0,-4 1,-6 3,-1 1,3 2,8 1,0 1,0 2,-1 1,-1 1,-2 2,-2 1,-3 2,-3 4,-3 0,3 0,7 -3,8 -3,2 -2,4 -3,9 -1,0 -1,-1 -1,-1 -2,-2 -4,-3 -6,-3 -1,-3 0,-3 -1,-6 -1,-1 -2,-2 -2,-3 4,-1 2,1 5,0zm121 162c0,0 1,0 1,0l0 -1c1,0 0,0 1,0l3 1 0 2c5,-4 0,-12 -5,-14 0,-2 0,-2 1,-4 1,-4 0,-8 -1,-11 2,-1 3,-3 2,-4 0,-2 0,0 0,-2 3,-1 7,-1 5,-5 0,-2 -2,-3 -3,-4 -1,-1 -2,-1 -3,-2 0,-2 3,-1 2,-5 0,-3 -1,-3 -4,-3 0,-2 1,-4 0,-6 0,-2 0,-1 0,-1 -3,-3 -8,5 -9,6 -1,0 -3,-2 -3,-2 1,-3 3,-3 3,-7 0,-3 -2,-3 -4,-4 0,-2 2,-2 0,-4 -2,-2 -9,-1 -12,-1 1,-3 0,-3 0,-5 3,0 5,-1 6,-4 -1,-3 -3,-2 -4,-4 1,-1 4,-1 5,-2 0,-3 -2,-4 -4,-5 -3,-2 -5,-2 -5,-3 0,-2 3,-1 4,-3 0,-3 -4,-3 -7,-4 0,-1 0,-1 1,-1 0,0 0,0 0,-1 2,-1 6,-5 3,-7 -2,-1 -3,0 -6,0 0,-4 2,-11 -4,-10 -4,1 -4,6 -6,8 -2,0 -2,0 -5,-1 0,-1 0,-1 1,-1 1,-2 3,-3 2,-5l-1 0c-2,-1 2,0 0,0 -1,-1 -1,-1 -2,-1 -1,1 -1,1 -2,1 0,-3 1,-3 0,-7 -4,-2 -3,0 -6,1 0,-2 1,-2 2,-3 2,-2 6,-6 2,-9 -3,-1 -3,1 -5,1 0,-1 0,-2 -2,-3 -4,0 -7,5 -9,5 0,-3 3,-8 1,-11 -2,-1 -4,-2 -6,0l-3 2c0,1 0,1 0,1 -1,-3 -2,-5 -5,-5 -4,-1 -4,3 -7,3 0,-4 2,-7 0,-10 0,-1 -1,-2 -3,-2 -2,0 -2,1 -4,1 0,-2 2,-7 -1,-8 -3,0 -3,2 -5,3 -2,0 -3,-1 -5,1 -1,2 -1,3 -2,4 -6,-3 1,-8 -1,-13 -5,-2 -4,2 -7,2 -1,-4 -1,-5 -5,-5 -1,2 -1,4 -2,5 -2,0 -3,-1 -5,0 -5,3 -3,4 0,8 1,3 0,4 0,7 4,2 6,0 9,4 4,5 2,6 3,10l0 1c0,0 0,0 0,0 2,1 4,0 7,0 1,1 2,2 4,3 0,-4 -5,-5 -8,-6 0,-4 -2,-13 0,-17 2,0 2,1 3,2 2,2 -1,6 2,6 1,-1 2,-7 3,-9 0,0 1,-1 1,-1 3,-1 1,7 1,8 3,0 2,-4 2,-6 1,-2 4,-6 5,-3 0,1 0,1 0,2 -1,2 -2,4 -2,6 2,0 2,-1 4,-2 1,-1 2,-2 4,-1 3,1 0,7 0,9 -3,0 -2,1 -4,1 -2,0 -1,-1 -4,-1 -2,0 -6,1 -6,3 2,1 3,-2 8,-1 -1,2 -2,1 -1,4 2,0 4,-5 8,-4 2,1 1,1 1,1l0 2c0,0 0,0 0,0 2,0 2,0 3,-1 0,-2 2,-5 5,-4 3,2 1,6 3,8 1,-1 0,-2 1,-3l3 -3c5,-5 5,3 3,8 -1,0 -2,-1 -3,0 0,2 -1,1 1,2 7,3 0,8 3,12 5,0 3,-11 3,-11 1,-1 5,-4 7,-4 0,2 -4,5 -1,5 0,0 0,1 2,0 0,-1 0,-1 1,-2 2,-1 4,-1 4,1l-3 2c-2,3 -3,1 -5,2 -3,1 -5,8 -2,9l1 0c1,0 0,-5 1,-7 2,1 3,1 3,2 2,3 -2,4 1,6 1,0 0,1 1,-1 1,-1 1,-1 1,-2 0,-1 1,-2 2,-2 2,2 0,4 -1,7 3,0 4,-2 7,-2 0,2 -2,3 -3,4 -2,1 -4,1 -3,3 3,1 4,-1 7,1 -1,1 -2,2 -4,3 -1,1 -2,2 -4,2 0,-3 1,-4 -3,-4l0 0c2,4 -2,4 -2,8 2,0 3,-1 4,-3 1,1 2,3 2,4 -2,0 -6,0 -8,1 1,1 2,1 3,1 1,0 3,1 3,1 -1,2 -4,2 -5,5 1,0 1,0 2,0l1 -1c0,0 0,0 0,0 2,-1 3,-1 4,-1 2,2 1,5 -1,8 0,2 1,4 2,2 1,-2 2,-5 3,-7 3,0 4,2 7,1 0,-3 -5,-4 -7,-4 1,-3 8,-3 7,-6 -1,0 0,0 -1,0 -1,-1 -3,0 -6,0 -1,-1 -1,-2 -2,-3 4,-3 8,-3 10,-3 3,-2 -1,-11 6,-10 1,5 -1,6 -1,9 3,1 4,-1 7,-1 0,3 -1,3 -3,5 -2,2 -1,1 -4,2 1,2 -1,1 2,2 2,0 6,0 6,2 -2,0 -3,1 -4,1 -3,1 -4,1 -4,4 5,2 10,1 13,5l0 0c-2,1 -6,2 -5,4 1,2 4,1 4,3 -1,1 -3,1 -5,2 -3,1 -5,-1 -5,2 3,0 6,-1 5,4 0,2 -2,6 1,7 1,1 2,-2 3,-3 1,-1 7,0 8,0 0,0 0,0 0,0l-2 2c0,1 0,0 0,1 -1,1 -3,1 -2,3 3,0 3,-1 5,-1 2,-1 3,1 3,3 -1,2 0,1 -1,1l-2 3c-1,0 -2,0 -3,0 -1,0 -1,1 -1,2 9,-2 8,7 12,7 1,-3 -2,-3 0,-6 1,-1 2,-4 4,-3 2,2 -1,5 0,8l2 0c0,4 0,3 -1,4 -1,0 -2,0 -1,1 2,2 8,1 9,5 0,5 -8,2 -9,3 -1,1 1,2 2,4 -4,0 -4,-3 -7,-2 -1,2 2,3 3,4 4,2 2,4 3,8 0,1 1,1 1,3 -1,2 -3,2 -3,4 1,2 1,2 2,4 1,2 1,1 2,3 4,3 2,4 1,7z"/>
    <path class="fil9" d="M646 622l2 1c0,0 1,0 2,0 4,0 5,0 7,0 2,0 6,1 8,2 6,4 8,8 8,15 0,3 -1,10 -4,11 0,-1 0,-1 1,-2 1,-4 1,-8 1,-12 0,-1 0,-3 -1,-4 0,1 1,3 1,4 -1,2 0,2 -1,3l-2 -7c0,-3 0,-4 -2,-5 0,0 0,-1 0,-1l-1 0c1,2 4,6 2,9 -1,-2 -1,-4 -2,-5l-1 0 0 3c-5,-1 -1,-7 -6,-9 0,2 1,2 1,4 0,2 1,2 0,3 -1,-1 -1,-2 -1,-3 -1,-2 -2,-3 -3,-4l0 4c-3,-1 -3,-4 -5,-5 0,2 1,2 1,5 -2,0 -2,-3 -4,-4 0,3 1,2 1,5 -4,0 -2,-5 -6,-5 1,1 1,2 2,3 0,1 1,3 -1,3 -1,0 -2,-1 -2,-2l-3 -4 4 -2c-1,0 0,0 -1,0 -2,-1 -5,1 -6,2 -3,1 -4,2 -6,3 -2,2 -3,3 -4,5 -1,1 -1,2 -2,3 -2,4 0,3 0,4 1,-4 3,-6 5,-9 2,-2 6,-5 9,-5 1,1 2,2 2,4 0,1 1,3 0,5 -2,-1 -1,0 -1,-2 -1,-2 -2,-3 -3,-4 0,2 3,6 1,8 -3,-1 0,-5 -4,-6l1 5c-2,0 -1,-1 -3,-2 -1,2 -1,1 -2,2 -1,0 -2,0 -2,1 -3,2 -2,3 -1,5 1,2 -1,7 4,8 4,1 5,0 6,-2 3,-4 0,-4 1,-6 4,4 1,15 -6,13 -1,0 0,0 -1,0l-4 -3c0,4 5,4 5,8 -2,-1 -5,-5 -6,-7 -2,-5 -2,-8 -2,-13 -1,1 0,0 -1,1 0,1 0,0 0,1 -1,2 -1,4 0,6 1,8 5,14 12,18 16,7 34,-3 40,-16 5,-11 3,-22 -8,-27 -4,-1 -15,-2 -19,-1z"/>
    <path class="fil10" d="M482 584c-1,1 -1,0 -2,2 0,1 0,1 0,1 1,4 -1,7 -1,11 0,5 0,3 -2,6 -1,2 -2,4 -2,6 -2,10 1,21 2,31 0,18 -9,20 -21,28 -3,2 -8,5 -8,9 2,0 3,-2 4,-3 4,-3 8,-5 13,-7l6 -4 5 -5c1,-1 2,-3 2,-4 3,-6 3,-18 1,-24 -2,-11 0,-15 0,-24 2,0 1,2 2,4 2,8 0,7 1,15 0,3 0,7 1,9 1,1 1,2 2,3 1,3 1,3 3,3 -1,-6 -2,-6 -2,-14 1,1 0,0 1,1 0,0 0,2 0,2 3,9 9,18 12,28 2,5 2,7 3,12 2,-2 1,-5 1,-7 -1,-5 -5,-14 -5,-15l1 1c0,0 0,0 0,0 1,1 0,0 1,2 3,6 6,13 6,20 0,1 0,2 0,2l1 2c1,-4 0,-11 0,-15l1 3c4,17 -2,20 -1,25 2,0 2,-1 3,-2l2 -3c0,0 0,0 0,0 0,4 -2,8 -2,10 2,0 1,0 1,-1 1,-1 2,-3 3,-5 1,-2 1,-5 2,-7 1,-3 1,-15 -1,-18 -1,2 -1,6 -1,8 -1,-1 0,0 -1,-2 0,-2 1,-4 0,-5 0,-1 -1,-1 -1,-2 0,-1 0,-2 -1,-3 -1,-6 -6,-14 -9,-19 -2,-3 -4,-5 -6,-8 -3,-6 -7,-12 -10,-18 -1,-3 -3,-7 -4,-10 -1,-3 -1,-12 0,-13 1,0 2,-1 1,2 0,1 0,0 0,2 0,2 0,8 1,11 1,1 1,1 1,1 2,0 3,1 4,1 0,-1 0,-1 -1,-2l2 -1c-5,-6 -2,-6 -4,-10l0 -3c0,-1 0,-1 0,-1l2 4c1,1 1,3 3,3 -1,-3 -3,-5 -3,-9l2 3c1,1 0,0 1,1l0 -2c-1,-3 -3,-7 -3,-13l3 7c1,2 2,4 3,6 1,-1 0,-2 0,-3 -1,-2 -4,-7 -3,-9 -1,0 0,0 -1,0l-1 -1c0,-2 1,-10 -3,-11l-1 1 -1 -2c0,0 0,-1 0,-1 -3,-5 -3,-11 -4,-12 0,0 0,0 0,0 -1,1 2,9 2,10l3 7c1,2 0,1 2,2l0 -3c1,3 2,2 1,6 0,2 0,4 0,6 -4,2 0,0 -4,4 -2,2 0,2 -3,3 0,-2 0,-1 1,-3z"/>
    <path class="fil2" d="M343 415c5,-2 9,4 4,7 -4,3 -9,-4 -4,-7zm-36 -9l1 1c1,0 4,0 5,0l0 1c-2,1 -6,0 -7,1l-1 0c0,0 -1,0 -1,0l9 0c0,3 4,6 4,10 0,1 0,1 1,1 0,0 0,0 1,1 -2,0 -2,0 -3,-1 -1,2 -2,3 -3,5 -2,1 -1,0 -2,0 -1,1 -2,0 -3,1 0,0 0,0 0,0l1 0c0,0 0,0 0,0 0,0 1,0 1,0 0,4 -2,4 -2,6l2 1c0,0 0,0 0,0 0,1 0,0 -1,0 -1,1 0,1 -2,2 -1,1 -1,1 -1,5l-1 -1c-1,-1 0,-1 -1,-1l-1 0c0,0 0,0 0,0l-1 1 1 1c0,1 -1,1 -1,3 0,1 1,0 1,2 -2,-1 -3,-1 -2,2 0,3 1,4 4,4 0,0 -1,0 -1,0 0,1 0,-1 -1,2 3,-1 2,1 4,3 1,0 2,0 2,0 2,1 2,0 4,-1l1 1c0,1 1,4 3,3 0,0 1,-1 2,-1l0 -2c-2,1 0,1 -3,2 0,-2 0,-2 0,-3 0,-2 0,-1 0,-3 2,0 1,1 3,1 0,-2 0,-3 -3,-3 -2,0 -1,1 -3,1 -2,-1 -1,-1 -2,-3 -1,-1 -2,0 -2,-2 2,0 1,0 4,1 0,-1 0,0 0,0 -1,-2 -2,-4 -2,-6 1,0 2,0 2,1 4,4 -2,7 5,5 2,-3 -1,-6 -1,-7 -2,-2 -4,0 -4,-3 0,-1 0,-2 0,-3 4,1 4,-2 6,-5 2,0 3,1 5,-1 0,0 1,-1 1,-2 1,-1 1,1 2,-1 1,-2 3,-3 4,-1 1,2 -3,4 3,6 1,-1 2,-3 2,-4 2,-5 5,-5 5,2 1,-1 1,-1 2,-1l0 0c0,0 0,1 2,1 0,1 1,1 1,2 1,-1 0,0 1,-2 0,-1 1,-1 1,-2 2,0 3,1 3,2 5,5 1,5 3,7 2,0 1,0 2,-5 1,-3 3,-4 5,-2 1,2 2,9 -4,9 0,4 1,10 -3,10 -2,-1 -1,-1 -2,-2 -1,3 2,3 -1,6 1,1 4,2 5,2l-1 -3c0,0 1,0 1,0l2 -1c0,-7 1,-6 3,-7 -1,-4 0,-4 1,-4 3,1 4,4 4,7 -4,0 -1,-1 -3,-1l0 4c1,1 2,1 3,1 0,-1 1,-6 3,-4 2,1 -1,6 0,9 0,3 5,4 6,3 2,-1 1,-6 -1,-7l-2 0c-1,-2 0,-7 0,-9 -1,-1 -2,-1 -3,-2 0,0 -1,-1 -1,-1 -1,-2 0,-4 3,-3 2,1 4,3 4,6l-2 1c0,2 0,2 2,2 4,1 5,1 6,-3 0,-4 -1,-6 -2,-8 0,-2 1,-2 -1,-4 0,0 0,0 0,0l-1 0c0,0 0,0 0,0 -4,0 -6,-1 -6,-7l-6 0 -1 3c-4,1 -2,-2 -3,-4 -1,2 0,3 -1,5 -2,0 -1,-1 -2,-3 -4,0 -3,3 -5,3 -1,0 -1,0 -1,-1 0,-2 2,-5 2,-7 0,-1 -1,-2 -3,-2l1 1c1,1 1,1 1,1l-1 3c-1,1 0,0 -1,0l-1 0c0,-4 0,-5 -3,-7 -4,-1 -5,2 -7,3 0,0 0,0 0,0 0,0 0,-1 0,-1l-1 -1c0,0 0,0 0,1 -1,0 -1,1 -1,1 0,0 0,0 0,0 -2,-1 -1,-1 -2,-1 0,0 -1,1 -1,1 -1,1 1,0 0,1 -1,0 -2,0 -3,0l0 2c0,0 0,1 0,1l0 -1c0,0 -1,0 -1,0l-1 -7 -3 0c-1,0 0,0 -1,0l0 6c-1,-1 -2,0 -2,-4 -1,0 -1,0 -2,0 0,-1 0,-3 -1,-2 -1,1 0,3 -2,2 -1,-1 -3,-4 -4,-5 -1,-2 0,-1 -1,-3 0,-1 0,0 -1,-1 -1,0 0,0 -1,-1 -2,-3 -1,-3 -3,-3 0,1 0,0 0,1l1 3c1,0 1,0 1,0 0,0 0,0 0,0l-4 0z"/>
    <path class="fil11" d="M502 265c2,0 3,-1 4,-2 2,-3 16,-17 17,-9 0,2 0,4 1,6 1,1 1,2 3,2 1,-1 1,-2 1,-3 11,0 -2,14 6,14 3,-6 5,-13 10,-17l2 -2c1,0 2,0 3,0 3,2 1,8 1,11 1,3 0,-2 1,1 0,0 0,0 0,0 0,0 0,0 0,0 3,2 2,-2 6,1 0,2 -1,2 -1,3 -1,2 -1,3 -1,5 3,0 5,-2 7,2 1,2 0,6 1,9 1,0 1,1 2,0 1,0 2,-1 2,-1 3,-2 8,-3 10,-1 2,2 3,4 2,7l-2 6c-1,4 0,4 -2,9l-3 7c1,-1 2,-3 3,-4l2 -4c0,-1 1,-2 1,-3 1,-3 1,-5 4,-5 4,0 1,5 5,5 1,-3 -4,-8 0,-10 3,0 1,1 4,1 1,-2 1,-7 5,-6 0,2 0,4 0,7 1,-1 1,0 2,-1 1,0 1,-1 1,-1 2,0 2,1 3,1 -1,2 -2,3 -3,4 -6,0 -6,0 -6,9 -4,0 -6,-1 -7,2 -3,4 0,4 0,7 -4,0 -5,-1 -9,1 -7,4 -12,15 -8,17 1,0 1,-2 1,-3 1,-4 2,-7 5,-10 4,-4 7,-4 12,-2 3,1 1,-3 1,-5 0,-1 0,-3 1,-4 3,0 4,3 6,2 2,-2 0,-7 1,-10 7,-1 6,8 9,8 1,0 1,0 1,-2 1,-3 3,-8 6,-9 3,-1 3,0 5,1 0,2 -2,5 0,7 0,0 0,-3 3,-7 0,-2 1,-3 2,-4 1,-1 2,-1 3,-2 -3,-3 -6,2 -7,4 -4,-1 -7,-3 -11,2 -1,1 -1,3 -2,5l-4 -6c0,-2 4,-3 3,-8 -4,-2 -4,0 -6,1l0 -5c-2,-2 -3,-2 -5,0 -1,0 -1,1 -2,2 0,1 0,1 -1,2 -2,-1 -1,-2 -3,-2 -4,1 -3,4 -4,7l-2 0c0,-3 1,-4 1,-7 -1,-12 -14,-7 -15,-8 -1,-2 0,-4 -2,-6 -2,-3 -3,-2 -5,-3 -1,-6 0,-8 -6,-8 -1,-3 1,-7 0,-10 -2,-7 -9,-3 -13,2 -2,1 -3,5 -5,5 -1,-3 -1,-5 -4,-7 -3,-2 -5,4 -6,3 -1,-2 1,-13 -12,-5 -5,4 -8,9 -8,5 0,-1 0,-1 0,-2l-1 -2c-4,0 -5,3 -8,4 -2,-3 -4,-7 -8,-6 -2,1 -3,2 -4,3l0 1c-1,2 0,4 0,6 -3,1 -5,0 -6,2 -2,2 -1,4 -2,7 -2,-1 -1,-1 -3,0l0 8c0,2 0,3 1,3 0,0 0,0 0,0l0 -1c0,-1 0,-1 0,-1 0,-2 -1,-5 0,-7l3 -1c1,1 0,2 1,3 1,-1 1,1 1,-1 0,-2 -1,-5 0,-7 0,-3 3,-2 6,-2 2,2 1,4 4,4 1,-2 0,-3 -1,-5 -1,-2 -2,-3 -1,-5 0,-2 0,-2 1,-3l0 0c5,0 5,4 7,7 4,0 3,-5 7,-5 0,4 -1,6 -1,9z"/>
    <path class="fil2" d="M333 513c-3,0 -3,0 -4,2 -4,0 -3,1 -5,1 0,-2 3,-13 -4,-8l-1 -3c-3,-1 -2,3 -4,1 -1,-1 1,-2 2,-3 2,-2 4,-5 1,-7 -2,-1 -2,2 -5,1 1,-3 0,-1 2,-2 2,-2 3,-3 1,-6 -1,-2 -3,-6 -5,-6 -1,3 0,3 1,5 0,1 0,4 0,6 -2,-1 -2,-1 -2,-3 0,-1 0,-2 0,-3 -2,0 -3,1 -4,3 0,1 4,7 1,6 -2,-1 -3,-9 -3,-9 3,-2 2,-1 2,-5 1,-4 0,-4 -3,-4 -1,-3 0,-4 -2,-6 -3,-2 -2,0 -3,-4 -4,-2 -8,1 -11,3 -1,1 -2,2 -2,4 1,0 1,0 2,2 0,1 0,3 0,5l-3 -1c0,2 -3,4 -1,6 0,1 1,1 1,1 1,1 0,0 1,1 -2,1 -3,1 -4,-1 -1,-2 0,-5 1,-7l3 -3c-2,0 -7,7 -8,9l0 1c-1,0 -1,1 -1,1 0,3 0,5 2,6 1,-1 2,-2 3,-3 1,-1 2,-2 3,-2 1,4 -6,13 -1,15 2,-2 1,-7 5,-7l1 0c1,0 1,0 1,0 0,1 0,1 0,1l-1 1c0,0 -1,1 -1,1 -4,4 2,5 6,0 -1,-1 -3,-1 -3,-2 -3,-3 1,-5 -1,-7 -1,-2 -1,0 -1,-3 2,0 1,0 2,1l3 4c0,0 0,0 0,0 0,1 0,1 0,1l-1 0c0,0 0,0 -1,0 0,4 2,5 4,3 3,-2 1,-4 4,-7 1,1 1,0 2,2 0,1 1,3 1,5 0,1 0,1 0,2 -2,-1 -1,-1 -2,-2l0 -1c0,0 0,0 0,0 -2,0 -1,0 -2,2 -2,2 -5,3 -4,6 1,3 5,0 6,-2 1,-1 -1,0 2,-1 0,3 -2,3 -3,5 -2,1 -2,4 -1,6 0,1 0,1 1,1 2,-1 1,-1 3,-2 0,-3 -1,-2 -1,-5 3,-2 2,-3 6,-5 0,0 1,0 1,0 -1,-1 -2,-2 -1,-3 1,0 1,0 1,0 1,1 3,3 3,5 0,1 0,0 0,1 -1,0 -1,0 -1,1 1,1 2,1 3,1 1,1 0,0 1,1 -1,2 -4,0 -2,6 1,1 2,4 4,5 0,-1 2,-5 3,-4 1,1 0,3 0,5l6 0c1,2 0,2 3,3 0,0 0,-1 0,-2 1,-1 1,-4 3,-3 1,4 -1,5 -2,8l3 0 2 -2c0,-1 -1,-1 -2,-2 1,-4 2,-6 0,-10z"/>
    <path class="fil12" d="M426 685l-6 1c1,-1 1,-1 1,-2 0,0 1,0 0,0 -1,-2 0,-2 -2,-3 -2,-2 -1,-2 -1,-4l-7 -7c0,-1 0,0 0,-1 0,0 -1,0 -1,-1 0,-1 1,-1 1,-2 0,-1 -1,1 -1,-2 1,-2 5,-2 8,-2 2,0 3,1 5,1 3,2 2,2 2,3 -3,0 -4,-1 -5,2 1,2 2,2 3,3l1 1 -1 -2c-1,-1 0,0 -1,-1 2,0 2,0 2,-2 4,0 3,1 5,2 1,1 1,0 1,1 2,1 1,1 2,3 2,2 0,-1 1,2 0,1 2,2 0,6 -1,2 -1,3 -3,4 -2,1 -5,3 -7,3l-7 0c-1,0 -1,1 -1,1 1,2 3,2 5,2 1,0 5,-1 6,0 2,3 5,6 8,9 1,1 2,3 4,5 5,6 6,2 6,0 -1,-6 -3,-9 -5,-14 -1,-2 -1,-1 -1,-3 -1,-1 -1,-1 -2,-2 -2,-3 -1,-2 0,-6 0,-2 0,-5 -1,-7 -1,-4 -1,-3 -4,-6 0,-1 -2,-2 -3,-2l1 0c1,-2 0,-2 0,-2 -1,-2 0,-1 0,-4 -3,0 -2,0 -3,-1 -1,-2 -1,0 -3,-1 -1,-1 0,-1 0,-3 3,0 9,0 11,0 0,-3 0,-2 -6,-4 -6,-2 -14,-3 -21,-5 -1,0 -9,-1 -11,-1 -1,1 0,0 -1,1 8,2 2,1 6,2 1,1 2,0 7,1l1 0c1,1 2,0 2,0 4,1 14,1 16,4 -3,0 -5,0 -8,0 -5,0 -3,-2 -6,-1 -3,1 -5,0 -7,0 -4,0 -3,0 -6,-1 -2,1 -2,1 -4,1 -4,0 -3,0 -3,1l4 0c2,3 1,1 4,3 1,0 2,1 3,2 4,3 6,3 7,6 -5,1 -2,1 -5,2 -2,1 -1,0 -2,1 -1,1 -1,2 -2,4 2,0 1,0 2,0 2,0 0,0 2,-1l1 -1c1,0 0,0 1,0l0 3 -2 0c0,3 1,1 1,3 -1,0 1,1 0,0 -1,-1 0,0 -2,-1 0,4 1,2 1,4 -3,-1 -1,0 -2,1 2,1 0,1 3,3 0,0 0,0 0,0l1 0c2,2 2,2 4,3 4,2 11,3 14,1z"/>
    <path class="fil13" d="M525 598c1,4 3,10 4,14 1,4 3,15 4,16 0,-1 0,0 0,-2 0,0 0,-1 0,-2 0,-1 0,-3 0,-4 0,1 1,3 1,4 0,1 0,2 0,4 1,6 1,13 1,18 -1,2 -1,3 -1,5 0,2 1,2 -1,3l-1 1c1,0 1,0 1,0l1 0c0,0 0,-1 1,-1 1,-10 1,-12 1,-23 1,3 -1,13 1,15 3,-1 2,-2 2,-4l1 -2 0 6c1,0 1,0 2,0 0,1 0,1 0,1l-1 1c0,1 -2,6 -1,8 0,-1 0,-1 0,-1 1,-3 1,-9 6,-11 2,-1 4,-1 5,-1 -1,-2 -3,-2 -4,-2 -3,0 -1,0 -2,-1 3,-2 7,-3 11,0 0,0 4,7 6,8 0,-1 -1,-2 -2,-3 2,-2 1,0 2,-3 1,2 0,2 1,2l1 -3c0,3 0,2 1,4 1,2 0,2 1,2l1 -3c1,1 0,0 1,1 1,2 1,2 2,3 0,-1 0,-1 0,-3 1,2 3,6 4,8 1,1 4,7 5,7 0,-1 -3,-7 -4,-9 -1,-1 -1,-2 -2,-4 -1,-3 -2,-4 -1,-5 1,3 3,6 4,9 0,-1 0,-1 0,-2l-6 -20c-2,-6 -2,-6 -5,-6l1 9c-1,-3 -1,-2 -2,-4 0,-2 0,-3 -2,-4 0,3 0,5 1,7 0,3 1,5 1,7l-1 -2c-1,1 -1,2 -1,3 0,-1 -1,-1 -1,-2 0,0 0,-1 0,-1 -1,-2 -1,-1 -1,-3 -1,0 0,-1 -1,1 0,0 0,1 0,1 0,3 1,0 1,7 0,0 -3,-8 -3,-9l-2 2c-2,0 -3,-1 -4,-2 -1,-1 -3,-1 -4,-2 1,-2 2,-1 2,-2 0,0 0,0 0,0 -1,-1 -1,-1 -2,-2 0,0 -1,0 -1,0l0 -1c0,0 -1,0 -1,0 -1,-1 -1,-1 -2,-4 -1,-4 -3,-6 -3,-11l-2 -5c-1,-4 -3,-13 -5,-15 0,2 1,2 1,3 1,3 0,3 0,3 -1,0 0,1 -2,-2l-3 -9c-1,-2 -2,-4 -3,-6 -1,-3 -2,-4 -4,-5 0,3 3,7 4,10 4,8 4,10 7,17 1,3 0,3 1,4 0,2 0,0 0,1 1,4 -1,4 -2,4 0,0 -1,-2 -1,-2 -2,0 0,-1 -2,0 0,-1 -1,-4 -2,-6 0,-1 0,-1 -1,-3l-1 -2z"/>
    <path class="fil2" d="M303 453c1,-3 1,-1 1,-2 0,0 1,0 1,0 -3,0 -4,-1 -4,-4 -1,-3 0,-3 2,-2 0,-2 -1,-1 -1,-2 0,-2 1,-2 1,-3l-1 -1 1 -1c0,0 0,0 0,0l1 0c1,0 0,0 1,1l1 1c0,-4 0,-4 1,-5 2,-1 1,-1 2,-2 1,0 1,1 1,0 0,0 0,0 0,0l-2 -1c0,-2 2,-2 2,-6 0,0 -1,0 -1,0 0,0 0,0 0,0l-1 0c0,0 0,0 0,0 1,-1 2,0 3,-1 1,0 0,1 2,0 1,-2 2,-3 3,-5 1,1 1,1 3,1 -1,-1 -1,-1 -1,-1 -1,0 -1,0 -1,-1 0,-4 -4,-7 -4,-10l-9 0c-5,0 -4,7 -1,9l3 2c4,2 5,0 6,3 -8,1 -10,-4 -14,-1 -1,1 -1,3 -1,5 -1,0 -2,-2 -2,-4 1,-1 3,-3 3,-4 -3,-2 -5,-2 -9,-1 -2,3 -3,5 0,9 2,0 3,-1 3,1 -1,1 -5,0 -6,4 -1,4 3,3 3,6 -1,3 -4,3 -5,5 -1,3 1,7 3,7 1,0 3,-3 4,-4 0,-2 0,-2 1,-2 2,3 -2,6 -3,7 2,0 5,0 6,-1l1 -2c1,0 1,0 2,3 1,2 1,2 0,4 -2,1 -2,0 -3,-2l0 -1c0,0 0,0 0,0 -2,0 -3,1 -4,2 0,1 0,1 -1,2 0,1 0,1 0,1 0,3 0,-1 0,1 0,0 0,0 0,0 1,1 1,1 2,2 2,0 5,-1 7,-2 1,-1 0,-2 0,-4 1,-3 2,0 4,-1z"/>
    <path class="fil2" d="M725 688l1 -1c1,-2 3,-3 3,-6 -3,3 -6,5 -11,3 -4,-3 -4,-6 -4,-11 -3,0 -3,4 -4,6 0,-2 1,-6 2,-8 1,-3 2,-6 4,-6 6,-3 5,2 8,0 1,-1 3,-5 5,-6 0,4 -3,4 -3,8 1,-1 1,-1 2,-1 1,-1 3,-5 4,-7 1,-1 0,-2 1,-4 0,9 -1,6 -4,11 -1,2 0,3 1,4 2,-1 4,-5 4,-7 1,-1 0,0 1,-1 0,5 -3,8 -3,10 0,1 -1,0 0,0 2,-2 5,-3 6,-7 0,0 0,0 0,0l0 1c0,0 0,0 1,1 2,-1 3,-6 4,-8 0,1 1,1 0,3 0,1 0,2 0,3 3,0 2,-2 4,-4 0,-2 0,-3 0,-7 3,0 1,7 1,10 3,-1 2,-4 3,-6l0 -1c1,3 0,5 0,8 4,0 3,-3 3,-9 3,3 1,7 1,10 3,-1 1,-4 2,-6 2,4 0,9 0,9 0,0 -1,1 0,2 2,-1 1,0 2,-2 0,-4 1,0 1,-8 3,6 -2,10 0,13 1,0 1,-1 1,-3 1,-1 1,-2 1,-3 2,3 -1,7 -1,9 0,2 0,0 1,1 2,0 2,-3 2,-5 0,-2 1,-1 1,-3 0,-1 0,-2 0,-3 1,1 1,4 1,6 -1,2 -1,0 -1,3 0,2 2,1 0,8 -1,2 -2,4 -2,6 1,-1 0,0 1,-1 2,-2 4,-8 4,-10 1,-7 0,-10 -2,-14 0,0 0,-1 0,-1l-3 -4c-1,-2 -5,-6 -8,-6 -4,0 -3,-1 -6,-2 -3,-1 -12,-2 -15,-1 0,0 0,0 0,0l-4 2c-5,2 -5,2 -10,5 -1,1 -1,1 -2,2 -4,3 -6,5 -9,10 -1,3 -2,8 -1,13 1,3 2,5 4,8 1,2 1,1 2,1 0,-3 -2,-4 -2,-8 2,0 0,1 5,4 3,2 5,1 8,0z"/>
    <path class="fil2" d="M383 543c-1,-1 0,-1 -2,-1 -1,1 -1,2 -1,4 -1,3 0,3 -4,3l1 -2c0,-1 0,-1 0,-1 1,-2 1,-3 1,-5 -3,0 -1,0 -3,1 0,3 1,8 -3,7 0,-2 0,-1 1,-3 0,0 -1,-8 -3,-8 0,1 -1,2 -1,3 -1,5 0,3 -1,4 -1,-1 0,-9 -3,-7 0,0 -3,6 -4,7 0,2 1,4 3,4 1,0 0,0 1,0 1,-1 1,-2 2,-3 0,0 0,0 0,0 0,0 0,1 0,1l1 1c5,6 6,2 8,1 0,0 0,1 0,1 0,1 2,6 1,7 -2,0 -1,-1 -3,-3 -1,0 -3,1 -5,0 -1,-1 -1,-2 -1,-4 -3,1 -2,2 -6,1 -1,0 -1,1 -2,-1 -1,-3 1,-11 1,-13 -3,1 -1,3 -5,0 0,-2 1,-3 0,-5 -2,1 -1,1 -2,3 0,2 -2,5 -4,6 -3,1 -3,0 -5,2 -3,3 -1,4 -1,4l1 1c0,0 0,0 0,0 3,0 3,-2 5,-3 1,2 0,2 0,3 -1,1 -2,1 -2,2 -5,5 0,12 3,3 1,-2 2,-3 3,-6 -1,-2 -1,-1 -1,-4 3,0 1,0 3,2 1,1 1,0 2,2 -2,1 -2,1 -3,3l-2 8c1,1 3,2 5,1l1 -2c2,-1 1,0 2,2 0,1 2,2 3,1 1,0 2,-2 2,-2 1,-2 1,-3 3,-3 1,1 1,0 1,1l0 3c0,7 1,5 1,7l2 0c1,-1 1,0 1,-1 2,-2 3,-4 4,-6 3,-7 0,-5 4,-7 -1,-2 -1,-2 -1,-4 3,0 2,0 3,2 0,2 1,2 1,4 -3,0 -1,0 -3,-1 0,3 0,5 1,9 0,2 0,2 2,2l2 1c0,0 1,0 2,0l0 -2c-4,-1 -5,-6 -4,-8 0,-1 0,0 1,-1 2,1 0,0 1,4 1,2 2,2 2,2 0,-3 0,-6 -1,-8l-3 -6c-1,0 0,0 -1,0l-1 2 0 -5z"/>
    <path class="fil2" d="M733 492l0 4c3,1 6,4 9,1 4,-3 0,-8 1,-9 2,-1 4,3 9,2 1,-3 -1,-4 -1,-7 2,1 4,5 3,7 -1,4 -5,2 -8,2 0,3 1,6 -1,9 -2,2 -5,2 -7,0 -1,0 -2,0 -4,0 0,0 0,0 0,0 0,0 0,0 0,0 0,1 0,1 0,1 -1,2 0,1 -1,2 -2,0 0,0 -2,-2 -1,-1 -2,0 -2,0 0,0 0,0 0,0 0,0 -3,1 -2,5 1,4 5,5 6,5 1,1 3,4 6,-1 0,-1 1,-3 2,-3 4,0 10,1 9,-5 -2,-5 -2,-7 3,-9 3,-2 6,-4 6,-9 0,-2 -1,-4 -2,-5 -2,-4 -3,-2 -4,-3 -1,0 -1,-2 -2,-3 -1,-1 -3,-9 -7,-5 -1,1 -1,5 0,8 0,2 1,3 2,4l2 1c0,-1 0,0 0,0 0,2 -2,4 -3,4 -2,-2 -1,-5 -3,-8 -4,0 -4,1 -4,5 0,2 0,4 1,5l1 1c-1,1 -2,1 -3,1 -2,1 -2,1 -4,2z"/>
    <path class="fil2" d="M771 656c1,-1 3,-4 6,-4 4,1 3,5 2,8 0,2 0,5 -2,7 -2,4 -4,3 -6,4l0 8c5,-1 9,-10 10,-15 1,-6 -1,-15 -4,-19 -6,-9 -18,-14 -29,-12 -2,0 -2,0 -4,1 -1,0 -1,0 -3,0 -5,2 -2,2 -6,3 -2,1 -3,3 -3,5 1,0 1,0 1,0l1 -1c0,0 0,0 0,-1l1 1c1,0 1,0 2,-1 0,0 0,0 0,-1l1 1c1,0 -1,0 1,0 1,-1 2,-2 4,-2 2,1 0,1 1,1 2,0 3,0 4,0 2,0 2,1 4,1 0,-1 0,-2 2,-2 -1,2 -1,0 -1,2 1,1 0,0 1,1 1,0 2,1 3,1 0,1 0,2 -2,1 -1,0 1,0 -1,-1 -1,2 0,2 1,2 1,1 0,1 3,1 0,2 0,2 2,2 -1,-1 0,-1 1,-2 0,1 0,0 0,1 1,3 -1,1 0,3 1,-2 -1,-1 2,-2 0,5 -1,2 -1,4l2 0c0,-3 -1,-1 1,-2 0,5 -1,2 -1,4l2 -3c2,2 -1,4 -1,6 1,-3 1,-1 2,-2 0,5 -2,3 0,6 1,2 0,2 2,2 0,-2 0,-2 0,-3l1 -2c0,0 0,0 0,0l1 -1z"/>
    <path class="fil2" d="M682 631c-2,7 2,12 1,14 0,1 -5,4 -7,13 -1,3 -1,5 0,8 1,1 1,3 2,4 0,1 1,1 1,2 2,1 0,0 1,1 0,0 1,0 1,0 0,-3 -1,0 -3,-6 -1,-4 -1,-6 0,-9 2,-8 4,-10 10,-15l3 -2c2,-1 5,-2 7,-2 4,-1 6,-2 10,-1 3,0 6,2 8,2 0,0 0,-1 0,0 0,0 0,-1 0,-1 0,0 0,0 1,0l1 -2c1,0 0,0 1,0 0,0 1,0 2,0 0,-5 -1,-2 0,-4 0,-2 1,-1 1,-4 -1,0 -1,2 -3,2 0,-3 2,-3 2,-7 -2,1 0,0 -1,1 -1,1 -1,0 -2,1 0,-2 1,-3 1,-5 -1,1 0,0 -1,1l-3 3c0,-2 1,-2 1,-4 -1,0 -1,0 -1,1 -1,0 -1,1 -1,1 -1,1 -1,1 -2,2 0,-3 1,-2 1,-5 -3,1 -5,6 -6,6 0,-2 2,-2 2,-6 -3,1 0,0 -1,1l-5 5c0,-1 2,-3 2,-4 1,-3 1,-1 0,-2 -1,2 -7,10 -8,10 0,-1 0,-2 1,-3 1,-1 1,-1 2,-3 -3,1 -2,1 -3,2 -1,1 0,1 -1,1 0,-3 1,-2 2,-5 -2,1 -3,2 -4,4l0 0c-1,1 -1,1 -2,1 0,15 -2,11 -6,15 0,1 0,1 -1,1 -1,0 -1,0 -1,-2 -1,-5 -1,-7 -1,-11l-1 1z"/>
    <path class="fil2" d="M491 439c-3,0 -6,-2 -9,-2 -6,-2 -6,-1 -11,-6 -2,-1 -3,-2 -2,-3 0,0 0,0 0,0 0,-2 -1,-2 -1,-5 -1,0 -3,1 -3,2l-1 0c0,0 0,-1 -2,1 1,5 8,10 8,12 -1,0 -3,-3 -4,-4 -1,-1 0,-1 -2,-1 0,2 2,4 2,6l-1 -2c0,0 0,0 0,0 0,0 -1,0 -1,-1 -1,-1 0,-1 -2,-2 0,2 2,4 1,5 -1,0 -4,-6 -5,-6 0,-1 -2,-1 -3,-1 1,1 3,3 4,5 1,1 3,5 4,5 3,-1 1,-1 6,-2 5,0 17,4 22,5 4,1 8,1 11,5 2,1 3,2 4,4 1,3 0,6 1,8l2 0c0,-3 -1,-6 -1,-8 -1,-1 -1,-2 -2,-3 -1,-1 -1,-1 -2,-2 3,0 5,4 6,7 1,4 0,9 4,8 1,-1 1,-6 1,-8 0,-2 -1,-4 -2,-7 2,1 0,0 1,1 2,1 2,2 2,4 1,3 1,4 2,5 0,-1 1,-3 0,-4 0,-1 -1,-5 -2,-8 -1,0 -1,1 -2,-1 -1,-1 -1,-1 -1,-2 -2,-2 -3,-3 -6,-3 1,2 0,1 2,3 1,1 1,1 1,3 -1,-1 0,0 -1,-1 0,0 0,0 0,0 0,0 0,0 0,0 0,-1 -1,-1 -1,-1 -1,-2 -1,-1 -2,-1 -2,-2 -5,-5 -9,-5 0,2 0,1 2,3 0,0 0,0 0,0 -1,0 -6,-2 -8,-3z"/>
    <path class="fil14" d="M513 551c0,-1 -1,-2 -1,-3 0,-1 0,-3 -1,-4 0,-5 -2,-16 0,-20 0,-2 0,-2 -1,-2 0,0 -2,6 -2,8 0,3 0,7 0,10 -1,-1 -1,1 -1,-1 -1,-2 0,-4 -1,-5 -1,0 -1,0 -1,1 0,0 0,1 0,1 0,3 1,9 1,11 1,1 1,2 1,4l2 3c1,4 2,9 5,8 0,-2 -1,-2 -2,-5l2 0c0,0 0,0 0,0l1 -1c1,-1 1,0 2,-2l0 0c0,1 0,2 0,3l2 3c1,-2 0,-3 1,-4 1,2 0,6 3,8 1,-1 0,0 1,-2 0,1 0,2 1,3l1 2c1,-1 1,-1 1,-2 0,0 0,-1 -1,-1l-1 -5c0,0 0,0 0,-1 0,-1 0,0 0,-1 1,-2 -1,-6 -2,-9 -2,-11 1,-18 1,-22 -2,0 1,1 -1,0 -1,0 -1,0 -1,-1l-1 3 -1 -1c0,0 0,-1 0,-1l-2 0c-2,0 0,-1 -2,0 0,4 0,3 0,5 -1,3 0,15 0,19 -1,-2 -2,-4 -2,-6 0,-3 0,-4 0,-6 0,-3 1,-11 0,-13 -1,0 -1,1 -1,1 -1,1 -1,16 -1,19l1 6z"/>
    <path class="fil15" d="M321 626c-2,1 -2,-1 -3,1 -1,-1 -2,0 -2,0 0,-2 0,-2 -2,-2 0,0 0,0 0,1 0,1 -1,8 -1,9 1,4 0,3 1,5 0,2 0,0 1,2 0,1 0,1 0,2 0,0 0,0 0,1l1 0c2,0 2,0 4,1l-1 -7 2 6c1,2 1,1 0,3 0,2 1,2 2,4l0 0c0,0 1,1 1,1 1,0 1,1 2,2 1,0 5,1 7,1 1,-1 0,0 1,-1 1,-1 2,-1 3,-3 -1,-1 1,2 -1,-1 0,0 -1,1 -1,-1 0,-1 0,0 1,-1 0,0 1,0 1,0l0 0c-2,-2 -1,0 -2,-3 0,-1 0,-1 1,-2l-1 -1c-1,-2 1,-1 -2,-3 0,-1 0,-1 0,-3l-2 -2c0,2 0,1 1,3 -5,-3 -3,-8 -3,-9 -3,0 0,0 -3,0 -1,1 0,0 -1,1 0,0 0,0 0,-1 -1,0 -1,1 -1,-1l2 -1c1,0 2,-1 2,-1 -1,-3 -3,-1 -5,-1 -1,-2 -2,-4 -4,-4 0,4 2,2 2,5z"/>
    <path class="fil2" d="M340 607l6 1c3,0 5,-1 7,0 -3,0 -5,0 -8,0 -2,0 -6,0 -7,1 1,2 0,1 2,2 2,0 2,0 3,0l-14 -1c0,1 0,1 0,1 0,0 1,1 1,1 1,1 1,0 2,1l3 1c-5,1 -13,-4 -16,-4l7 4c2,2 5,3 7,3 8,2 17,1 24,-1l20 -7c1,0 3,-1 4,-1 2,-1 4,0 4,-2 -2,-1 -4,-1 -7,-1 -3,0 0,-1 -7,-1l-24 2c-2,0 -4,0 -5,0 -3,1 -1,0 -2,1z"/>
    <path class="fil16" d="M475 669c0,-3 4,-5 6,-6 4,-2 6,-2 11,-2 -1,0 0,0 -3,-1 -11,-2 -13,3 -18,7 -3,3 -12,11 -11,17 1,1 0,1 1,1 6,2 3,4 9,-3 8,-7 8,-6 16,-11 2,-1 8,-2 9,1 0,1 1,2 1,4 1,3 0,5 -1,7 -1,1 -1,1 -2,2 -1,1 -2,2 -2,3 2,-1 3,-2 4,-4 1,-1 3,-3 3,-5 3,-9 -2,-11 -5,-14 -6,-7 -17,4 -18,4z"/>
    <path class="fil2" d="M409 511c-1,2 -1,2 -1,4 -1,1 -1,2 -3,2 0,-3 1,-6 -3,-5 -1,1 -1,3 -1,4 -3,8 3,7 4,7 2,0 0,0 2,1 5,2 4,-3 18,0 2,0 5,1 8,2 2,1 5,2 7,3 4,1 15,3 19,0 -2,-1 -2,0 -4,-1 -2,0 -2,-1 -4,-1 -4,-1 -2,2 -7,-2 -5,-4 -6,-6 -8,-12 -2,1 -2,2 -3,3 -8,8 -10,0 -12,-1l0 4c-3,0 -5,-2 -5,-3 0,-2 1,-2 1,-6 -3,0 -2,1 -4,2 -1,0 -2,-1 -4,-1z"/>
    <path class="fil17" d="M456 269c2,-2 1,-3 1,-5 -1,-3 -1,-9 0,-12 0,-2 0,-3 3,-3 1,2 1,4 1,7 0,0 -2,9 2,7 1,-1 5,-9 8,-11 5,-6 8,-1 8,2 0,2 0,3 1,4 0,0 0,0 1,0 0,-4 0,-9 -4,-11 -4,-3 -7,2 -9,4 -1,1 -2,4 -4,5 0,-5 -1,-15 -6,-12 -4,2 -5,9 -5,14 -3,0 -3,-6 -10,-5 -5,7 1,12 1,16l-4 1c-2,-2 -5,-7 -11,-8 0,4 1,2 5,5 2,1 3,3 5,4 0,3 -1,5 0,8 1,2 2,4 5,4 0,-3 -6,-8 -2,-12 3,-2 4,1 6,2 1,1 3,3 5,2 2,-2 -4,-6 -5,-8 -5,-6 -5,-14 0,-11 1,1 3,3 4,4 2,2 1,8 4,9z"/>
    <path class="fil18" d="M453 395c-5,2 -6,3 -8,7l-2 2c-2,1 -3,1 -5,2 1,2 3,2 6,6 1,0 2,0 2,-1 3,0 1,0 3,2 2,2 4,3 7,2 2,-1 3,-2 4,-4 0,0 1,0 0,-2 -1,-1 -1,-1 -2,-1 0,0 -1,0 -2,0 -1,1 0,1 -1,3 -1,0 -1,0 -2,-1 -2,0 -2,-1 -4,-2 0,-1 0,-1 -1,-1 -1,-2 -1,-5 0,-6 5,-2 1,2 4,3 0,0 0,-1 0,-1 1,-1 0,-1 2,-1 0,1 0,1 1,2 0,1 1,1 1,2 3,0 5,-1 6,-2 1,-2 0,-4 -1,-5 -2,-2 -3,-1 -5,-1l-1 -2c0,0 0,0 0,0 0,0 0,0 0,0l-1 -2c2,0 3,1 4,-1 1,-1 1,-2 0,-4 -1,-2 -5,-3 -7,-3 -3,4 1,6 2,9z"/>
    <path class="fil19" d="M426 685c1,0 3,-1 4,-3 -1,0 -1,0 -1,0l-2 0c1,-2 2,-1 3,-2 0,0 0,0 0,0 -1,0 -2,0 -3,-1l2 -1 -2 -1c-1,0 -1,0 -1,-1l2 -1 -1 -1c3,-3 3,-1 3,-3 -3,0 0,0 -3,1 0,0 -2,0 -3,0l-1 -1c-1,-1 -2,-1 -3,-3 1,-3 2,-2 5,-2 0,-1 1,-1 -2,-3 -2,0 -3,-1 -5,-1 -3,0 -7,0 -8,2 0,3 1,1 1,2 0,1 -1,1 -1,2 0,1 1,1 1,1 0,1 0,0 0,1l7 7c0,2 -1,2 1,4 2,1 1,1 2,3 1,0 0,0 0,0 0,1 0,1 -1,2l6 -1z"/>
    <path class="fil2" d="M313 525c0,-1 0,0 0,-1l0 -2c0,1 -2,2 -3,3 -1,1 -2,0 -4,0 0,3 0,5 1,6 2,2 3,0 4,0 0,-2 0,0 0,-2 -1,-1 0,-2 0,-3 2,1 0,0 1,2 0,1 0,1 1,2 2,-1 4,-4 5,-3 -1,2 -4,4 -5,5 1,2 3,3 5,3 3,-1 2,-3 6,-3 0,2 1,4 2,5 2,4 11,1 12,-3 -1,0 -2,-1 -2,-2 -2,-2 0,-2 -2,-2 -1,3 1,6 -3,6 0,-3 1,-3 0,-5 0,-1 -3,-2 -4,-2 -1,2 0,2 -2,3 -2,-2 1,-3 0,-6 0,0 0,0 0,0 0,0 -1,0 -1,0l-1 -3c-2,0 -3,0 -6,0 -4,-1 0,0 -4,2z"/>
    <path class="fil2" d="M471 539c1,0 2,4 1,7 -2,4 -5,1 -6,0 -1,3 -1,3 -1,5 1,1 3,4 4,5 2,-2 1,-3 7,-7 1,-5 -1,-4 -2,-7 0,-3 0,-3 -1,-5 -2,-3 -5,-6 -8,-7 -1,1 -3,2 -4,3 -2,1 -3,0 -4,2 1,1 0,0 1,1 3,3 3,5 5,6 2,-1 1,-2 2,-4 1,2 0,4 1,6 1,1 3,3 4,1 2,-1 0,-4 1,-6z"/>
    <path class="fil2" d="M423 551c0,0 1,2 1,2 1,1 1,1 2,1l0 1c2,1 4,-1 5,-2 0,3 0,3 -2,4 -1,0 -2,0 -3,0 -2,-1 -3,-2 -4,-3l-1 -2c0,-1 -1,-1 -1,-2 -3,6 4,10 8,11 4,1 13,-1 13,-6 -2,-1 -2,-1 -3,-1 0,4 -3,6 -6,4 0,-1 0,0 1,-1 2,-1 4,0 3,-9 -1,0 -2,-1 -3,-1 0,-2 0,-4 -2,-5 -2,3 -2,1 -2,3 0,1 0,2 0,3 0,2 0,1 -1,2 0,-1 -1,0 -1,-3 0,-3 1,-5 0,-6 0,-2 0,-2 -2,-2 -1,3 0,3 0,6 0,2 0,2 -1,3 0,0 -1,0 -1,0l0 3z"/>
    <path class="fil20" d="M555 609c0,0 0,0 0,0 -5,-1 -1,-2 -5,-3l-1 3c-1,0 -1,0 -1,0l-1 -2c-2,1 -1,1 -1,1 0,1 1,8 1,9 1,1 1,1 1,2 1,3 1,3 2,7 3,-3 0,-3 1,-4 0,1 0,1 1,2 1,2 2,1 4,3 1,1 0,1 1,2l0 -2c3,-1 0,1 3,-3 0,-4 -1,-11 -2,-15 -1,-2 -1,0 -1,-3 0,1 0,1 0,1l-1 1c-1,1 -1,-1 -1,1z"/>
    <path class="fil2" d="M719 511c0,2 0,4 1,6 1,2 2,1 4,1 0,3 1,5 1,7 -5,-1 -4,-7 -6,-4 -3,2 1,8 1,9 -1,1 -2,1 -2,2 2,2 3,1 4,-1 1,-1 0,0 1,0 2,4 -3,3 -3,7 2,0 5,0 6,-1 2,-1 2,-3 3,-5 -2,0 -3,-1 -4,-2l0 -4c2,1 0,0 1,0 0,0 1,1 1,1 0,0 0,1 0,1 3,0 4,-2 3,-5 0,-2 -1,-4 -2,-6 -2,1 0,1 -2,1 0,-1 0,0 -1,-2 0,-6 -3,-11 -6,-5z"/>
    <path class="fil2" d="M632 540c2,0 3,0 4,-1 3,-1 1,-2 3,-2 3,0 1,3 3,6 3,5 4,-2 9,2 2,2 -1,7 3,5 3,0 3,-3 3,-6 1,-1 2,-1 2,-2 0,-2 0,-3 0,-4 -2,0 -1,0 -3,0 -2,1 -1,0 -3,0l-1 1c0,0 0,0 0,0l-1 0c-1,1 0,2 -1,3 -4,-1 -3,-1 -3,-2 0,-2 1,-2 0,-4 0,0 -1,-1 -2,-2 -1,-1 0,-2 -2,-3 -1,1 -1,2 -1,2 -1,1 0,3 0,4 -1,0 -2,0 -3,-2 -2,0 -2,2 -4,1 -3,0 -1,-2 -1,-4 -1,-1 -2,-2 -3,-2 -1,4 -1,8 1,10z"/>
    <path class="fil2" d="M690 652c-3,0 -2,-2 -6,-1 -6,2 -6,16 1,16l1 -1c0,0 0,0 0,0 2,-3 3,0 3,-4 1,0 0,0 2,0 -1,-3 0,0 0,-3 0,0 0,-1 0,-1 1,0 2,-1 2,-1 2,-2 0,-1 2,-3 1,0 2,-1 3,-3 -2,0 -1,0 -4,2 -1,1 -1,1 -2,1 -1,-4 -1,0 2,-5 -2,0 0,-1 -2,1 -2,2 -1,0 -2,2z"/>
    <path class="fil2" d="M655 555c-1,-1 -2,-1 -2,1l-1 -2c0,0 0,0 0,0 -1,-1 -2,-1 -4,-1 -1,-6 0,-4 -4,-4 -1,0 -2,0 -2,1 0,0 3,2 3,2 2,2 1,6 -3,7 -2,0 -3,-1 -4,-2 0,3 1,7 2,9 5,0 5,-2 8,-5 1,-1 2,-3 3,-5 0,0 0,0 0,0 2,2 1,1 2,3 0,0 1,1 2,2 1,0 2,0 3,1 1,0 1,1 2,2 1,1 3,-2 3,-3l-1 -1c0,0 0,0 0,0l-2 -5c-1,0 -1,1 -2,2 -3,0 -3,-1 -3,-2z"/>
    <path class="fil18" d="M436 393c0,0 -1,5 4,5 6,1 14,-6 8,-8 -3,-1 -2,1 -9,1 0,-4 1,-5 -2,-7 -4,-4 -10,-1 -7,6 2,2 3,2 6,3z"/>
    <path class="fil18" d="M620 424c0,0 0,0 0,1l2 1c1,2 0,2 1,4 2,4 6,1 6,1 0,3 -1,7 3,7 3,-1 2,-4 1,-7 -2,-2 -1,0 -3,-2 1,-5 0,-3 -1,-6 3,-1 1,0 3,-1 0,-2 0,-3 -2,-6 -1,-1 0,-1 -2,-1 -2,1 -1,5 -1,7 -1,-1 0,0 -2,-1 0,-1 -1,-1 -2,-1 -2,-2 -2,-2 -3,-2 -2,0 1,0 -1,0 -2,1 0,4 1,6z"/>
    <path class="fil21" d="M403 346c0,-4 -5,-3 -4,-8 0,-2 0,-1 1,-2 1,-1 1,-1 0,-3 -4,-1 -4,3 -6,4 -3,-1 -4,-2 -8,-2 0,4 4,3 5,5 0,3 0,2 -1,4 -3,8 1,7 2,6 1,-2 0,-3 2,-3 0,2 -1,1 -1,3 1,1 5,4 6,-4l4 0z"/>
    <path class="fil2" d="M678 552c-1,1 -1,7 0,8 0,2 3,4 5,2 3,-2 2,-8 3,-10 1,-1 1,-1 2,-1 2,3 0,6 5,9l0 0c6,-1 2,-4 2,-4l-4 -6c-2,-1 -2,-1 -4,-1 -1,-1 -2,-1 -3,-1 -3,3 -4,2 -6,4z"/>
    <path class="fil2" d="M624 473l0 -2 -4 1c0,2 1,3 -2,3 -1,-2 -1,-2 -1,-3 -2,0 -1,0 -2,2 0,1 -1,1 -1,2l-1 1c2,0 3,0 5,1 1,2 0,2 -2,4l-1 1c-2,2 1,5 2,5 0,-2 0,-2 1,-3 0,-1 0,-9 5,-8 0,2 -1,2 -1,4 2,0 2,0 4,0l1 -1c2,4 2,1 2,5 2,1 3,-2 4,-2 0,-1 -6,-5 -1,-9 2,-2 4,0 4,-3 -4,0 -2,1 -4,2 -3,-1 -1,-3 -5,-3 -1,2 0,4 -3,4 -1,0 -1,1 0,-1z"/>
    <path class="fil2" d="M699 475c-1,3 -3,9 1,11 1,0 3,-1 3,-2 1,-2 0,-5 0,-6 0,-3 -1,-4 -3,-4 0,0 0,-1 0,0 0,0 0,-1 0,-1l1 -2c3,0 5,0 6,-2 1,-1 2,-4 2,-6 -3,-1 -5,2 -7,3 -6,4 -6,0 -8,0 -1,2 0,4 0,5 2,4 2,2 4,3 0,0 0,0 0,1l1 0z"/>
    <path class="fil2" d="M686 461c1,1 2,2 4,4 1,0 2,-1 3,-1l-5 -8 -5 1c-2,1 -2,-1 -3,-1 -9,-3 -11,10 -1,10 3,0 5,-3 7,-5z"/>
    <path class="fil22" d="M639 296c-3,1 -1,-1 -5,0 0,1 1,2 2,3 1,3 0,3 1,6 2,0 4,1 6,3 0,0 0,1 1,1 1,-5 0,-7 3,-9 3,-1 3,-5 3,-8 -2,0 -3,0 -4,3 -1,0 -1,1 -2,2 -1,1 -1,1 -2,1 -1,-5 1,-9 -2,-8 -1,2 -1,4 -1,6z"/>
    <path class="fil2" d="M717 534l0 0c-1,0 -1,0 -2,1 0,0 0,0 0,0 0,0 0,0 -1,0l0 0c-2,2 -3,3 -6,0 0,-1 0,-1 -1,-2 -1,-1 0,0 -1,-1 -1,6 2,8 -4,7 0,-1 -1,-1 -1,-2l-1 -2c-1,-1 -2,-3 -3,-3 -1,3 0,8 2,9 1,1 1,0 2,1 0,0 0,0 1,1 1,1 2,1 4,1 3,0 11,-6 12,-8 0,-1 0,-1 -1,-2z"/>
    <path class="fil2" d="M316 476c1,0 2,0 2,1l1 3c-2,-1 -2,-1 -2,-1 -1,-1 0,-1 -1,-1l-1 0c-2,0 -2,1 -1,3 1,1 2,2 3,2 1,2 2,5 4,4 3,-1 3,-4 4,-6 3,-8 -5,-5 -6,-5 0,-3 1,-5 0,-7 -3,-1 -3,4 -3,7z"/>
    <path class="fil2" d="M693 452c-1,0 0,0 -2,1 0,3 2,6 4,7l6 -2c1,0 1,0 2,-1 -3,-1 -4,2 -8,0 0,-3 2,-1 5,-3 0,-3 -1,-2 -1,-4 1,-1 1,-1 2,-2 -1,0 -1,-1 -3,0 -1,0 0,1 -2,0 0,-2 -2,-4 -3,-6 -1,-1 -1,-1 -2,-1 -1,3 -2,6 0,9l1 0c1,1 0,0 1,2z"/>
    <path class="fil18" d="M635 362c0,-1 0,0 0,-1 0,0 0,0 0,-1l-1 -5c-1,-4 4,-3 4,-4 -1,-3 -4,0 -6,0 -3,-3 -1,-4 -4,-4 -1,2 -2,8 -1,11 0,2 1,4 3,4 1,1 4,0 5,0z"/>
    <path class="fil2" d="M720 471c-1,3 0,3 -1,6 0,2 -2,2 -4,3 -6,1 -2,7 1,6 2,-1 3,-2 3,-2l0 -1c2,-1 5,2 6,-3 0,-2 -1,-10 -5,-9z"/>
    <path class="fil23" d="M450 298c2,-4 -1,-3 1,-6 1,-3 2,-3 2,-6 -3,-1 -3,0 -5,1l-2 3c-1,1 -1,0 -2,0 -2,0 -7,-1 -9,0l0 0c0,1 0,1 1,1 10,3 8,8 14,7z"/>
    <path class="fil24" d="M410 304c0,3 1,2 3,2 2,1 3,1 5,1 3,0 5,-6 6,-6 0,-1 2,-2 1,-4 -1,-3 -6,1 -7,3 -1,1 -1,2 -2,4 -2,0 -5,-1 -6,0z"/>
    <path class="fil2" d="M656 554c2,1 2,1 3,0 1,-1 1,-2 2,-4 0,0 0,-1 0,-2 1,-1 0,0 1,-1 0,1 0,0 0,1 0,0 0,9 2,10 2,0 2,-3 2,-4 1,-4 4,-3 1,-7 -2,-2 -3,-2 -8,-2 0,2 0,2 0,3 -1,3 -3,5 -3,6z"/>
    <path class="fil2" d="M731 519c2,3 2,9 3,11l2 0c3,-4 2,-6 3,-9 2,-1 5,2 5,-2l-1 -4c-1,0 -2,4 -5,5 -4,1 -6,-2 -7,-1z"/>
    <path class="fil2" d="M373 569c-1,7 3,7 7,4 5,-5 3,-4 1,-7l-1 -3c0,0 0,0 0,0 0,0 0,0 0,0 -2,0 0,0 -3,2 0,0 0,0 0,0 -2,1 0,-1 -1,1 -1,1 -1,2 -3,3z"/>
    <path class="fil25" d="M542 314c-1,-3 0,-2 1,-4l1 -2c-2,0 -2,2 -4,2 -2,0 -2,-2 -6,-1 0,2 1,3 1,5 1,3 1,2 3,3 1,1 0,1 2,1l9 0c0,-3 -4,-2 -7,-4z"/>
    <path class="fil18" d="M515 376c-3,1 -2,4 -1,7 0,1 2,6 4,5 4,-2 3,-16 -3,-12z"/>
    <path class="fil18" d="M483 388c-2,1 0,6 1,8 4,6 12,1 5,-5 -2,-2 -4,-4 -6,-3z"/>
    <path class="fil2" d="M687 478c1,8 10,6 7,-1 -1,-2 -1,-3 -2,-4 -2,-4 -6,-3 -5,5z"/>
    <path class="fil26" d="M528 291c-1,-2 -3,-5 -6,-5 0,2 3,3 3,9 0,3 3,5 5,5 0,-3 -4,-3 2,-7 4,-2 3,-1 3,-3 -3,0 -4,1 -7,1z"/>
    <path class="fil2" d="M377 503l1 -1c0,-2 0,-3 -2,-4 -2,0 -6,0 -6,3 0,1 1,2 2,3l0 0c0,2 -5,5 -2,6 3,1 6,-2 6,-4 -1,-2 -1,-1 -1,-3 1,0 1,0 2,0z"/>
    <path class="fil2" d="M677 473l-1 -4c-1,-1 -2,-3 -6,1 -2,2 0,3 0,5 1,1 1,-1 1,1 -1,1 -1,2 -2,3 0,3 0,3 1,4 5,0 3,-5 3,-7 2,-1 2,-1 4,-3z"/>
    <path class="fil2" d="M711 470c-3,1 -7,3 -4,7 5,5 13,-7 6,-8 -2,0 -2,0 -2,1z"/>
    <path class="fil18" d="M544 410c2,-3 2,0 3,-2 -2,-1 -2,0 -3,-2 -1,0 -4,-8 -8,-4 -3,3 2,9 8,8z"/>
    <path class="fil18" d="M657 430c1,1 3,4 6,2 4,-3 0,-13 -4,-8 -1,1 -2,4 -2,6z"/>
    <path class="fil2" d="M435 546c2,0 0,-1 3,-1 1,3 1,6 4,6 4,0 4,-3 4,-6 -6,-3 -6,-1 -11,-1l0 2z"/>
    <path class="fil18" d="M644 427c-3,0 -2,0 -4,1 -1,0 -2,1 -3,2 -3,3 3,9 7,4 1,-2 0,-4 0,-7z"/>
    <path class="fil18" d="M336 403c1,2 4,4 6,2 1,-2 0,-9 -2,-10 -4,-1 -4,7 -4,8z"/>
    <path class="fil18" d="M654 435c-5,2 -3,10 2,8 1,-1 3,-3 3,-5 0,-3 -3,-5 -5,-3z"/>
    <path class="fil18" d="M343 415c-5,3 0,10 4,7 5,-3 1,-9 -4,-7z"/>
    <path class="fil18" d="M568 401c2,-3 1,-1 2,-6 0,-1 1,-5 -2,-4 0,0 -3,4 -3,4 -3,3 -2,3 0,6l3 0z"/>
    <path class="fil18" d="M565 419c-1,1 0,0 -2,1 0,1 -1,2 -1,3 1,5 8,5 7,-2 0,-1 0,-1 0,-2 0,0 -1,0 -1,0 -2,-2 -2,0 -3,0z"/>
    <path class="fil2" d="M458 540c-1,0 0,0 -1,1 -1,1 -3,2 0,6 2,3 3,2 6,0 0,-3 0,-3 -2,-4 -1,-1 -1,-2 -3,-3z"/>
    <path class="fil2" d="M335 504c-2,-1 -3,-1 -6,1 0,0 0,0 0,0 -5,4 -1,8 3,5 2,-2 3,-3 3,-6z"/>
    <path class="fil18" d="M390 454c2,1 3,1 4,-1 0,-1 1,-7 -4,-6 -3,3 -2,5 0,7z"/>
    <path class="fil18" d="M647 429c1,1 2,2 4,1 5,-5 -6,-14 -4,-1z"/>
    <path class="fil27" d="M459 281c1,3 6,4 5,-4 -1,-2 -2,-3 -4,-2 -1,1 -1,4 -1,6z"/>
    <path class="fil18" d="M631 401c0,-1 0,-2 1,-3l0 0c1,-2 1,-2 0,-3 -2,-1 -2,0 -3,1 0,-2 0,-3 -1,-3 -2,-2 -4,2 0,4 -1,3 0,4 3,4z"/>
    <path class="fil18" d="M524 371c0,2 0,1 0,3 2,3 3,3 6,1 0,-3 -1,-6 -5,-6 0,1 -1,1 -1,2z"/>
    <path class="fil2" d="M456 536c0,-2 -2,-2 -7,-2 1,6 9,10 7,2z"/>
    <path class="fil18" d="M646 438c8,1 5,-11 -1,-4 -1,2 0,3 1,4z"/>
    <path class="fil28" d="M654 686c-1,1 0,0 -2,0 -3,2 0,2 -3,1 0,2 -1,2 -2,3 0,0 0,-1 0,-1l-1 -1c0,0 0,0 0,0l0 4 -2 0c0,2 0,3 -2,3 0,-3 0,-7 -4,-9 -3,2 -5,7 -3,11 0,2 0,1 1,2 2,0 2,-3 3,-5 2,2 0,8 0,10l-3 -1 0 3 2 1c0,1 0,2 -2,2 -2,0 -3,-6 -4,-8 -1,-7 2,-14 7,-19 3,-2 4,-3 8,-5 2,-1 3,-1 6,-2 8,-2 16,-1 22,2l4 2c9,6 15,18 10,27 -4,6 -10,12 -17,14 -3,1 -11,3 -14,1 1,-1 3,-1 4,-1 4,-1 11,-2 14,-4 3,-1 7,-6 9,-9 4,-4 1,-2 1,-8 -1,2 0,3 -2,3 0,-1 0,-2 0,-3 0,0 0,-1 0,-1 0,0 0,0 0,0l-1 0c-1,-2 0,-3 0,-5 0,-2 0,-4 0,-6 -1,2 0,6 -2,7 -1,-3 0,-9 -1,-11 0,3 0,6 -1,8l-1 5c0,0 0,0 0,1 -1,-2 0,-3 0,-5 0,-1 0,-2 0,-3 0,-1 0,-2 0,-2 0,0 0,0 0,0 0,0 0,-1 0,-1l0 0c-3,2 0,9 -4,9l0 -2c1,-1 0,-2 1,-3 0,-1 0,-1 0,-2 0,-2 0,-5 0,-6 -1,1 -1,4 -1,6l-1 5 -1 0c-1,-1 -1,-1 0,-2 0,0 0,0 0,0l0 -8c0,0 0,0 0,0 0,0 -1,0 -1,0l0 1c0,1 0,3 0,5 -2,-1 -1,-1 -1,-2 0,-2 0,-1 -1,-3 0,-2 0,-5 0,-6l-1 8c1,2 1,1 0,2 -2,-1 0,-1 -1,-4 -1,0 -1,0 -2,0l-1 0c0,-2 0,-3 0,-4 -1,-1 -1,-1 -1,-3 -1,2 0,4 0,5 0,3 0,1 -1,2 -2,-1 -1,-2 -1,-4 -1,0 -1,0 -1,1 0,0 0,0 0,1 0,1 0,2 0,2 -3,0 -1,-3 -4,-5 0,2 2,4 0,6 -2,0 0,0 -1,-1l-1 -1 0 3zm16 -13c-5,0 -6,-1 -12,-1 -4,0 -7,1 -11,2 -4,2 -1,0 -3,2 -3,3 -7,3 -11,11 -11,20 10,34 14,34 1,1 0,0 1,0 2,3 8,3 12,3 7,0 17,-3 22,-8 1,0 2,-1 3,-1 0,-1 1,-1 2,-2 10,-11 6,-27 -7,-35l-10 -5z"/>
    <path class="fil2" d="M647 677c-4,2 -5,3 -8,5 -5,5 -8,12 -7,19 1,2 2,8 4,8 2,0 2,-1 2,-2l-2 -1 0 -3 3 1c0,-2 2,-8 0,-10 -1,2 -1,5 -3,5 -1,-1 -1,0 -1,-2 -2,-4 0,-9 3,-11 4,2 4,6 4,9 2,0 2,-1 2,-3l2 0 0 -4c0,0 0,0 0,0l1 1c0,0 0,1 0,1 1,-1 2,-1 2,-3 3,1 0,1 3,-1 2,0 1,1 2,0l0 -3 1 1c1,1 -1,1 1,1 2,-2 0,-4 0,-6 3,2 1,5 4,5 0,0 0,-1 0,-2 0,-1 0,-1 0,-1 0,-1 0,-1 1,-1 0,2 -1,3 1,4 1,-1 1,1 1,-2 0,-1 -1,-3 0,-5 0,2 0,2 1,3 0,1 0,2 0,4l1 0c1,0 1,0 2,0 1,3 -1,3 1,4 1,-1 1,0 0,-2l1 -8c0,1 0,4 0,6 1,2 1,1 1,3 0,1 -1,1 1,2 0,-2 0,-4 0,-5l0 -1c0,0 1,0 1,0 0,0 0,0 0,0l0 8c0,0 0,0 0,0 -1,1 -1,1 0,2l1 0 1 -5c0,-2 0,-5 1,-6 0,1 0,4 0,6 0,1 0,1 0,2 -1,1 0,2 -1,3l0 2c4,0 1,-7 4,-9l0 0c0,0 0,1 0,1 0,0 0,0 0,0 0,0 0,1 0,2 0,1 0,2 0,3 0,2 -1,3 0,5 0,-1 0,-1 0,-1l1 -5c1,-2 1,-5 1,-8 1,2 0,8 1,11 2,-1 1,-5 2,-7 0,2 0,4 0,6 0,2 -1,3 0,5l1 0c0,0 0,0 0,0 0,0 0,1 0,1 0,1 0,2 0,3 2,0 1,-1 2,-3 0,6 3,4 -1,8 -2,3 -6,8 -9,9 -3,2 -10,3 -14,4 -1,0 -3,0 -4,1 3,2 11,0 14,-1 7,-2 13,-8 17,-14 5,-9 -1,-21 -10,-27l-4 -2c-6,-3 -14,-4 -22,-2 -3,1 -4,1 -6,2z"/>
   </g>
  </g>
 </g>
</svg>
